# MagicaVoxel @ Ephtracy

# group
o 

# material
mtllib polka2.mtl
usemtl palette

# normals
vn -1 0 0
vn 1 0 0
vn 0 0 1
vn 0 0 -1
vn 0 -1 0
vn 0 1 0

# texcoords
vt 0.537109 0.5
vt 0.982422 0.5

# verts
v -3.3 3.9 3.5
v -3.3 3.9 1.6
v -3.3 4.2 2.1
v -3.3 4.2 1.6
v -3.3 4.3 2.2
v -3.3 4.3 2.1
v -3.3 4.4 2.3
v -3.3 4.4 2.2
v -3.3 4.5 2.4
v -3.3 4.5 2.3
v -3.3 4.6 2.5
v -3.3 4.6 2.4
v -3.3 4.7 2.6
v -3.3 4.7 2.5
v -3.3 4.8 2.7
v -3.3 4.8 2.6
v -3.3 4.9 2.8
v -3.3 4.9 2.7
v -3.3 5 2.9
v -3.3 5 2.8
v -3.3 5.1 3
v -3.3 5.1 2.9
v -3.3 5.2 3.1
v -3.3 5.2 3
v -3.3 5.3 3.2
v -3.3 5.3 3.1
v -3.3 5.4 3.3
v -3.3 5.4 3.2
v -3.3 5.6 3.5
v -3.3 5.6 3.3
v 3.2 4.1 3.3
v 3.2 4.1 1.6
v 3.2 4.2 2.1
v 3.2 4.2 1.6
v 3.2 4.3 2.2
v 3.2 4.3 2.1
v 3.2 4.4 2.3
v 3.2 4.4 2.2
v 3.2 4.5 2.4
v 3.2 4.5 2.3
v 3.2 4.6 2.5
v 3.2 4.6 2.4
v 3.2 4.7 2.6
v 3.2 4.7 2.5
v 3.2 4.8 2.7
v 3.2 4.8 2.6
v 3.2 4.9 2.8
v 3.2 4.9 2.7
v 3.2 5 2.9
v 3.2 5 2.8
v 3.2 5.1 3
v 3.2 5.1 2.9
v 3.2 5.2 3.1
v 3.2 5.2 3
v 3.2 5.3 3.2
v 3.2 5.3 3.1
v 3.2 5.4 3.3
v 3.2 5.4 3.2
v -3.2 4.1 3.3
v -3.2 4.1 1.6
v -3.2 4.2 2.1
v -3.2 4.2 1.6
v -3.2 4.3 2.2
v -3.2 4.3 2.1
v -3.2 4.4 2.3
v -3.2 4.4 2.2
v -3.2 4.5 2.4
v -3.2 4.5 2.3
v -3.2 4.6 2.5
v -3.2 4.6 2.4
v -3.2 4.7 2.6
v -3.2 4.7 2.5
v -3.2 4.8 2.7
v -3.2 4.8 2.6
v -3.2 4.9 2.8
v -3.2 4.9 2.7
v -3.2 5 2.9
v -3.2 5 2.8
v -3.2 5.1 3
v -3.2 5.1 2.9
v -3.2 5.2 3.1
v -3.2 5.2 3
v -3.2 5.3 3.2
v -3.2 5.3 3.1
v -3.2 5.4 3.3
v -3.2 5.4 3.2
v 3.3 3.9 3.5
v 3.3 3.9 1.6
v 3.3 4.2 2.1
v 3.3 4.2 1.6
v 3.3 4.3 2.2
v 3.3 4.3 2.1
v 3.3 4.4 2.3
v 3.3 4.4 2.2
v 3.3 4.5 2.4
v 3.3 4.5 2.3
v 3.3 4.6 2.5
v 3.3 4.6 2.4
v 3.3 4.7 2.6
v 3.3 4.7 2.5
v 3.3 4.8 2.7
v 3.3 4.8 2.6
v 3.3 4.9 2.8
v 3.3 4.9 2.7
v 3.3 5 2.9
v 3.3 5 2.8
v 3.3 5.1 3
v 3.3 5.1 2.9
v 3.3 5.2 3.1
v 3.3 5.2 3
v 3.3 5.3 3.2
v 3.3 5.3 3.1
v 3.3 5.4 3.3
v 3.3 5.4 3.2
v 3.3 5.6 3.5
v 3.3 5.6 3.3
v -3.3 3.9 3.5
v -3.3 5.6 3.5
v 3.3 3.9 3.5
v 3.3 5.6 3.5
v -3.3 5.4 3.3
v -3.3 5.6 3.3
v -3.2 4.1 3.3
v -3.2 5.4 3.3
v -3.1 5.3 3.3
v -3.1 5.4 3.3
v -3 5.2 3.3
v -3 5.3 3.3
v -3 5.4 3.3
v -3 5.5 3.3
v -2.9 5.2 3.3
v -2.9 5.3 3.3
v -2.9 5.4 3.3
v -2.9 5.5 3.3
v -2.8 5.3 3.3
v -2.8 5.4 3.3
v 2.8 5.3 3.3
v 2.8 5.4 3.3
v 2.9 5.2 3.3
v 2.9 5.3 3.3
v 2.9 5.4 3.3
v 2.9 5.5 3.3
v 3 5.2 3.3
v 3 5.3 3.3
v 3 5.4 3.3
v 3 5.5 3.3
v 3.1 5.3 3.3
v 3.1 5.4 3.3
v 3.2 4.1 3.3
v 3.2 5.4 3.3
v 3.3 5.4 3.3
v 3.3 5.6 3.3
v -3.3 5.3 3.2
v -3.3 5.4 3.2
v -3.2 5.3 3.2
v -3.2 5.4 3.2
v 3.2 5.3 3.2
v 3.2 5.4 3.2
v 3.3 5.3 3.2
v 3.3 5.4 3.2
v -3.3 5.2 3.1
v -3.3 5.3 3.1
v -3.2 5.2 3.1
v -3.2 5.3 3.1
v 3.2 5.2 3.1
v 3.2 5.3 3.1
v 3.3 5.2 3.1
v 3.3 5.3 3.1
v -3.3 5.1 3
v -3.3 5.2 3
v -3.2 5.1 3
v -3.2 5.2 3
v 3.2 5.1 3
v 3.2 5.2 3
v 3.3 5.1 3
v 3.3 5.2 3
v -3.3 5 2.9
v -3.3 5.1 2.9
v -3.2 5 2.9
v -3.2 5.1 2.9
v 3.2 5 2.9
v 3.2 5.1 2.9
v 3.3 5 2.9
v 3.3 5.1 2.9
v -3.3 4.9 2.8
v -3.3 5 2.8
v -3.2 4.9 2.8
v -3.2 5 2.8
v 3.2 4.9 2.8
v 3.2 5 2.8
v 3.3 4.9 2.8
v 3.3 5 2.8
v -3.3 4.8 2.7
v -3.3 4.9 2.7
v -3.2 4.8 2.7
v -3.2 4.9 2.7
v 3.2 4.8 2.7
v 3.2 4.9 2.7
v 3.3 4.8 2.7
v 3.3 4.9 2.7
v -3.3 4.7 2.6
v -3.3 4.8 2.6
v -3.2 4.7 2.6
v -3.2 4.8 2.6
v 3.2 4.7 2.6
v 3.2 4.8 2.6
v 3.3 4.7 2.6
v 3.3 4.8 2.6
v -3.3 4.6 2.5
v -3.3 4.7 2.5
v -3.2 4.6 2.5
v -3.2 4.7 2.5
v 3.2 4.6 2.5
v 3.2 4.7 2.5
v 3.3 4.6 2.5
v 3.3 4.7 2.5
v -3.3 4.5 2.4
v -3.3 4.6 2.4
v -3.2 4.5 2.4
v -3.2 4.6 2.4
v 3.2 4.5 2.4
v 3.2 4.6 2.4
v 3.3 4.5 2.4
v 3.3 4.6 2.4
v -3.3 4.4 2.3
v -3.3 4.5 2.3
v -3.2 4.4 2.3
v -3.2 4.5 2.3
v 3.2 4.4 2.3
v 3.2 4.5 2.3
v 3.3 4.4 2.3
v 3.3 4.5 2.3
v -3.3 4.3 2.2
v -3.3 4.4 2.2
v -3.2 4.3 2.2
v -3.2 4.4 2.2
v 3.2 4.3 2.2
v 3.2 4.4 2.2
v 3.3 4.3 2.2
v 3.3 4.4 2.2
v -3.3 4.2 2.1
v -3.3 4.3 2.1
v -3.2 4.2 2.1
v -3.2 4.3 2.1
v 3.2 4.2 2.1
v 3.2 4.3 2.1
v 3.3 4.2 2.1
v 3.3 4.3 2.1
v -3.3 3.9 1.6
v -3.3 4.2 1.6
v -3.2 4.1 1.6
v -3.2 4.2 1.6
v 3.2 4.1 1.6
v 3.2 4.2 1.6
v 3.3 3.9 1.6
v 3.3 4.2 1.6
v -3.3 3.9 3.5
v 3.3 3.9 3.5
v -3.3 3.9 1.6
v 3.3 3.9 1.6
v -3.2 4.1 3.3
v 3.2 4.1 3.3
v -3.2 4.1 1.6
v 3.2 4.1 1.6
v -3.3 4.2 2.1
v -3.2 4.2 2.1
v 3.2 4.2 2.1
v 3.3 4.2 2.1
v -3.3 4.2 1.6
v -3.2 4.2 1.6
v 3.2 4.2 1.6
v 3.3 4.2 1.6
v -3.3 4.3 2.2
v -3.2 4.3 2.2
v 3.2 4.3 2.2
v 3.3 4.3 2.2
v -3.3 4.3 2.1
v -3.2 4.3 2.1
v 3.2 4.3 2.1
v 3.3 4.3 2.1
v -3.3 4.4 2.3
v -3.2 4.4 2.3
v 3.2 4.4 2.3
v 3.3 4.4 2.3
v -3.3 4.4 2.2
v -3.2 4.4 2.2
v 3.2 4.4 2.2
v 3.3 4.4 2.2
v -3.3 4.5 2.4
v -3.2 4.5 2.4
v 3.2 4.5 2.4
v 3.3 4.5 2.4
v -3.3 4.5 2.3
v -3.2 4.5 2.3
v 3.2 4.5 2.3
v 3.3 4.5 2.3
v -3.3 4.6 2.5
v -3.2 4.6 2.5
v 3.2 4.6 2.5
v 3.3 4.6 2.5
v -3.3 4.6 2.4
v -3.2 4.6 2.4
v 3.2 4.6 2.4
v 3.3 4.6 2.4
v -3.3 4.7 2.6
v -3.2 4.7 2.6
v 3.2 4.7 2.6
v 3.3 4.7 2.6
v -3.3 4.7 2.5
v -3.2 4.7 2.5
v 3.2 4.7 2.5
v 3.3 4.7 2.5
v -3.3 4.8 2.7
v -3.2 4.8 2.7
v 3.2 4.8 2.7
v 3.3 4.8 2.7
v -3.3 4.8 2.6
v -3.2 4.8 2.6
v 3.2 4.8 2.6
v 3.3 4.8 2.6
v -3.3 4.9 2.8
v -3.2 4.9 2.8
v 3.2 4.9 2.8
v 3.3 4.9 2.8
v -3.3 4.9 2.7
v -3.2 4.9 2.7
v 3.2 4.9 2.7
v 3.3 4.9 2.7
v -3.3 5 2.9
v -3.2 5 2.9
v 3.2 5 2.9
v 3.3 5 2.9
v -3.3 5 2.8
v -3.2 5 2.8
v 3.2 5 2.8
v 3.3 5 2.8
v -3.3 5.1 3
v -3.2 5.1 3
v 3.2 5.1 3
v 3.3 5.1 3
v -3.3 5.1 2.9
v -3.2 5.1 2.9
v 3.2 5.1 2.9
v 3.3 5.1 2.9
v -3.3 5.2 3.1
v -3.2 5.2 3.1
v 3.2 5.2 3.1
v 3.3 5.2 3.1
v -3.3 5.2 3
v -3.2 5.2 3
v 3.2 5.2 3
v 3.3 5.2 3
v -3.3 5.3 3.2
v -3.2 5.3 3.2
v 3.2 5.3 3.2
v 3.3 5.3 3.2
v -3.3 5.3 3.1
v -3.2 5.3 3.1
v 3.2 5.3 3.1
v 3.3 5.3 3.1
v -3.3 5.4 3.3
v -3.2 5.4 3.3
v 3.2 5.4 3.3
v 3.3 5.4 3.3
v -3.3 5.4 3.2
v -3.2 5.4 3.2
v 3.2 5.4 3.2
v 3.3 5.4 3.2
v -3.3 5.6 3.5
v 3.3 5.6 3.5
v -3.3 5.6 3.3
v 3.3 5.6 3.3

# faces
f 3/1/1 2/1/1 1/1/1
f 4/1/1 2/1/1 3/1/1
f 5/1/1 3/1/1 1/1/1
f 6/1/1 3/1/1 5/1/1
f 7/1/1 5/1/1 1/1/1
f 8/1/1 5/1/1 7/1/1
f 9/1/1 7/1/1 1/1/1
f 10/1/1 7/1/1 9/1/1
f 11/1/1 9/1/1 1/1/1
f 12/1/1 9/1/1 11/1/1
f 13/1/1 11/1/1 1/1/1
f 14/1/1 11/1/1 13/1/1
f 15/1/1 13/1/1 1/1/1
f 16/1/1 13/1/1 15/1/1
f 17/1/1 15/1/1 1/1/1
f 18/1/1 15/1/1 17/1/1
f 19/1/1 17/1/1 1/1/1
f 20/1/1 17/1/1 19/1/1
f 21/1/1 19/1/1 1/1/1
f 22/1/1 19/1/1 21/1/1
f 23/1/1 21/1/1 1/1/1
f 24/1/1 21/1/1 23/1/1
f 25/1/1 23/1/1 1/1/1
f 26/1/1 23/1/1 25/1/1
f 27/1/1 25/1/1 1/1/1
f 28/1/1 25/1/1 27/1/1
f 29/1/1 27/1/1 1/1/1
f 30/1/1 27/1/1 29/1/1
f 33/1/1 32/1/1 31/1/1
f 34/1/1 32/1/1 33/1/1
f 35/1/1 33/1/1 31/1/1
f 36/1/1 33/1/1 35/1/1
f 37/1/1 35/1/1 31/1/1
f 38/1/1 35/1/1 37/1/1
f 39/1/1 37/1/1 31/1/1
f 40/1/1 37/1/1 39/1/1
f 41/1/1 39/1/1 31/1/1
f 42/1/1 39/1/1 41/1/1
f 43/1/1 41/1/1 31/1/1
f 44/1/1 41/1/1 43/1/1
f 45/1/1 43/1/1 31/1/1
f 46/1/1 43/1/1 45/1/1
f 47/1/1 45/1/1 31/1/1
f 48/1/1 45/1/1 47/1/1
f 49/1/1 47/1/1 31/1/1
f 50/1/1 47/1/1 49/1/1
f 51/1/1 49/1/1 31/1/1
f 52/1/1 49/1/1 51/1/1
f 53/1/1 51/1/1 31/1/1
f 54/1/1 51/1/1 53/1/1
f 55/1/1 53/1/1 31/1/1
f 56/1/1 53/1/1 55/1/1
f 57/1/1 55/1/1 31/1/1
f 58/1/1 55/1/1 57/1/1
f 59/1/2 60/1/2 61/1/2
f 61/1/2 60/1/2 62/1/2
f 59/1/2 61/1/2 63/1/2
f 63/1/2 61/1/2 64/1/2
f 59/1/2 63/1/2 65/1/2
f 65/1/2 63/1/2 66/1/2
f 59/1/2 65/1/2 67/1/2
f 67/1/2 65/1/2 68/1/2
f 59/1/2 67/1/2 69/1/2
f 69/1/2 67/1/2 70/1/2
f 59/1/2 69/1/2 71/1/2
f 71/1/2 69/1/2 72/1/2
f 59/1/2 71/1/2 73/1/2
f 73/1/2 71/1/2 74/1/2
f 59/1/2 73/1/2 75/1/2
f 75/1/2 73/1/2 76/1/2
f 59/1/2 75/1/2 77/1/2
f 77/1/2 75/1/2 78/1/2
f 59/1/2 77/1/2 79/1/2
f 79/1/2 77/1/2 80/1/2
f 59/1/2 79/1/2 81/1/2
f 81/1/2 79/1/2 82/1/2
f 59/1/2 81/1/2 83/1/2
f 83/1/2 81/1/2 84/1/2
f 59/1/2 83/1/2 85/1/2
f 85/1/2 83/1/2 86/1/2
f 87/1/2 88/1/2 89/1/2
f 89/1/2 88/1/2 90/1/2
f 87/1/2 89/1/2 91/1/2
f 91/1/2 89/1/2 92/1/2
f 87/1/2 91/1/2 93/1/2
f 93/1/2 91/1/2 94/1/2
f 87/1/2 93/1/2 95/1/2
f 95/1/2 93/1/2 96/1/2
f 87/1/2 95/1/2 97/1/2
f 97/1/2 95/1/2 98/1/2
f 87/1/2 97/1/2 99/1/2
f 99/1/2 97/1/2 100/1/2
f 87/1/2 99/1/2 101/1/2
f 101/1/2 99/1/2 102/1/2
f 87/1/2 101/1/2 103/1/2
f 103/1/2 101/1/2 104/1/2
f 87/1/2 103/1/2 105/1/2
f 105/1/2 103/1/2 106/1/2
f 87/1/2 105/1/2 107/1/2
f 107/1/2 105/1/2 108/1/2
f 87/1/2 107/1/2 109/1/2
f 109/1/2 107/1/2 110/1/2
f 87/1/2 109/1/2 111/1/2
f 111/1/2 109/1/2 112/1/2
f 87/1/2 111/1/2 113/1/2
f 113/1/2 111/1/2 114/1/2
f 87/1/2 113/1/2 115/1/2
f 115/1/2 113/1/2 116/1/2
f 119/1/3 118/1/3 117/1/3
f 120/1/3 118/1/3 119/1/3
f 121/1/4 122/1/4 124/1/4
f 123/1/4 124/1/4 125/1/4
f 124/1/4 122/1/4 126/1/4
f 125/1/4 124/1/4 126/1/4
f 123/1/4 125/1/4 127/1/4
f 125/2/4 126/2/4 128/2/4
f 127/1/4 125/1/4 128/1/4
f 126/1/4 122/1/4 129/1/4
f 128/2/4 126/2/4 129/2/4
f 129/1/4 122/1/4 130/1/4
f 127/2/4 128/2/4 131/2/4
f 123/1/4 127/1/4 131/1/4
f 129/2/4 130/2/4 131/2/4
f 128/2/4 129/2/4 131/2/4
f 131/2/4 130/2/4 132/2/4
f 132/2/4 130/2/4 133/2/4
f 130/1/4 122/1/4 134/1/4
f 133/2/4 130/2/4 134/2/4
f 132/2/4 133/2/4 135/2/4
f 131/1/4 132/1/4 135/1/4
f 133/1/4 134/1/4 136/1/4
f 135/2/4 133/2/4 136/2/4
f 131/1/4 135/1/4 137/1/4
f 135/1/4 136/1/4 137/1/4
f 136/1/4 134/1/4 138/1/4
f 137/1/4 136/1/4 138/1/4
f 123/1/4 131/1/4 139/1/4
f 131/1/4 137/1/4 139/1/4
f 137/2/4 138/2/4 140/2/4
f 139/1/4 137/1/4 140/1/4
f 138/1/4 134/1/4 141/1/4
f 140/2/4 138/2/4 141/2/4
f 134/1/4 122/1/4 142/1/4
f 141/1/4 134/1/4 142/1/4
f 140/2/4 141/2/4 143/2/4
f 139/2/4 140/2/4 143/2/4
f 141/2/4 142/2/4 143/2/4
f 123/1/4 139/1/4 143/1/4
f 143/2/4 142/2/4 144/2/4
f 144/2/4 142/2/4 145/2/4
f 142/1/4 122/1/4 146/1/4
f 145/2/4 142/2/4 146/2/4
f 144/2/4 145/2/4 147/2/4
f 143/1/4 144/1/4 147/1/4
f 145/1/4 146/1/4 148/1/4
f 147/2/4 145/2/4 148/2/4
f 123/1/4 143/1/4 149/1/4
f 143/1/4 147/1/4 149/1/4
f 147/1/4 148/1/4 149/1/4
f 148/1/4 146/1/4 150/1/4
f 149/1/4 148/1/4 150/1/4
f 150/1/4 146/1/4 151/1/4
f 146/1/4 122/1/4 152/1/4
f 151/1/4 146/1/4 152/1/4
f 153/1/4 154/1/4 155/1/4
f 155/1/4 154/1/4 156/1/4
f 157/1/4 158/1/4 159/1/4
f 159/1/4 158/1/4 160/1/4
f 161/1/4 162/1/4 163/1/4
f 163/1/4 162/1/4 164/1/4
f 165/1/4 166/1/4 167/1/4
f 167/1/4 166/1/4 168/1/4
f 169/1/4 170/1/4 171/1/4
f 171/1/4 170/1/4 172/1/4
f 173/1/4 174/1/4 175/1/4
f 175/1/4 174/1/4 176/1/4
f 177/1/4 178/1/4 179/1/4
f 179/1/4 178/1/4 180/1/4
f 181/1/4 182/1/4 183/1/4
f 183/1/4 182/1/4 184/1/4
f 185/1/4 186/1/4 187/1/4
f 187/1/4 186/1/4 188/1/4
f 189/1/4 190/1/4 191/1/4
f 191/1/4 190/1/4 192/1/4
f 193/1/4 194/1/4 195/1/4
f 195/1/4 194/1/4 196/1/4
f 197/1/4 198/1/4 199/1/4
f 199/1/4 198/1/4 200/1/4
f 201/1/4 202/1/4 203/1/4
f 203/1/4 202/1/4 204/1/4
f 205/1/4 206/1/4 207/1/4
f 207/1/4 206/1/4 208/1/4
f 209/1/4 210/1/4 211/1/4
f 211/1/4 210/1/4 212/1/4
f 213/1/4 214/1/4 215/1/4
f 215/1/4 214/1/4 216/1/4
f 217/1/4 218/1/4 219/1/4
f 219/1/4 218/1/4 220/1/4
f 221/1/4 222/1/4 223/1/4
f 223/1/4 222/1/4 224/1/4
f 225/1/4 226/1/4 227/1/4
f 227/1/4 226/1/4 228/1/4
f 229/1/4 230/1/4 231/1/4
f 231/1/4 230/1/4 232/1/4
f 233/1/4 234/1/4 235/1/4
f 235/1/4 234/1/4 236/1/4
f 237/1/4 238/1/4 239/1/4
f 239/1/4 238/1/4 240/1/4
f 241/1/4 242/1/4 243/1/4
f 243/1/4 242/1/4 244/1/4
f 245/1/4 246/1/4 247/1/4
f 247/1/4 246/1/4 248/1/4
f 249/1/4 250/1/4 251/1/4
f 251/1/4 250/1/4 252/1/4
f 249/1/4 251/1/4 253/1/4
f 249/1/4 253/1/4 255/1/4
f 253/1/4 254/1/4 255/1/4
f 255/1/4 254/1/4 256/1/4
f 259/1/5 258/1/5 257/1/5
f 260/1/5 258/1/5 259/1/5
f 261/1/6 262/1/6 263/1/6
f 263/1/6 262/1/6 264/1/6
f 265/1/6 266/1/6 269/1/6
f 269/1/6 266/1/6 270/1/6
f 267/1/6 268/1/6 271/1/6
f 271/1/6 268/1/6 272/1/6
f 273/1/6 274/1/6 277/1/6
f 277/1/6 274/1/6 278/1/6
f 275/1/6 276/1/6 279/1/6
f 279/1/6 276/1/6 280/1/6
f 281/1/6 282/1/6 285/1/6
f 285/1/6 282/1/6 286/1/6
f 283/1/6 284/1/6 287/1/6
f 287/1/6 284/1/6 288/1/6
f 289/1/6 290/1/6 293/1/6
f 293/1/6 290/1/6 294/1/6
f 291/1/6 292/1/6 295/1/6
f 295/1/6 292/1/6 296/1/6
f 297/1/6 298/1/6 301/1/6
f 301/1/6 298/1/6 302/1/6
f 299/1/6 300/1/6 303/1/6
f 303/1/6 300/1/6 304/1/6
f 305/1/6 306/1/6 309/1/6
f 309/1/6 306/1/6 310/1/6
f 307/1/6 308/1/6 311/1/6
f 311/1/6 308/1/6 312/1/6
f 313/1/6 314/1/6 317/1/6
f 317/1/6 314/1/6 318/1/6
f 315/1/6 316/1/6 319/1/6
f 319/1/6 316/1/6 320/1/6
f 321/1/6 322/1/6 325/1/6
f 325/1/6 322/1/6 326/1/6
f 323/1/6 324/1/6 327/1/6
f 327/1/6 324/1/6 328/1/6
f 329/1/6 330/1/6 333/1/6
f 333/1/6 330/1/6 334/1/6
f 331/1/6 332/1/6 335/1/6
f 335/1/6 332/1/6 336/1/6
f 337/1/6 338/1/6 341/1/6
f 341/1/6 338/1/6 342/1/6
f 339/1/6 340/1/6 343/1/6
f 343/1/6 340/1/6 344/1/6
f 345/1/6 346/1/6 349/1/6
f 349/1/6 346/1/6 350/1/6
f 347/1/6 348/1/6 351/1/6
f 351/1/6 348/1/6 352/1/6
f 353/1/6 354/1/6 357/1/6
f 357/1/6 354/1/6 358/1/6
f 355/1/6 356/1/6 359/1/6
f 359/1/6 356/1/6 360/1/6
f 361/1/6 362/1/6 365/1/6
f 365/1/6 362/1/6 366/1/6
f 363/1/6 364/1/6 367/1/6
f 367/1/6 364/1/6 368/1/6
f 369/1/6 370/1/6 371/1/6
f 371/1/6 370/1/6 372/1/6
