# MagicaVoxel @ Ephtracy

# group
o 

# material
mtllib ModelsFedaHome-2.mtl
usemtl palette

# normals
vn -1 0 0
vn 1 0 0
vn 0 0 1
vn 0 0 -1
vn 0 -1 0
vn 0 1 0

# texcoords
vt 0.0566406 0.5
vt 0.0644531 0.5
vt 0.0957031 0.5
vt 0.119141 0.5
vt 0.146484 0.5
vt 0.208984 0.5
vt 0.220703 0.5
vt 0.310547 0.5
vt 0.373047 0.5
vt 0.556641 0.5
vt 0.560547 0.5
vt 0.583984 0.5
vt 0.591797 0.5
vt 0.623047 0.5
vt 0.642578 0.5
vt 0.677734 0.5
vt 0.716797 0.5
vt 0.771484 0.5
vt 0.837891 0.5
vt 0.884766 0.5
vt 0.931641 0.5
vt 0.994141 0.5

# verts
v -1.8 0 0.7
v -1.8 0 -0.4
v -1.8 3.7 0.7
v -1.8 3.7 -0.4
v 1.4 0.2 0.7
v 1.4 0.2 0.5
v 1.4 0.2 0.4
v 1.4 0.2 -0.3
v 1.4 1.2 0.7
v 1.4 1.2 0.5
v 1.4 1.2 0.4
v 1.4 1.2 -0.3
v 1.4 1.3 0.7
v 1.4 1.3 0.5
v 1.4 1.3 0.4
v 1.4 1.3 -0.3
v 1.4 2.4 0.7
v 1.4 2.4 0.5
v 1.4 2.4 0.4
v 1.4 2.4 -0.3
v 1.4 2.5 0.7
v 1.4 2.5 0.5
v 1.4 2.5 0.4
v 1.4 2.5 -0.3
v 1.4 3.5 0.7
v 1.4 3.5 0.5
v 1.4 3.5 0.4
v 1.4 3.5 -0.3
v -1.4 0.2 0.7
v -1.4 0.2 0.5
v -1.4 0.2 0.4
v -1.4 0.2 -0.3
v -1.4 1.2 0.7
v -1.4 1.2 0.5
v -1.4 1.2 0.4
v -1.4 1.2 -0.3
v -1.4 1.3 0.7
v -1.4 1.3 0.5
v -1.4 1.3 0.4
v -1.4 1.3 -0.3
v -1.4 2.4 0.7
v -1.4 2.4 0.5
v -1.4 2.4 0.4
v -1.4 2.4 -0.3
v -1.4 2.5 0.7
v -1.4 2.5 0.5
v -1.4 2.5 0.4
v -1.4 2.5 -0.3
v -1.4 3.5 0.7
v -1.4 3.5 0.5
v -1.4 3.5 0.4
v -1.4 3.5 -0.3
v 1.8 0 0.7
v 1.8 0 -0.4
v 1.8 3.7 0.7
v 1.8 3.7 -0.4
v -1.8 0 0.7
v -1.8 3.7 0.7
v -1.4 0.2 0.7
v -1.4 1.2 0.7
v -1.4 1.3 0.7
v -1.4 2.4 0.7
v -1.4 2.5 0.7
v -1.4 3.5 0.7
v 1.4 0.2 0.7
v 1.4 1.2 0.7
v 1.4 1.3 0.7
v 1.4 2.4 0.7
v 1.4 2.5 0.7
v 1.4 3.5 0.7
v 1.8 0 0.7
v 1.8 3.7 0.7
v -1.4 0.2 0.5
v -1.4 1.2 0.5
v -1.4 1.3 0.5
v -1.4 2.4 0.5
v -1.4 2.5 0.5
v -1.4 3.5 0.5
v -1.3 1.3 0.5
v -1.3 2.4 0.5
v -1.2 2.5 0.5
v -1.2 3.5 0.5
v -1.1 0.2 0.5
v -1.1 1.2 0.5
v -1.1 2.5 0.5
v -1.1 3.5 0.5
v -1 0.2 0.5
v -1 1.2 0.5
v -1 1.3 0.5
v -1 2.4 0.5
v -0.9 1.3 0.5
v -0.9 2.4 0.5
v -0.9 2.5 0.5
v -0.9 3.5 0.5
v -0.8 2.5 0.5
v -0.8 3.5 0.5
v -0.7 0.2 0.5
v -0.7 1.2 0.5
v -0.6 0.2 0.5
v -0.6 1.2 0.5
v -0.6 1.3 0.5
v -0.6 2.4 0.5
v -0.6 2.5 0.5
v -0.6 3.5 0.5
v -0.5 1.3 0.5
v -0.5 2.4 0.5
v -0.5 2.5 0.5
v -0.5 3.5 0.5
v -0.3 0.2 0.5
v -0.3 1.2 0.5
v -0.3 2.5 0.5
v -0.3 3.5 0.5
v -0.2 0.2 0.5
v -0.2 1.2 0.5
v -0.2 1.3 0.5
v -0.2 2.4 0.5
v -0.2 2.5 0.5
v -0.2 3.5 0.5
v -0.0999999 1.3 0.5
v -0.0999999 2.4 0.5
v 0 2.5 0.5
v 0 3.5 0.5
v 0.1 0.2 0.5
v 0.1 1.2 0.5
v 0.1 2.5 0.5
v 0.1 3.5 0.5
v 0.2 0.2 0.5
v 0.2 1.2 0.5
v 0.2 1.3 0.5
v 0.2 2.4 0.5
v 0.3 1.3 0.5
v 0.3 2.4 0.5
v 0.3 2.5 0.5
v 0.3 3.5 0.5
v 0.4 2.5 0.5
v 0.4 3.5 0.5
v 0.5 0.2 0.5
v 0.5 1.2 0.5
v 0.6 0.2 0.5
v 0.6 1.2 0.5
v 0.6 1.3 0.5
v 0.6 2.4 0.5
v 0.6 2.5 0.5
v 0.6 3.5 0.5
v 0.7 1.3 0.5
v 0.7 2.4 0.5
v 0.7 2.5 0.5
v 0.7 3.5 0.5
v 0.9 0.2 0.5
v 0.9 1.2 0.5
v 0.9 2.5 0.5
v 0.9 3.5 0.5
v 1 0.2 0.5
v 1 1.2 0.5
v 1 1.3 0.5
v 1 2.4 0.5
v 1 2.5 0.5
v 1 3.5 0.5
v 1.1 1.3 0.5
v 1.1 2.4 0.5
v 1.3 0.2 0.5
v 1.3 1.2 0.5
v 1.3 2.5 0.5
v 1.3 3.5 0.5
v 1.4 0.2 0.5
v 1.4 1.2 0.5
v 1.4 1.3 0.5
v 1.4 2.4 0.5
v 1.4 2.5 0.5
v 1.4 3.5 0.5
v -1.4 0.2 -0.3
v -1.4 1.2 -0.3
v -1.4 1.3 -0.3
v -1.4 2.4 -0.3
v -1.4 2.5 -0.3
v -1.4 3.5 -0.3
v 1.4 0.2 -0.3
v 1.4 1.2 -0.3
v 1.4 1.3 -0.3
v 1.4 2.4 -0.3
v 1.4 2.5 -0.3
v 1.4 3.5 -0.3
v -1.4 0.2 0.4
v -1.4 1.2 0.4
v -1.4 1.3 0.4
v -1.4 2.4 0.4
v -1.4 2.5 0.4
v -1.4 3.5 0.4
v -1.3 1.3 0.4
v -1.3 2.4 0.4
v -1.2 2.5 0.4
v -1.2 3.5 0.4
v -1.1 0.2 0.4
v -1.1 1.2 0.4
v -1.1 2.5 0.4
v -1.1 3.5 0.4
v -1 0.2 0.4
v -1 1.2 0.4
v -1 1.3 0.4
v -1 2.4 0.4
v -0.9 1.3 0.4
v -0.9 2.4 0.4
v -0.9 2.5 0.4
v -0.9 3.5 0.4
v -0.8 2.5 0.4
v -0.8 3.5 0.4
v -0.7 0.2 0.4
v -0.7 1.2 0.4
v -0.6 0.2 0.4
v -0.6 1.2 0.4
v -0.6 1.3 0.4
v -0.6 2.4 0.4
v -0.6 2.5 0.4
v -0.6 3.5 0.4
v -0.5 1.3 0.4
v -0.5 2.4 0.4
v -0.5 2.5 0.4
v -0.5 3.5 0.4
v -0.3 0.2 0.4
v -0.3 1.2 0.4
v -0.3 2.5 0.4
v -0.3 3.5 0.4
v -0.2 0.2 0.4
v -0.2 1.2 0.4
v -0.2 1.3 0.4
v -0.2 2.4 0.4
v -0.2 2.5 0.4
v -0.2 3.5 0.4
v -0.0999999 1.3 0.4
v -0.0999999 2.4 0.4
v 0 2.5 0.4
v 0 3.5 0.4
v 0.1 0.2 0.4
v 0.1 1.2 0.4
v 0.1 2.5 0.4
v 0.1 3.5 0.4
v 0.2 0.2 0.4
v 0.2 1.2 0.4
v 0.2 1.3 0.4
v 0.2 2.4 0.4
v 0.3 1.3 0.4
v 0.3 2.4 0.4
v 0.3 2.5 0.4
v 0.3 3.5 0.4
v 0.4 2.5 0.4
v 0.4 3.5 0.4
v 0.5 0.2 0.4
v 0.5 1.2 0.4
v 0.6 0.2 0.4
v 0.6 1.2 0.4
v 0.6 1.3 0.4
v 0.6 2.4 0.4
v 0.6 2.5 0.4
v 0.6 3.5 0.4
v 0.7 1.3 0.4
v 0.7 2.4 0.4
v 0.7 2.5 0.4
v 0.7 3.5 0.4
v 0.9 0.2 0.4
v 0.9 1.2 0.4
v 0.9 2.5 0.4
v 0.9 3.5 0.4
v 1 0.2 0.4
v 1 1.2 0.4
v 1 1.3 0.4
v 1 2.4 0.4
v 1 2.5 0.4
v 1 3.5 0.4
v 1.1 1.3 0.4
v 1.1 2.4 0.4
v 1.3 0.2 0.4
v 1.3 1.2 0.4
v 1.3 2.5 0.4
v 1.3 3.5 0.4
v 1.4 0.2 0.4
v 1.4 1.2 0.4
v 1.4 1.3 0.4
v 1.4 2.4 0.4
v 1.4 2.5 0.4
v 1.4 3.5 0.4
v -1.8 0 -0.4
v -1.8 3.7 -0.4
v 1.8 0 -0.4
v 1.8 3.7 -0.4
v -1.8 0 0.7
v 1.8 0 0.7
v -1.8 0 -0.4
v 1.8 0 -0.4
v -1.4 1.2 0.7
v 1.4 1.2 0.7
v -1.4 1.2 0.5
v -1.1 1.2 0.5
v -1 1.2 0.5
v -0.7 1.2 0.5
v -0.6 1.2 0.5
v -0.3 1.2 0.5
v -0.2 1.2 0.5
v 0.1 1.2 0.5
v 0.2 1.2 0.5
v 0.5 1.2 0.5
v 0.6 1.2 0.5
v 0.9 1.2 0.5
v 1 1.2 0.5
v 1.3 1.2 0.5
v 1.4 1.2 0.5
v -1.4 1.2 0.4
v -1.1 1.2 0.4
v -1 1.2 0.4
v -0.7 1.2 0.4
v -0.6 1.2 0.4
v -0.3 1.2 0.4
v -0.2 1.2 0.4
v 0.1 1.2 0.4
v 0.2 1.2 0.4
v 0.5 1.2 0.4
v 0.6 1.2 0.4
v 0.9 1.2 0.4
v 1 1.2 0.4
v 1.3 1.2 0.4
v 1.4 1.2 0.4
v -1.4 1.2 -0.3
v 1.4 1.2 -0.3
v -1.4 2.4 0.7
v 1.4 2.4 0.7
v -1.4 2.4 0.5
v -1.3 2.4 0.5
v -1 2.4 0.5
v -0.9 2.4 0.5
v -0.6 2.4 0.5
v -0.5 2.4 0.5
v -0.2 2.4 0.5
v -0.0999999 2.4 0.5
v 0.2 2.4 0.5
v 0.3 2.4 0.5
v 0.6 2.4 0.5
v 0.7 2.4 0.5
v 1 2.4 0.5
v 1.1 2.4 0.5
v 1.4 2.4 0.5
v -1.4 2.4 0.4
v -1.3 2.4 0.4
v -1 2.4 0.4
v -0.9 2.4 0.4
v -0.6 2.4 0.4
v -0.5 2.4 0.4
v -0.2 2.4 0.4
v -0.0999999 2.4 0.4
v 0.2 2.4 0.4
v 0.3 2.4 0.4
v 0.6 2.4 0.4
v 0.7 2.4 0.4
v 1 2.4 0.4
v 1.1 2.4 0.4
v 1.4 2.4 0.4
v -1.4 2.4 -0.3
v 1.4 2.4 -0.3
v -1.4 3.5 0.7
v 1.4 3.5 0.7
v -1.4 3.5 0.5
v -1.2 3.5 0.5
v -1.1 3.5 0.5
v -0.9 3.5 0.5
v -0.8 3.5 0.5
v -0.6 3.5 0.5
v -0.5 3.5 0.5
v -0.3 3.5 0.5
v -0.2 3.5 0.5
v 0 3.5 0.5
v 0.1 3.5 0.5
v 0.3 3.5 0.5
v 0.4 3.5 0.5
v 0.6 3.5 0.5
v 0.7 3.5 0.5
v 0.9 3.5 0.5
v 1 3.5 0.5
v 1.3 3.5 0.5
v 1.4 3.5 0.5
v -1.4 3.5 0.4
v -1.2 3.5 0.4
v -1.1 3.5 0.4
v -0.9 3.5 0.4
v -0.8 3.5 0.4
v -0.6 3.5 0.4
v -0.5 3.5 0.4
v -0.3 3.5 0.4
v -0.2 3.5 0.4
v 0 3.5 0.4
v 0.1 3.5 0.4
v 0.3 3.5 0.4
v 0.4 3.5 0.4
v 0.6 3.5 0.4
v 0.7 3.5 0.4
v 0.9 3.5 0.4
v 1 3.5 0.4
v 1.3 3.5 0.4
v 1.4 3.5 0.4
v -1.4 3.5 -0.3
v 1.4 3.5 -0.3
v -1.4 0.2 0.7
v 1.4 0.2 0.7
v -1.4 0.2 0.5
v -1.1 0.2 0.5
v -1 0.2 0.5
v -0.7 0.2 0.5
v -0.6 0.2 0.5
v -0.3 0.2 0.5
v -0.2 0.2 0.5
v 0.1 0.2 0.5
v 0.2 0.2 0.5
v 0.5 0.2 0.5
v 0.6 0.2 0.5
v 0.9 0.2 0.5
v 1 0.2 0.5
v 1.3 0.2 0.5
v 1.4 0.2 0.5
v -1.4 0.2 0.4
v -1.1 0.2 0.4
v -1 0.2 0.4
v -0.7 0.2 0.4
v -0.6 0.2 0.4
v -0.3 0.2 0.4
v -0.2 0.2 0.4
v 0.1 0.2 0.4
v 0.2 0.2 0.4
v 0.5 0.2 0.4
v 0.6 0.2 0.4
v 0.9 0.2 0.4
v 1 0.2 0.4
v 1.3 0.2 0.4
v 1.4 0.2 0.4
v -1.4 0.2 -0.3
v 1.4 0.2 -0.3
v -1.4 1.3 0.7
v 1.4 1.3 0.7
v -1.4 1.3 0.5
v -1.3 1.3 0.5
v -1 1.3 0.5
v -0.9 1.3 0.5
v -0.6 1.3 0.5
v -0.5 1.3 0.5
v -0.2 1.3 0.5
v -0.0999999 1.3 0.5
v 0.2 1.3 0.5
v 0.3 1.3 0.5
v 0.6 1.3 0.5
v 0.7 1.3 0.5
v 1 1.3 0.5
v 1.1 1.3 0.5
v 1.4 1.3 0.5
v -1.4 1.3 0.4
v -1.3 1.3 0.4
v -1 1.3 0.4
v -0.9 1.3 0.4
v -0.6 1.3 0.4
v -0.5 1.3 0.4
v -0.2 1.3 0.4
v -0.0999999 1.3 0.4
v 0.2 1.3 0.4
v 0.3 1.3 0.4
v 0.6 1.3 0.4
v 0.7 1.3 0.4
v 1 1.3 0.4
v 1.1 1.3 0.4
v 1.4 1.3 0.4
v -1.4 1.3 -0.3
v 1.4 1.3 -0.3
v -1.4 2.5 0.7
v 1.4 2.5 0.7
v -1.4 2.5 0.5
v -1.2 2.5 0.5
v -1.1 2.5 0.5
v -0.9 2.5 0.5
v -0.8 2.5 0.5
v -0.6 2.5 0.5
v -0.5 2.5 0.5
v -0.3 2.5 0.5
v -0.2 2.5 0.5
v 0 2.5 0.5
v 0.1 2.5 0.5
v 0.3 2.5 0.5
v 0.4 2.5 0.5
v 0.6 2.5 0.5
v 0.7 2.5 0.5
v 0.9 2.5 0.5
v 1 2.5 0.5
v 1.3 2.5 0.5
v 1.4 2.5 0.5
v -1.4 2.5 0.4
v -1.2 2.5 0.4
v -1.1 2.5 0.4
v -0.9 2.5 0.4
v -0.8 2.5 0.4
v -0.6 2.5 0.4
v -0.5 2.5 0.4
v -0.3 2.5 0.4
v -0.2 2.5 0.4
v 0 2.5 0.4
v 0.1 2.5 0.4
v 0.3 2.5 0.4
v 0.4 2.5 0.4
v 0.6 2.5 0.4
v 0.7 2.5 0.4
v 0.9 2.5 0.4
v 1 2.5 0.4
v 1.3 2.5 0.4
v 1.4 2.5 0.4
v -1.4 2.5 -0.3
v 1.4 2.5 -0.3
v -1.8 3.7 0.7
v 1.8 3.7 0.7
v -1.8 3.7 -0.4
v 1.8 3.7 -0.4

# faces
f 3/8/1 2/8/1 1/8/1
f 4/8/1 2/8/1 3/8/1
f 9/8/1 6/8/1 5/8/1
f 10/8/1 6/8/1 9/8/1
f 11/8/1 8/8/1 7/8/1
f 12/8/1 8/8/1 11/8/1
f 17/8/1 14/8/1 13/8/1
f 18/8/1 14/8/1 17/8/1
f 19/8/1 16/8/1 15/8/1
f 20/8/1 16/8/1 19/8/1
f 25/8/1 22/8/1 21/8/1
f 26/8/1 22/8/1 25/8/1
f 27/8/1 24/8/1 23/8/1
f 28/8/1 24/8/1 27/8/1
f 29/8/2 30/8/2 33/8/2
f 33/8/2 30/8/2 34/8/2
f 31/8/2 32/8/2 35/8/2
f 35/8/2 32/8/2 36/8/2
f 37/8/2 38/8/2 41/8/2
f 41/8/2 38/8/2 42/8/2
f 39/8/2 40/8/2 43/8/2
f 43/8/2 40/8/2 44/8/2
f 45/8/2 46/8/2 49/8/2
f 49/8/2 46/8/2 50/8/2
f 47/8/2 48/8/2 51/8/2
f 51/8/2 48/8/2 52/8/2
f 53/8/2 54/8/2 55/8/2
f 55/8/2 54/8/2 56/8/2
f 59/8/3 58/8/3 57/8/3
f 60/8/3 58/8/3 59/8/3
f 61/8/3 58/8/3 60/8/3
f 62/8/3 58/8/3 61/8/3
f 63/8/3 58/8/3 62/8/3
f 64/8/3 58/8/3 63/8/3
f 65/8/3 59/8/3 57/8/3
f 66/8/3 61/8/3 60/8/3
f 67/8/3 61/8/3 66/8/3
f 68/8/3 63/8/3 62/8/3
f 69/8/3 63/8/3 68/8/3
f 70/8/3 58/8/3 64/8/3
f 71/8/3 69/8/3 68/8/3
f 71/8/3 70/8/3 69/8/3
f 71/8/3 67/8/3 66/8/3
f 71/8/3 65/8/3 57/8/3
f 71/8/3 68/8/3 67/8/3
f 71/8/3 66/8/3 65/8/3
f 72/8/3 58/8/3 70/8/3
f 72/8/3 70/8/3 71/8/3
f 79/22/3 76/22/3 75/22/3
f 80/22/3 76/22/3 79/22/3
f 81/3/3 78/3/3 77/3/3
f 82/3/3 78/3/3 81/3/3
f 83/7/3 74/7/3 73/7/3
f 84/7/3 74/7/3 83/7/3
f 85/22/3 82/22/3 81/22/3
f 86/22/3 82/22/3 85/22/3
f 87/22/3 84/22/3 83/22/3
f 88/22/3 84/22/3 87/22/3
f 89/2/3 80/2/3 79/2/3
f 90/2/3 80/2/3 89/2/3
f 91/22/3 90/22/3 89/22/3
f 92/22/3 90/22/3 91/22/3
f 93/14/3 86/14/3 85/14/3
f 94/14/3 86/14/3 93/14/3
f 95/22/3 94/22/3 93/22/3
f 96/22/3 94/22/3 95/22/3
f 97/10/3 88/10/3 87/10/3
f 98/10/3 88/10/3 97/10/3
f 99/22/3 98/22/3 97/22/3
f 100/22/3 98/22/3 99/22/3
f 101/18/3 92/18/3 91/18/3
f 102/18/3 92/18/3 101/18/3
f 103/17/3 96/17/3 95/17/3
f 104/17/3 96/17/3 103/17/3
f 105/22/3 102/22/3 101/22/3
f 106/22/3 102/22/3 105/22/3
f 107/22/3 104/22/3 103/22/3
f 108/22/3 104/22/3 107/22/3
f 109/1/3 100/1/3 99/1/3
f 110/1/3 100/1/3 109/1/3
f 111/11/3 108/11/3 107/11/3
f 112/11/3 108/11/3 111/11/3
f 113/22/3 110/22/3 109/22/3
f 114/22/3 110/22/3 113/22/3
f 115/15/3 106/15/3 105/15/3
f 116/15/3 106/15/3 115/15/3
f 117/22/3 112/22/3 111/22/3
f 118/22/3 112/22/3 117/22/3
f 119/22/3 116/22/3 115/22/3
f 120/22/3 116/22/3 119/22/3
f 121/5/3 118/5/3 117/5/3
f 122/5/3 118/5/3 121/5/3
f 123/20/3 114/20/3 113/20/3
f 124/20/3 114/20/3 123/20/3
f 125/22/3 122/22/3 121/22/3
f 126/22/3 122/22/3 125/22/3
f 127/22/3 124/22/3 123/22/3
f 128/22/3 124/22/3 127/22/3
f 129/9/3 120/9/3 119/9/3
f 130/9/3 120/9/3 129/9/3
f 131/22/3 130/22/3 129/22/3
f 132/22/3 130/22/3 131/22/3
f 133/12/3 126/12/3 125/12/3
f 134/12/3 126/12/3 133/12/3
f 135/22/3 134/22/3 133/22/3
f 136/22/3 134/22/3 135/22/3
f 137/12/3 128/12/3 127/12/3
f 138/12/3 128/12/3 137/12/3
f 139/22/3 138/22/3 137/22/3
f 140/22/3 138/22/3 139/22/3
f 141/1/3 132/1/3 131/1/3
f 142/1/3 132/1/3 141/1/3
f 143/16/3 136/16/3 135/16/3
f 144/16/3 136/16/3 143/16/3
f 145/22/3 142/22/3 141/22/3
f 146/22/3 142/22/3 145/22/3
f 147/22/3 144/22/3 143/22/3
f 148/22/3 144/22/3 147/22/3
f 149/6/3 140/6/3 139/6/3
f 150/6/3 140/6/3 149/6/3
f 151/13/3 148/13/3 147/13/3
f 152/13/3 148/13/3 151/13/3
f 153/22/3 150/22/3 149/22/3
f 154/22/3 150/22/3 153/22/3
f 155/4/3 146/4/3 145/4/3
f 156/4/3 146/4/3 155/4/3
f 157/22/3 152/22/3 151/22/3
f 158/22/3 152/22/3 157/22/3
f 159/22/3 156/22/3 155/22/3
f 160/22/3 156/22/3 159/22/3
f 161/17/3 154/17/3 153/17/3
f 162/17/3 154/17/3 161/17/3
f 163/21/3 158/21/3 157/21/3
f 164/21/3 158/21/3 163/21/3
f 165/22/3 162/22/3 161/22/3
f 166/22/3 162/22/3 165/22/3
f 167/19/3 160/19/3 159/19/3
f 168/19/3 160/19/3 167/19/3
f 169/22/3 164/22/3 163/22/3
f 170/22/3 164/22/3 169/22/3
f 177/8/3 172/8/3 171/8/3
f 178/8/3 172/8/3 177/8/3
f 179/8/3 174/8/3 173/8/3
f 180/8/3 174/8/3 179/8/3
f 181/8/3 176/8/3 175/8/3
f 182/8/3 176/8/3 181/8/3
f 185/22/4 186/22/4 189/22/4
f 189/22/4 186/22/4 190/22/4
f 187/3/4 188/3/4 191/3/4
f 191/3/4 188/3/4 192/3/4
f 183/7/4 184/7/4 193/7/4
f 193/7/4 184/7/4 194/7/4
f 191/22/4 192/22/4 195/22/4
f 195/22/4 192/22/4 196/22/4
f 193/22/4 194/22/4 197/22/4
f 197/22/4 194/22/4 198/22/4
f 189/2/4 190/2/4 199/2/4
f 199/2/4 190/2/4 200/2/4
f 199/22/4 200/22/4 201/22/4
f 201/22/4 200/22/4 202/22/4
f 195/14/4 196/14/4 203/14/4
f 203/14/4 196/14/4 204/14/4
f 203/22/4 204/22/4 205/22/4
f 205/22/4 204/22/4 206/22/4
f 197/10/4 198/10/4 207/10/4
f 207/10/4 198/10/4 208/10/4
f 207/22/4 208/22/4 209/22/4
f 209/22/4 208/22/4 210/22/4
f 201/18/4 202/18/4 211/18/4
f 211/18/4 202/18/4 212/18/4
f 205/17/4 206/17/4 213/17/4
f 213/17/4 206/17/4 214/17/4
f 211/22/4 212/22/4 215/22/4
f 215/22/4 212/22/4 216/22/4
f 213/22/4 214/22/4 217/22/4
f 217/22/4 214/22/4 218/22/4
f 209/1/4 210/1/4 219/1/4
f 219/1/4 210/1/4 220/1/4
f 217/11/4 218/11/4 221/11/4
f 221/11/4 218/11/4 222/11/4
f 219/22/4 220/22/4 223/22/4
f 223/22/4 220/22/4 224/22/4
f 215/15/4 216/15/4 225/15/4
f 225/15/4 216/15/4 226/15/4
f 221/22/4 222/22/4 227/22/4
f 227/22/4 222/22/4 228/22/4
f 225/22/4 226/22/4 229/22/4
f 229/22/4 226/22/4 230/22/4
f 227/5/4 228/5/4 231/5/4
f 231/5/4 228/5/4 232/5/4
f 223/20/4 224/20/4 233/20/4
f 233/20/4 224/20/4 234/20/4
f 231/22/4 232/22/4 235/22/4
f 235/22/4 232/22/4 236/22/4
f 233/22/4 234/22/4 237/22/4
f 237/22/4 234/22/4 238/22/4
f 229/9/4 230/9/4 239/9/4
f 239/9/4 230/9/4 240/9/4
f 239/22/4 240/22/4 241/22/4
f 241/22/4 240/22/4 242/22/4
f 235/12/4 236/12/4 243/12/4
f 243/12/4 236/12/4 244/12/4
f 243/22/4 244/22/4 245/22/4
f 245/22/4 244/22/4 246/22/4
f 237/12/4 238/12/4 247/12/4
f 247/12/4 238/12/4 248/12/4
f 247/22/4 248/22/4 249/22/4
f 249/22/4 248/22/4 250/22/4
f 241/1/4 242/1/4 251/1/4
f 251/1/4 242/1/4 252/1/4
f 245/16/4 246/16/4 253/16/4
f 253/16/4 246/16/4 254/16/4
f 251/22/4 252/22/4 255/22/4
f 255/22/4 252/22/4 256/22/4
f 253/22/4 254/22/4 257/22/4
f 257/22/4 254/22/4 258/22/4
f 249/6/4 250/6/4 259/6/4
f 259/6/4 250/6/4 260/6/4
f 257/13/4 258/13/4 261/13/4
f 261/13/4 258/13/4 262/13/4
f 259/22/4 260/22/4 263/22/4
f 263/22/4 260/22/4 264/22/4
f 255/4/4 256/4/4 265/4/4
f 265/4/4 256/4/4 266/4/4
f 261/22/4 262/22/4 267/22/4
f 267/22/4 262/22/4 268/22/4
f 265/22/4 266/22/4 269/22/4
f 269/22/4 266/22/4 270/22/4
f 263/17/4 264/17/4 271/17/4
f 271/17/4 264/17/4 272/17/4
f 267/21/4 268/21/4 273/21/4
f 273/21/4 268/21/4 274/21/4
f 271/22/4 272/22/4 275/22/4
f 275/22/4 272/22/4 276/22/4
f 269/19/4 270/19/4 277/19/4
f 277/19/4 270/19/4 278/19/4
f 273/22/4 274/22/4 279/22/4
f 279/22/4 274/22/4 280/22/4
f 281/8/4 282/8/4 283/8/4
f 283/8/4 282/8/4 284/8/4
f 287/8/5 286/8/5 285/8/5
f 288/8/5 286/8/5 287/8/5
f 291/8/5 290/8/5 289/8/5
f 292/8/5 290/8/5 291/8/5
f 293/8/5 290/8/5 292/8/5
f 294/8/5 290/8/5 293/8/5
f 295/8/5 290/8/5 294/8/5
f 296/8/5 290/8/5 295/8/5
f 297/8/5 290/8/5 296/8/5
f 298/8/5 290/8/5 297/8/5
f 299/8/5 290/8/5 298/8/5
f 300/8/5 290/8/5 299/8/5
f 301/8/5 290/8/5 300/8/5
f 302/8/5 290/8/5 301/8/5
f 303/8/5 290/8/5 302/8/5
f 304/8/5 290/8/5 303/8/5
f 305/8/5 290/8/5 304/8/5
f 321/8/5 307/8/5 306/8/5
f 321/8/5 320/8/5 319/8/5
f 321/8/5 319/8/5 318/8/5
f 321/8/5 318/8/5 317/8/5
f 321/8/5 317/8/5 316/8/5
f 321/8/5 316/8/5 315/8/5
f 321/8/5 315/8/5 314/8/5
f 321/8/5 314/8/5 313/8/5
f 321/8/5 313/8/5 312/8/5
f 321/8/5 312/8/5 311/8/5
f 321/8/5 311/8/5 310/8/5
f 321/8/5 310/8/5 309/8/5
f 321/8/5 309/8/5 308/8/5
f 321/8/5 308/8/5 307/8/5
f 322/8/5 320/8/5 321/8/5
f 325/8/5 324/8/5 323/8/5
f 326/8/5 324/8/5 325/8/5
f 327/8/5 324/8/5 326/8/5
f 328/8/5 324/8/5 327/8/5
f 329/8/5 324/8/5 328/8/5
f 330/8/5 324/8/5 329/8/5
f 331/8/5 324/8/5 330/8/5
f 332/8/5 324/8/5 331/8/5
f 333/8/5 324/8/5 332/8/5
f 334/8/5 324/8/5 333/8/5
f 335/8/5 324/8/5 334/8/5
f 336/8/5 324/8/5 335/8/5
f 337/8/5 324/8/5 336/8/5
f 338/8/5 324/8/5 337/8/5
f 339/8/5 324/8/5 338/8/5
f 355/8/5 341/8/5 340/8/5
f 355/8/5 354/8/5 353/8/5
f 355/8/5 353/8/5 352/8/5
f 355/8/5 352/8/5 351/8/5
f 355/8/5 351/8/5 350/8/5
f 355/8/5 350/8/5 349/8/5
f 355/8/5 349/8/5 348/8/5
f 355/8/5 348/8/5 347/8/5
f 355/8/5 347/8/5 346/8/5
f 355/8/5 346/8/5 345/8/5
f 355/8/5 345/8/5 344/8/5
f 355/8/5 344/8/5 343/8/5
f 355/8/5 343/8/5 342/8/5
f 355/8/5 342/8/5 341/8/5
f 356/8/5 354/8/5 355/8/5
f 359/8/5 358/8/5 357/8/5
f 360/8/5 358/8/5 359/8/5
f 361/8/5 358/8/5 360/8/5
f 362/8/5 358/8/5 361/8/5
f 363/8/5 358/8/5 362/8/5
f 364/8/5 358/8/5 363/8/5
f 365/8/5 358/8/5 364/8/5
f 366/8/5 358/8/5 365/8/5
f 367/8/5 358/8/5 366/8/5
f 368/8/5 358/8/5 367/8/5
f 369/8/5 358/8/5 368/8/5
f 370/8/5 358/8/5 369/8/5
f 371/8/5 358/8/5 370/8/5
f 372/8/5 358/8/5 371/8/5
f 373/8/5 358/8/5 372/8/5
f 374/8/5 358/8/5 373/8/5
f 375/8/5 358/8/5 374/8/5
f 376/8/5 358/8/5 375/8/5
f 377/8/5 358/8/5 376/8/5
f 397/8/5 379/8/5 378/8/5
f 397/8/5 396/8/5 395/8/5
f 397/8/5 395/8/5 394/8/5
f 397/8/5 394/8/5 393/8/5
f 397/8/5 393/8/5 392/8/5
f 397/8/5 392/8/5 391/8/5
f 397/8/5 391/8/5 390/8/5
f 397/8/5 390/8/5 389/8/5
f 397/8/5 389/8/5 388/8/5
f 397/8/5 388/8/5 387/8/5
f 397/8/5 387/8/5 386/8/5
f 397/8/5 386/8/5 385/8/5
f 397/8/5 385/8/5 384/8/5
f 397/8/5 384/8/5 383/8/5
f 397/8/5 383/8/5 382/8/5
f 397/8/5 382/8/5 381/8/5
f 397/8/5 381/8/5 380/8/5
f 397/8/5 380/8/5 379/8/5
f 398/8/5 396/8/5 397/8/5
f 399/8/6 400/8/6 401/8/6
f 401/8/6 400/8/6 402/8/6
f 402/8/6 400/8/6 403/8/6
f 403/8/6 400/8/6 404/8/6
f 404/8/6 400/8/6 405/8/6
f 405/8/6 400/8/6 406/8/6
f 406/8/6 400/8/6 407/8/6
f 407/8/6 400/8/6 408/8/6
f 408/8/6 400/8/6 409/8/6
f 409/8/6 400/8/6 410/8/6
f 410/8/6 400/8/6 411/8/6
f 411/8/6 400/8/6 412/8/6
f 412/8/6 400/8/6 413/8/6
f 413/8/6 400/8/6 414/8/6
f 414/8/6 400/8/6 415/8/6
f 416/8/6 417/8/6 431/8/6
f 429/8/6 430/8/6 431/8/6
f 428/8/6 429/8/6 431/8/6
f 427/8/6 428/8/6 431/8/6
f 426/8/6 427/8/6 431/8/6
f 425/8/6 426/8/6 431/8/6
f 424/8/6 425/8/6 431/8/6
f 423/8/6 424/8/6 431/8/6
f 422/8/6 423/8/6 431/8/6
f 421/8/6 422/8/6 431/8/6
f 420/8/6 421/8/6 431/8/6
f 419/8/6 420/8/6 431/8/6
f 418/8/6 419/8/6 431/8/6
f 417/8/6 418/8/6 431/8/6
f 431/8/6 430/8/6 432/8/6
f 433/8/6 434/8/6 435/8/6
f 435/8/6 434/8/6 436/8/6
f 436/8/6 434/8/6 437/8/6
f 437/8/6 434/8/6 438/8/6
f 438/8/6 434/8/6 439/8/6
f 439/8/6 434/8/6 440/8/6
f 440/8/6 434/8/6 441/8/6
f 441/8/6 434/8/6 442/8/6
f 442/8/6 434/8/6 443/8/6
f 443/8/6 434/8/6 444/8/6
f 444/8/6 434/8/6 445/8/6
f 445/8/6 434/8/6 446/8/6
f 446/8/6 434/8/6 447/8/6
f 447/8/6 434/8/6 448/8/6
f 448/8/6 434/8/6 449/8/6
f 450/8/6 451/8/6 465/8/6
f 463/8/6 464/8/6 465/8/6
f 462/8/6 463/8/6 465/8/6
f 461/8/6 462/8/6 465/8/6
f 460/8/6 461/8/6 465/8/6
f 459/8/6 460/8/6 465/8/6
f 458/8/6 459/8/6 465/8/6
f 457/8/6 458/8/6 465/8/6
f 456/8/6 457/8/6 465/8/6
f 455/8/6 456/8/6 465/8/6
f 454/8/6 455/8/6 465/8/6
f 453/8/6 454/8/6 465/8/6
f 452/8/6 453/8/6 465/8/6
f 451/8/6 452/8/6 465/8/6
f 465/8/6 464/8/6 466/8/6
f 467/8/6 468/8/6 469/8/6
f 469/8/6 468/8/6 470/8/6
f 470/8/6 468/8/6 471/8/6
f 471/8/6 468/8/6 472/8/6
f 472/8/6 468/8/6 473/8/6
f 473/8/6 468/8/6 474/8/6
f 474/8/6 468/8/6 475/8/6
f 475/8/6 468/8/6 476/8/6
f 476/8/6 468/8/6 477/8/6
f 477/8/6 468/8/6 478/8/6
f 478/8/6 468/8/6 479/8/6
f 479/8/6 468/8/6 480/8/6
f 480/8/6 468/8/6 481/8/6
f 481/8/6 468/8/6 482/8/6
f 482/8/6 468/8/6 483/8/6
f 483/8/6 468/8/6 484/8/6
f 484/8/6 468/8/6 485/8/6
f 485/8/6 468/8/6 486/8/6
f 486/8/6 468/8/6 487/8/6
f 488/8/6 489/8/6 507/8/6
f 505/8/6 506/8/6 507/8/6
f 504/8/6 505/8/6 507/8/6
f 503/8/6 504/8/6 507/8/6
f 502/8/6 503/8/6 507/8/6
f 501/8/6 502/8/6 507/8/6
f 500/8/6 501/8/6 507/8/6
f 499/8/6 500/8/6 507/8/6
f 498/8/6 499/8/6 507/8/6
f 497/8/6 498/8/6 507/8/6
f 496/8/6 497/8/6 507/8/6
f 495/8/6 496/8/6 507/8/6
f 494/8/6 495/8/6 507/8/6
f 493/8/6 494/8/6 507/8/6
f 492/8/6 493/8/6 507/8/6
f 491/8/6 492/8/6 507/8/6
f 490/8/6 491/8/6 507/8/6
f 489/8/6 490/8/6 507/8/6
f 507/8/6 506/8/6 508/8/6
f 509/8/6 510/8/6 511/8/6
f 511/8/6 510/8/6 512/8/6
