# MagicaVoxel @ Ephtracy

# group
o 

# material
mtllib Chicken-1.mtl
usemtl palette

# normals
vn -1 0 0
vn 1 0 0
vn 0 0 1
vn 0 0 -1
vn 0 -1 0
vn 0 1 0

# texcoords
vt 0.0566406 0.5
vt 0.0800781 0.5
vt 0.0839844 0.5
vt 0.958984 0.5
vt 0.990234 0.5
vt 0.994141 0.5

# verts
v -32.7 0 1.1
v -32.7 0 0.8
v -32.7 0 -0.8
v -32.7 0 -1.1
v -32.7 0.1 1.1
v -32.7 0.1 0.8
v -32.7 0.1 -0.8
v -32.7 0.1 -1.1
v -32.7 0.7 0.8
v -32.7 0.7 -0.8
v -32.7 1.4 1.1
v -32.7 1.4 -1.1
v -32.6 0 1.2
v -32.6 0 1.1
v -32.6 0 0.8
v -32.6 0 0.7
v -32.6 0 -0.7
v -32.6 0 -0.8
v -32.6 0 -1.1
v -32.6 0 -1.2
v -32.6 0.1 1.2
v -32.6 0.1 1.1
v -32.6 0.1 0.8
v -32.6 0.1 0.7
v -32.6 0.1 -0.7
v -32.6 0.1 -0.8
v -32.6 0.1 -1.1
v -32.6 0.1 -1.2
v -32.6 0.7 0.8
v -32.6 0.7 0.7
v -32.6 0.7 -0.7
v -32.6 0.7 -0.8
v -32.6 1.4 1.2
v -32.6 1.4 1.1
v -32.6 1.4 -1.1
v -32.6 1.4 -1.2
v -32.3 1.1 1.7
v -32.3 1.1 1.4
v -32.3 1.2 1.6
v -32.3 1.2 1.5
v -32.3 1.3 1.6
v -32.3 1.3 1.5
v -32.3 1.4 1.7
v -32.3 1.4 1.4
v -32.2 0.9 1.9
v -32.2 0.9 1.2
v -32.2 1.1 1.7
v -32.2 1.1 1.4
v -32.2 1.4 1.9
v -32.2 1.4 1.8
v -32.2 1.4 1.7
v -32.2 1.4 1.4
v -32.2 1.4 1.2
v -32.2 1.4 1.1
v -32.2 1.6 1.8
v -32.2 1.6 1.7
v -32.2 1.6 1.5
v -32.2 1.6 1.1
v -32.2 1.8 1.7
v -32.2 1.8 1.5
v -32 0.9 -1.3
v -32 0.9 -1.4
v -32 1.5 -1.3
v -32 1.5 -1.4
v -31.8 0.8 -1.3
v -31.8 0.8 -1.5
v -31.8 0.9 -1.3
v -31.8 0.9 -1.4
v -31.8 0.9 -1.5
v -31.8 1.1 -1.2
v -31.8 1.1 -1.4
v -31.8 1.2 -1.2
v -31.8 1.2 -1.3
v -31.8 1.3 -1.3
v -31.8 1.3 -1.4
v -31.7 1.6 1.7
v -31.7 1.6 1.5
v -31.7 1.8 1.7
v -31.7 1.8 1.5
v -31.6 1.3 -1.3
v -31.6 1.3 -1.4
v -31.6 1.4 -1.3
v -31.6 1.4 -1.4
v -31.4 0 1.2
v -31.4 0 0.8
v -31.4 0 -0.8
v -31.4 0 -1.2
v -31.4 0.1 1.2
v -31.4 0.1 0.8
v -31.4 0.1 -0.8
v -31.4 0.1 -1.2
v -31.4 0.7 1.2
v -31.4 0.7 0.8
v -31.4 0.7 -0.8
v -31.4 0.7 -1.2
v -31.3 0 0.8
v -31.3 0 0.7
v -31.3 0 -0.7
v -31.3 0 -0.8
v -31.3 0.1 0.8
v -31.3 0.1 0.7
v -31.3 0.1 -0.7
v -31.3 0.1 -0.8
v -31.3 0.7 0.8
v -31.3 0.7 0.7
v -31.3 0.7 -0.7
v -31.3 0.7 -0.8
v -32.3 0 1.2
v -32.3 0 1.1
v -32.3 0 0.8
v -32.3 0 0.7
v -32.3 0 -0.7
v -32.3 0 -0.8
v -32.3 0.1 1.2
v -32.3 0.1 1.1
v -32.3 0.1 0.8
v -32.3 0.1 0.7
v -32.3 0.1 -0.7
v -32.3 0.1 -0.8
v -32.3 0.7 1.2
v -32.3 0.7 1.1
v -32.3 0.7 0.8
v -32.3 0.7 0.7
v -32.3 0.7 -0.7
v -32.3 0.7 -0.8
v -32.2 0 1.1
v -32.2 0 0.8
v -32.2 0 -0.8
v -32.2 0 -1.2
v -32.2 0.1 1.1
v -32.2 0.1 0.8
v -32.2 0.1 -0.8
v -32.2 0.1 -1.2
v -32.2 0.7 1.1
v -32.2 0.7 0.8
v -32.2 0.7 -0.8
v -32.2 0.7 -1.2
v -31.9 1 -1.3
v -31.9 1 -1.4
v -31.9 1.4 -1.3
v -31.9 1.4 -1.4
v -31.9 1.6 1.7
v -31.9 1.6 1.5
v -31.9 1.8 1.7
v -31.9 1.8 1.5
v -31.7 0.8 -1.3
v -31.7 0.8 -1.5
v -31.7 0.9 -1.4
v -31.7 0.9 -1.5
v -31.7 1 -1.3
v -31.7 1 -1.4
v -31.7 1.1 -1.2
v -31.7 1.1 -1.4
v -31.7 1.2 -1.2
v -31.7 1.2 -1.3
v -31.7 1.2 -1.4
v -31.5 1.2 -1.3
v -31.5 1.2 -1.4
v -31.5 1.5 -1.3
v -31.5 1.5 -1.4
v -31.4 0.9 1.9
v -31.4 0.9 1.2
v -31.4 1.1 1.7
v -31.4 1.1 1.4
v -31.4 1.4 1.9
v -31.4 1.4 1.8
v -31.4 1.4 1.7
v -31.4 1.4 1.4
v -31.4 1.4 1.2
v -31.4 1.4 1.1
v -31.4 1.6 1.8
v -31.4 1.6 1.7
v -31.4 1.6 1.5
v -31.4 1.6 1.1
v -31.4 1.8 1.7
v -31.4 1.8 1.5
v -31.3 1.1 1.7
v -31.3 1.1 1.4
v -31.3 1.2 1.6
v -31.3 1.2 1.5
v -31.3 1.3 1.6
v -31.3 1.3 1.5
v -31.3 1.4 1.7
v -31.3 1.4 1.4
v -31 0 1.2
v -31 0 1.1
v -31 0 0.8
v -31 0 0.7
v -31 0 -0.7
v -31 0 -0.8
v -31 0 -1.1
v -31 0 -1.2
v -31 0.1 1.2
v -31 0.1 1.1
v -31 0.1 0.8
v -31 0.1 0.7
v -31 0.1 -0.7
v -31 0.1 -0.8
v -31 0.1 -1.1
v -31 0.1 -1.2
v -31 0.7 0.8
v -31 0.7 0.7
v -31 0.7 -0.7
v -31 0.7 -0.8
v -31 1.4 1.2
v -31 1.4 1.1
v -31 1.4 -1.1
v -31 1.4 -1.2
v -30.9 0 1.1
v -30.9 0 0.8
v -30.9 0 -0.8
v -30.9 0 -1.1
v -30.9 0.1 1.1
v -30.9 0.1 0.8
v -30.9 0.1 -0.8
v -30.9 0.1 -1.1
v -30.9 0.7 0.8
v -30.9 0.7 -0.8
v -30.9 1.4 1.1
v -30.9 1.4 -1.1
v -32.2 0.9 1.9
v -32.2 1.4 1.9
v -32.1 1 1.9
v -32.1 1.2 1.9
v -31.9 1 1.9
v -31.9 1.2 1.9
v -31.7 1 1.9
v -31.7 1.2 1.9
v -31.5 1 1.9
v -31.5 1.2 1.9
v -31.4 0.9 1.9
v -31.4 1.4 1.9
v -32.2 1.4 1.8
v -32.2 1.6 1.8
v -31.4 1.4 1.8
v -31.4 1.6 1.8
v -32.3 1.1 1.7
v -32.3 1.4 1.7
v -32.2 1.1 1.7
v -32.2 1.4 1.7
v -32.2 1.6 1.7
v -32.2 1.8 1.7
v -32.1 1.6 1.7
v -32.1 1.7 1.7
v -32 1.6 1.7
v -32 1.7 1.7
v -31.9 1.6 1.7
v -31.9 1.8 1.7
v -31.7 1.6 1.7
v -31.7 1.8 1.7
v -31.6 1.6 1.7
v -31.6 1.7 1.7
v -31.5 1.6 1.7
v -31.5 1.7 1.7
v -31.4 1.1 1.7
v -31.4 1.4 1.7
v -31.4 1.6 1.7
v -31.4 1.8 1.7
v -31.3 1.1 1.7
v -31.3 1.4 1.7
v -32.6 0 1.2
v -32.6 0.1 1.2
v -32.6 1.4 1.2
v -32.3 0 1.2
v -32.3 0.1 1.2
v -32.3 0.7 1.2
v -32.2 0.9 1.2
v -32.2 1.4 1.2
v -31.4 0 1.2
v -31.4 0.1 1.2
v -31.4 0.7 1.2
v -31.4 0.9 1.2
v -31.4 1.4 1.2
v -31 0 1.2
v -31 0.1 1.2
v -31 1.4 1.2
v -32.7 0 1.1
v -32.7 0.1 1.1
v -32.7 1.4 1.1
v -32.6 0 1.1
v -32.6 0.1 1.1
v -32.6 1.4 1.1
v -32.3 0 1.1
v -32.3 0.1 1.1
v -32.3 0.7 1.1
v -32.2 0 1.1
v -32.2 0.1 1.1
v -32.2 0.7 1.1
v -31 0 1.1
v -31 0.1 1.1
v -31 1.4 1.1
v -30.9 0 1.1
v -30.9 0.1 1.1
v -30.9 1.4 1.1
v -32.6 0 -0.7
v -32.6 0.1 -0.7
v -32.6 0.7 -0.7
v -32.3 0 -0.7
v -32.3 0.1 -0.7
v -32.3 0.7 -0.7
v -31.3 0 -0.7
v -31.3 0.1 -0.7
v -31.3 0.7 -0.7
v -31 0 -0.7
v -31 0.1 -0.7
v -31 0.7 -0.7
v -32.7 0 -0.8
v -32.7 0.1 -0.8
v -32.7 0.7 -0.8
v -32.6 0 -0.8
v -32.6 0.1 -0.8
v -32.6 0.7 -0.8
v -32.3 0 -0.8
v -32.3 0.1 -0.8
v -32.3 0.7 -0.8
v -32.2 0 -0.8
v -32.2 0.1 -0.8
v -32.2 0.7 -0.8
v -31.4 0 -0.8
v -31.4 0.1 -0.8
v -31.4 0.7 -0.8
v -31.3 0 -0.8
v -31.3 0.1 -0.8
v -31.3 0.7 -0.8
v -31 0 -0.8
v -31 0.1 -0.8
v -31 0.7 -0.8
v -30.9 0 -0.8
v -30.9 0.1 -0.8
v -30.9 0.7 -0.8
v -32 0.9 -1.3
v -32 1.5 -1.3
v -31.9 1 -1.3
v -31.9 1.4 -1.3
v -31.8 0.8 -1.3
v -31.8 0.9 -1.3
v -31.8 1.2 -1.3
v -31.8 1.3 -1.3
v -31.7 0.8 -1.3
v -31.7 1 -1.3
v -31.7 1.2 -1.3
v -31.6 1.3 -1.3
v -31.6 1.4 -1.3
v -31.5 1.2 -1.3
v -31.5 1.5 -1.3
v -32.2 1.6 1.5
v -32.2 1.8 1.5
v -31.9 1.6 1.5
v -31.9 1.8 1.5
v -31.7 1.6 1.5
v -31.7 1.8 1.5
v -31.4 1.6 1.5
v -31.4 1.8 1.5
v -32.3 1.1 1.4
v -32.3 1.4 1.4
v -32.2 1.1 1.4
v -32.2 1.4 1.4
v -31.4 1.1 1.4
v -31.4 1.4 1.4
v -31.3 1.1 1.4
v -31.3 1.4 1.4
v -32.2 1.4 1.1
v -32.2 1.6 1.1
v -31.4 1.4 1.1
v -31.4 1.6 1.1
v -32.7 0 0.8
v -32.7 0.1 0.8
v -32.7 0.7 0.8
v -32.6 0 0.8
v -32.6 0.1 0.8
v -32.6 0.7 0.8
v -32.3 0 0.8
v -32.3 0.1 0.8
v -32.3 0.7 0.8
v -32.2 0 0.8
v -32.2 0.1 0.8
v -32.2 0.7 0.8
v -31.4 0 0.8
v -31.4 0.1 0.8
v -31.4 0.7 0.8
v -31.3 0 0.8
v -31.3 0.1 0.8
v -31.3 0.7 0.8
v -31 0 0.8
v -31 0.1 0.8
v -31 0.7 0.8
v -30.9 0 0.8
v -30.9 0.1 0.8
v -30.9 0.7 0.8
v -32.6 0 0.7
v -32.6 0.1 0.7
v -32.6 0.7 0.7
v -32.3 0 0.7
v -32.3 0.1 0.7
v -32.3 0.7 0.7
v -31.3 0 0.7
v -31.3 0.1 0.7
v -31.3 0.7 0.7
v -31 0 0.7
v -31 0.1 0.7
v -31 0.7 0.7
v -32.7 0 -1.1
v -32.7 0.1 -1.1
v -32.7 1.4 -1.1
v -32.6 0 -1.1
v -32.6 0.1 -1.1
v -32.6 1.4 -1.1
v -31 0 -1.1
v -31 0.1 -1.1
v -31 1.4 -1.1
v -30.9 0 -1.1
v -30.9 0.1 -1.1
v -30.9 1.4 -1.1
v -32.6 0 -1.2
v -32.6 0.1 -1.2
v -32.6 1.4 -1.2
v -32.2 0 -1.2
v -32.2 0.1 -1.2
v -32.2 0.7 -1.2
v -31.8 1.1 -1.2
v -31.8 1.2 -1.2
v -31.7 1.1 -1.2
v -31.7 1.2 -1.2
v -31.4 0 -1.2
v -31.4 0.1 -1.2
v -31.4 0.7 -1.2
v -31 0 -1.2
v -31 0.1 -1.2
v -31 1.4 -1.2
v -32 0.9 -1.4
v -32 1.5 -1.4
v -31.9 1 -1.4
v -31.9 1.4 -1.4
v -31.8 0.9 -1.4
v -31.8 1.1 -1.4
v -31.8 1.3 -1.4
v -31.7 0.9 -1.4
v -31.7 1 -1.4
v -31.7 1.1 -1.4
v -31.7 1.2 -1.4
v -31.6 1.3 -1.4
v -31.6 1.4 -1.4
v -31.5 1.2 -1.4
v -31.5 1.5 -1.4
v -31.8 0.8 -1.5
v -31.8 0.9 -1.5
v -31.7 0.8 -1.5
v -31.7 0.9 -1.5
v -32.6 0 1.2
v -32.3 0 1.2
v -31.4 0 1.2
v -31 0 1.2
v -32.7 0 1.1
v -32.6 0 1.1
v -32.3 0 1.1
v -32.2 0 1.1
v -31 0 1.1
v -30.9 0 1.1
v -32.6 0 1
v -32.3 0 1
v -31.3 0 1
v -31 0 1
v -32.6 0 0.9
v -32.3 0 0.9
v -31.3 0 0.9
v -31 0 0.9
v -32.7 0 0.8
v -32.6 0 0.8
v -32.3 0 0.8
v -32.2 0 0.8
v -31.4 0 0.8
v -31.3 0 0.8
v -31 0 0.8
v -30.9 0 0.8
v -32.6 0 0.7
v -32.3 0 0.7
v -31.3 0 0.7
v -31 0 0.7
v -32.6 0 -0.7
v -32.3 0 -0.7
v -31.3 0 -0.7
v -31 0 -0.7
v -32.7 0 -0.8
v -32.6 0 -0.8
v -32.3 0 -0.8
v -32.2 0 -0.8
v -31.4 0 -0.8
v -31.3 0 -0.8
v -31 0 -0.8
v -30.9 0 -0.8
v -32.6 0 -0.9
v -32.3 0 -0.9
v -31.3 0 -0.9
v -31 0 -0.9
v -32.6 0 -1
v -32.3 0 -1
v -31.3 0 -1
v -31 0 -1
v -32.7 0 -1.1
v -32.6 0 -1.1
v -31 0 -1.1
v -30.9 0 -1.1
v -32.6 0 -1.2
v -32.2 0 -1.2
v -31.4 0 -1.2
v -31 0 -1.2
v -32.3 0.7 1.2
v -31.4 0.7 1.2
v -32.3 0.7 1.1
v -32.2 0.7 1.1
v -32.7 0.7 0.8
v -32.6 0.7 0.8
v -32.3 0.7 0.8
v -32.2 0.7 0.8
v -31.4 0.7 0.8
v -31.3 0.7 0.8
v -31 0.7 0.8
v -30.9 0.7 0.8
v -32.6 0.7 0.7
v -32.3 0.7 0.7
v -31.3 0.7 0.7
v -31 0.7 0.7
v -32.6 0.7 -0.7
v -32.3 0.7 -0.7
v -31.3 0.7 -0.7
v -31 0.7 -0.7
v -32.7 0.7 -0.8
v -32.6 0.7 -0.8
v -32.3 0.7 -0.8
v -32.2 0.7 -0.8
v -31.4 0.7 -0.8
v -31.3 0.7 -0.8
v -31 0.7 -0.8
v -30.9 0.7 -0.8
v -32.2 0.7 -1.2
v -31.4 0.7 -1.2
v -31.8 0.8 -1.3
v -31.7 0.8 -1.3
v -31.8 0.8 -1.5
v -31.7 0.8 -1.5
v -32.2 0.9 1.9
v -31.4 0.9 1.9
v -32.2 0.9 1.2
v -31.4 0.9 1.2
v -32 0.9 -1.3
v -31.8 0.9 -1.3
v -32 0.9 -1.4
v -31.8 0.9 -1.4
v -32.3 1.1 1.7
v -32.2 1.1 1.7
v -31.4 1.1 1.7
v -31.3 1.1 1.7
v -32.3 1.1 1.4
v -32.2 1.1 1.4
v -31.4 1.1 1.4
v -31.3 1.1 1.4
v -31.8 1.1 -1.2
v -31.7 1.1 -1.2
v -31.8 1.1 -1.4
v -31.7 1.1 -1.4
v -31.7 1.2 -1.3
v -31.5 1.2 -1.3
v -31.7 1.2 -1.4
v -31.5 1.2 -1.4
v -31.9 1.4 -1.3
v -31.6 1.4 -1.3
v -31.9 1.4 -1.4
v -31.6 1.4 -1.4
v -31.8 0.9 -1.4
v -31.7 0.9 -1.4
v -31.8 0.9 -1.5
v -31.7 0.9 -1.5
v -31.9 1 -1.3
v -31.7 1 -1.3
v -31.9 1 -1.4
v -31.7 1 -1.4
v -31.8 1.2 -1.2
v -31.7 1.2 -1.2
v -31.8 1.2 -1.3
v -31.7 1.2 -1.3
v -31.8 1.3 -1.3
v -31.6 1.3 -1.3
v -31.8 1.3 -1.4
v -31.6 1.3 -1.4
v -32.2 1.4 1.9
v -31.4 1.4 1.9
v -32.2 1.4 1.8
v -31.4 1.4 1.8
v -32.3 1.4 1.7
v -32.2 1.4 1.7
v -31.4 1.4 1.7
v -31.3 1.4 1.7
v -32.3 1.4 1.4
v -32.2 1.4 1.4
v -31.4 1.4 1.4
v -31.3 1.4 1.4
v -32.6 1.4 1.2
v -32.2 1.4 1.2
v -31.4 1.4 1.2
v -31 1.4 1.2
v -32.7 1.4 1.1
v -32.6 1.4 1.1
v -32.2 1.4 1.1
v -31.4 1.4 1.1
v -31 1.4 1.1
v -30.9 1.4 1.1
v -32.7 1.4 -1.1
v -32.6 1.4 -1.1
v -31 1.4 -1.1
v -30.9 1.4 -1.1
v -32.6 1.4 -1.2
v -31 1.4 -1.2
v -32 1.5 -1.3
v -31.5 1.5 -1.3
v -32 1.5 -1.4
v -31.5 1.5 -1.4
v -32.2 1.6 1.8
v -31.4 1.6 1.8
v -32.2 1.6 1.7
v -32.1 1.6 1.7
v -32 1.6 1.7
v -31.9 1.6 1.7
v -31.7 1.6 1.7
v -31.6 1.6 1.7
v -31.5 1.6 1.7
v -31.4 1.6 1.7
v -32.2 1.6 1.5
v -31.9 1.6 1.5
v -31.7 1.6 1.5
v -31.4 1.6 1.5
v -32.2 1.6 1.1
v -31.4 1.6 1.1
v -32.2 1.8 1.7
v -31.9 1.8 1.7
v -31.7 1.8 1.7
v -31.4 1.8 1.7
v -32.2 1.8 1.5
v -31.9 1.8 1.5
v -31.7 1.8 1.5
v -31.4 1.8 1.5

# faces
f 5/1/1 2/1/1 1/1/1
f 6/1/1 2/1/1 5/1/1
f 7/1/1 4/1/1 3/1/1
f 8/1/1 4/1/1 7/1/1
f 9/2/1 6/2/1 5/2/1
f 10/2/1 8/2/1 7/2/1
f 11/2/1 9/2/1 5/2/1
f 11/2/1 10/2/1 9/2/1
f 12/2/1 8/2/1 10/2/1
f 12/2/1 10/2/1 11/2/1
f 21/1/1 14/1/1 13/1/1
f 22/1/1 14/1/1 21/1/1
f 23/1/1 16/1/1 15/1/1
f 24/1/1 16/1/1 23/1/1
f 25/1/1 18/1/1 17/1/1
f 26/1/1 18/1/1 25/1/1
f 27/1/1 20/1/1 19/1/1
f 28/1/1 20/1/1 27/1/1
f 29/2/1 24/2/1 23/2/1
f 30/2/1 24/2/1 29/2/1
f 31/2/1 26/2/1 25/2/1
f 32/2/1 26/2/1 31/2/1
f 33/2/1 22/2/1 21/2/1
f 34/2/1 22/2/1 33/2/1
f 35/2/1 28/2/1 27/2/1
f 36/2/1 28/2/1 35/2/1
f 39/4/1 38/4/1 37/4/1
f 40/4/1 38/4/1 39/4/1
f 41/4/1 39/4/1 37/4/1
f 41/6/1 40/6/1 39/6/1
f 42/4/1 38/4/1 40/4/1
f 42/6/1 40/6/1 41/6/1
f 43/4/1 41/4/1 37/4/1
f 43/4/1 42/4/1 41/4/1
f 44/4/1 38/4/1 42/4/1
f 44/4/1 42/4/1 43/4/1
f 47/2/1 46/2/1 45/2/1
f 48/2/1 46/2/1 47/2/1
f 49/2/1 47/2/1 45/2/1
f 50/2/1 47/2/1 49/2/1
f 51/2/1 47/2/1 50/2/1
f 52/2/1 46/2/1 48/2/1
f 53/2/1 46/2/1 52/2/1
f 55/2/1 51/2/1 50/2/1
f 55/2/1 54/2/1 53/2/1
f 55/2/1 53/2/1 52/2/1
f 55/2/1 52/2/1 51/2/1
f 56/2/1 54/2/1 55/2/1
f 57/2/1 54/2/1 56/2/1
f 58/2/1 54/2/1 57/2/1
f 59/2/1 57/2/1 56/2/1
f 60/2/1 57/2/1 59/2/1
f 63/2/1 62/2/1 61/2/1
f 64/2/1 62/2/1 63/2/1
f 67/2/1 66/2/1 65/2/1
f 68/2/1 66/2/1 67/2/1
f 69/2/1 66/2/1 68/2/1
f 72/2/1 71/2/1 70/2/1
f 73/2/1 71/2/1 72/2/1
f 74/2/1 71/2/1 73/2/1
f 75/2/1 71/2/1 74/2/1
f 78/2/1 77/2/1 76/2/1
f 79/2/1 77/2/1 78/2/1
f 82/2/1 81/2/1 80/2/1
f 83/2/1 81/2/1 82/2/1
f 88/1/1 85/1/1 84/1/1
f 89/1/1 85/1/1 88/1/1
f 90/1/1 87/1/1 86/1/1
f 91/1/1 87/1/1 90/1/1
f 92/2/1 89/2/1 88/2/1
f 93/2/1 89/2/1 92/2/1
f 94/2/1 91/2/1 90/2/1
f 95/2/1 91/2/1 94/2/1
f 100/1/1 97/1/1 96/1/1
f 101/1/1 97/1/1 100/1/1
f 102/1/1 99/1/1 98/1/1
f 103/1/1 99/1/1 102/1/1
f 104/2/1 101/2/1 100/2/1
f 105/2/1 101/2/1 104/2/1
f 106/2/1 103/2/1 102/2/1
f 107/2/1 103/2/1 106/2/1
f 108/1/2 109/1/2 114/1/2
f 114/1/2 109/1/2 115/1/2
f 110/1/2 111/1/2 116/1/2
f 116/1/2 111/1/2 117/1/2
f 112/1/2 113/1/2 118/1/2
f 118/1/2 113/1/2 119/1/2
f 114/2/2 115/2/2 120/2/2
f 120/2/2 115/2/2 121/2/2
f 116/2/2 117/2/2 122/2/2
f 122/2/2 117/2/2 123/2/2
f 118/2/2 119/2/2 124/2/2
f 124/2/2 119/2/2 125/2/2
f 126/1/2 127/1/2 130/1/2
f 130/1/2 127/1/2 131/1/2
f 128/1/2 129/1/2 132/1/2
f 132/1/2 129/1/2 133/1/2
f 130/2/2 131/2/2 134/2/2
f 134/2/2 131/2/2 135/2/2
f 132/2/2 133/2/2 136/2/2
f 136/2/2 133/2/2 137/2/2
f 138/2/2 139/2/2 140/2/2
f 140/2/2 139/2/2 141/2/2
f 142/2/2 143/2/2 144/2/2
f 144/2/2 143/2/2 145/2/2
f 146/2/2 147/2/2 148/2/2
f 148/2/2 147/2/2 149/2/2
f 146/2/2 148/2/2 150/2/2
f 150/2/2 148/2/2 151/2/2
f 152/2/2 153/2/2 154/2/2
f 154/2/2 153/2/2 155/2/2
f 155/2/2 153/2/2 156/2/2
f 157/2/2 158/2/2 159/2/2
f 159/2/2 158/2/2 160/2/2
f 161/2/2 162/2/2 163/2/2
f 163/2/2 162/2/2 164/2/2
f 161/2/2 163/2/2 165/2/2
f 165/2/2 163/2/2 166/2/2
f 166/2/2 163/2/2 167/2/2
f 164/2/2 162/2/2 168/2/2
f 168/2/2 162/2/2 169/2/2
f 166/2/2 167/2/2 171/2/2
f 169/2/2 170/2/2 171/2/2
f 168/2/2 169/2/2 171/2/2
f 167/2/2 168/2/2 171/2/2
f 171/2/2 170/2/2 172/2/2
f 172/2/2 170/2/2 173/2/2
f 173/2/2 170/2/2 174/2/2
f 172/2/2 173/2/2 175/2/2
f 175/2/2 173/2/2 176/2/2
f 177/4/2 178/4/2 179/4/2
f 179/4/2 178/4/2 180/4/2
f 177/4/2 179/4/2 181/4/2
f 179/6/2 180/6/2 181/6/2
f 180/4/2 178/4/2 182/4/2
f 181/6/2 180/6/2 182/6/2
f 177/4/2 181/4/2 183/4/2
f 181/4/2 182/4/2 183/4/2
f 182/4/2 178/4/2 184/4/2
f 183/4/2 182/4/2 184/4/2
f 185/1/2 186/1/2 193/1/2
f 193/1/2 186/1/2 194/1/2
f 187/1/2 188/1/2 195/1/2
f 195/1/2 188/1/2 196/1/2
f 189/1/2 190/1/2 197/1/2
f 197/1/2 190/1/2 198/1/2
f 191/1/2 192/1/2 199/1/2
f 199/1/2 192/1/2 200/1/2
f 195/2/2 196/2/2 201/2/2
f 201/2/2 196/2/2 202/2/2
f 197/2/2 198/2/2 203/2/2
f 203/2/2 198/2/2 204/2/2
f 193/2/2 194/2/2 205/2/2
f 205/2/2 194/2/2 206/2/2
f 199/2/2 200/2/2 207/2/2
f 207/2/2 200/2/2 208/2/2
f 209/1/2 210/1/2 213/1/2
f 213/1/2 210/1/2 214/1/2
f 211/1/2 212/1/2 215/1/2
f 215/1/2 212/1/2 216/1/2
f 213/2/2 214/2/2 217/2/2
f 215/2/2 216/2/2 218/2/2
f 213/2/2 217/2/2 219/2/2
f 217/2/2 218/2/2 219/2/2
f 218/2/2 216/2/2 220/2/2
f 219/2/2 218/2/2 220/2/2
f 223/2/3 222/2/3 221/2/3
f 224/2/3 222/2/3 223/2/3
f 225/2/3 223/2/3 221/2/3
f 225/5/3 224/5/3 223/5/3
f 226/2/3 222/2/3 224/2/3
f 226/5/3 224/5/3 225/5/3
f 227/2/3 225/2/3 221/2/3
f 227/2/3 226/2/3 225/2/3
f 228/2/3 222/2/3 226/2/3
f 228/2/3 226/2/3 227/2/3
f 229/2/3 227/2/3 221/2/3
f 229/5/3 228/5/3 227/5/3
f 230/2/3 222/2/3 228/2/3
f 230/5/3 228/5/3 229/5/3
f 231/2/3 229/2/3 221/2/3
f 231/2/3 230/2/3 229/2/3
f 232/2/3 222/2/3 230/2/3
f 232/2/3 230/2/3 231/2/3
f 235/2/3 234/2/3 233/2/3
f 236/2/3 234/2/3 235/2/3
f 239/4/3 238/4/3 237/4/3
f 240/4/3 238/4/3 239/4/3
f 243/2/3 242/2/3 241/2/3
f 244/2/3 242/2/3 243/2/3
f 245/5/3 244/5/3 243/5/3
f 246/2/3 242/2/3 244/2/3
f 246/5/3 244/5/3 245/5/3
f 247/2/3 246/2/3 245/2/3
f 248/2/3 242/2/3 246/2/3
f 248/2/3 246/2/3 247/2/3
f 251/2/3 250/2/3 249/2/3
f 252/2/3 250/2/3 251/2/3
f 253/5/3 252/5/3 251/5/3
f 254/2/3 250/2/3 252/2/3
f 254/5/3 252/5/3 253/5/3
f 257/2/3 254/2/3 253/2/3
f 258/2/3 250/2/3 254/2/3
f 258/2/3 254/2/3 257/2/3
f 259/4/3 256/4/3 255/4/3
f 260/4/3 256/4/3 259/4/3
f 264/1/3 262/1/3 261/1/3
f 265/2/3 263/2/3 262/2/3
f 265/1/3 262/1/3 264/1/3
f 266/2/3 263/2/3 265/2/3
f 267/2/3 263/2/3 266/2/3
f 268/2/3 263/2/3 267/2/3
f 271/2/3 267/2/3 266/2/3
f 272/2/3 267/2/3 271/2/3
f 274/1/3 270/1/3 269/1/3
f 275/2/3 273/2/3 272/2/3
f 275/1/3 270/1/3 274/1/3
f 275/2/3 271/2/3 270/2/3
f 275/2/3 272/2/3 271/2/3
f 276/2/3 273/2/3 275/2/3
f 280/1/3 278/1/3 277/1/3
f 281/2/3 279/2/3 278/2/3
f 281/1/3 278/1/3 280/1/3
f 282/2/3 279/2/3 281/2/3
f 286/1/3 284/1/3 283/1/3
f 287/2/3 285/2/3 284/2/3
f 287/1/3 284/1/3 286/1/3
f 288/2/3 285/2/3 287/2/3
f 292/1/3 290/1/3 289/1/3
f 293/2/3 291/2/3 290/2/3
f 293/1/3 290/1/3 292/1/3
f 294/2/3 291/2/3 293/2/3
f 298/1/3 296/1/3 295/1/3
f 299/2/3 297/2/3 296/2/3
f 299/1/3 296/1/3 298/1/3
f 300/2/3 297/2/3 299/2/3
f 304/1/3 302/1/3 301/1/3
f 305/2/3 303/2/3 302/2/3
f 305/1/3 302/1/3 304/1/3
f 306/2/3 303/2/3 305/2/3
f 310/1/3 308/1/3 307/1/3
f 311/2/3 309/2/3 308/2/3
f 311/1/3 308/1/3 310/1/3
f 312/2/3 309/2/3 311/2/3
f 316/1/3 314/1/3 313/1/3
f 317/2/3 315/2/3 314/2/3
f 317/1/3 314/1/3 316/1/3
f 318/2/3 315/2/3 317/2/3
f 322/1/3 320/1/3 319/1/3
f 323/2/3 321/2/3 320/2/3
f 323/1/3 320/1/3 322/1/3
f 324/2/3 321/2/3 323/2/3
f 328/1/3 326/1/3 325/1/3
f 329/2/3 327/2/3 326/2/3
f 329/1/3 326/1/3 328/1/3
f 330/2/3 327/2/3 329/2/3
f 333/2/3 332/2/3 331/2/3
f 334/2/3 332/2/3 333/2/3
f 336/2/3 333/2/3 331/2/3
f 339/2/3 336/2/3 335/2/3
f 340/2/3 333/2/3 336/2/3
f 340/2/3 336/2/3 339/2/3
f 341/2/3 338/2/3 337/2/3
f 342/2/3 338/2/3 341/2/3
f 343/2/3 332/2/3 334/2/3
f 344/2/3 342/2/3 341/2/3
f 344/2/3 343/2/3 342/2/3
f 345/2/3 332/2/3 343/2/3
f 345/2/3 343/2/3 344/2/3
f 346/2/4 347/2/4 348/2/4
f 348/2/4 347/2/4 349/2/4
f 350/2/4 351/2/4 352/2/4
f 352/2/4 351/2/4 353/2/4
f 354/4/4 355/4/4 356/4/4
f 356/4/4 355/4/4 357/4/4
f 358/4/4 359/4/4 360/4/4
f 360/4/4 359/4/4 361/4/4
f 362/2/4 363/2/4 364/2/4
f 364/2/4 363/2/4 365/2/4
f 366/1/4 367/1/4 369/1/4
f 367/2/4 368/2/4 370/2/4
f 369/1/4 367/1/4 370/1/4
f 370/2/4 368/2/4 371/2/4
f 372/1/4 373/1/4 375/1/4
f 373/2/4 374/2/4 376/2/4
f 375/1/4 373/1/4 376/1/4
f 376/2/4 374/2/4 377/2/4
f 378/1/4 379/1/4 381/1/4
f 379/2/4 380/2/4 382/2/4
f 381/1/4 379/1/4 382/1/4
f 382/2/4 380/2/4 383/2/4
f 384/1/4 385/1/4 387/1/4
f 385/2/4 386/2/4 388/2/4
f 387/1/4 385/1/4 388/1/4
f 388/2/4 386/2/4 389/2/4
f 390/1/4 391/1/4 393/1/4
f 391/2/4 392/2/4 394/2/4
f 393/1/4 391/1/4 394/1/4
f 394/2/4 392/2/4 395/2/4
f 396/1/4 397/1/4 399/1/4
f 397/2/4 398/2/4 400/2/4
f 399/1/4 397/1/4 400/1/4
f 400/2/4 398/2/4 401/2/4
f 402/1/4 403/1/4 405/1/4
f 403/2/4 404/2/4 406/2/4
f 405/1/4 403/1/4 406/1/4
f 406/2/4 404/2/4 407/2/4
f 408/1/4 409/1/4 411/1/4
f 409/2/4 410/2/4 412/2/4
f 411/1/4 409/1/4 412/1/4
f 412/2/4 410/2/4 413/2/4
f 414/1/4 415/1/4 417/1/4
f 415/2/4 416/2/4 418/2/4
f 417/1/4 415/1/4 418/1/4
f 418/2/4 416/2/4 419/2/4
f 419/2/4 416/2/4 420/2/4
f 420/2/4 416/2/4 421/2/4
f 419/2/4 420/2/4 422/2/4
f 421/2/4 416/2/4 423/2/4
f 419/2/4 422/2/4 426/2/4
f 422/2/4 423/2/4 426/2/4
f 424/1/4 425/1/4 427/1/4
f 425/2/4 426/2/4 428/2/4
f 427/1/4 425/1/4 428/1/4
f 423/2/4 416/2/4 429/2/4
f 428/2/4 426/2/4 429/2/4
f 426/2/4 423/2/4 429/2/4
f 430/2/4 431/2/4 432/2/4
f 432/2/4 431/2/4 433/2/4
f 430/2/4 432/2/4 434/2/4
f 434/2/4 432/2/4 437/2/4
f 437/2/4 432/2/4 438/2/4
f 435/2/4 436/2/4 439/2/4
f 439/2/4 436/2/4 440/2/4
f 440/2/4 436/2/4 441/2/4
f 433/2/4 431/2/4 442/2/4
f 440/2/4 441/2/4 443/2/4
f 441/2/4 442/2/4 443/2/4
f 442/2/4 431/2/4 444/2/4
f 443/2/4 442/2/4 444/2/4
f 445/2/4 446/2/4 447/2/4
f 447/2/4 446/2/4 448/2/4
f 454/1/5 450/1/5 449/1/5
f 455/1/5 450/1/5 454/1/5
f 457/1/5 452/1/5 451/1/5
f 459/1/5 456/1/5 455/1/5
f 459/1/5 454/1/5 453/1/5
f 459/1/5 455/1/5 454/1/5
f 460/1/5 456/1/5 459/1/5
f 461/1/5 458/1/5 457/1/5
f 461/1/5 457/1/5 451/1/5
f 462/1/5 458/1/5 461/1/5
f 463/3/5 460/3/5 459/3/5
f 463/1/5 459/1/5 453/1/5
f 464/1/5 456/1/5 460/1/5
f 464/3/5 460/3/5 463/3/5
f 465/3/5 462/3/5 461/3/5
f 465/1/5 461/1/5 451/1/5
f 466/1/5 458/1/5 462/1/5
f 466/3/5 462/3/5 465/3/5
f 467/1/5 463/1/5 453/1/5
f 467/1/5 464/1/5 463/1/5
f 468/1/5 464/1/5 467/1/5
f 469/1/5 456/1/5 464/1/5
f 469/1/5 464/1/5 468/1/5
f 470/1/5 456/1/5 469/1/5
f 471/1/5 465/1/5 451/1/5
f 471/1/5 466/1/5 465/1/5
f 472/1/5 466/1/5 471/1/5
f 473/1/5 458/1/5 466/1/5
f 473/1/5 466/1/5 472/1/5
f 474/1/5 458/1/5 473/1/5
f 475/1/5 469/1/5 468/1/5
f 476/1/5 469/1/5 475/1/5
f 477/1/5 473/1/5 472/1/5
f 478/1/5 473/1/5 477/1/5
f 484/1/5 480/1/5 479/1/5
f 485/1/5 480/1/5 484/1/5
f 488/1/5 482/1/5 481/1/5
f 489/1/5 482/1/5 488/1/5
f 491/1/5 486/1/5 485/1/5
f 491/1/5 484/1/5 483/1/5
f 491/1/5 485/1/5 484/1/5
f 492/1/5 486/1/5 491/1/5
f 493/1/5 489/1/5 488/1/5
f 493/1/5 490/1/5 489/1/5
f 493/1/5 488/1/5 487/1/5
f 494/1/5 490/1/5 493/1/5
f 495/3/5 492/3/5 491/3/5
f 495/1/5 491/1/5 483/1/5
f 496/1/5 486/1/5 492/1/5
f 496/3/5 492/3/5 495/3/5
f 497/3/5 494/3/5 493/3/5
f 497/1/5 493/1/5 487/1/5
f 498/1/5 490/1/5 494/1/5
f 498/3/5 494/3/5 497/3/5
f 499/1/5 495/1/5 483/1/5
f 499/1/5 496/1/5 495/1/5
f 500/1/5 496/1/5 499/1/5
f 501/1/5 490/1/5 498/1/5
f 501/1/5 498/1/5 497/1/5
f 502/1/5 490/1/5 501/1/5
f 503/1/5 496/1/5 500/1/5
f 504/1/5 486/1/5 496/1/5
f 504/1/5 496/1/5 503/1/5
f 505/1/5 497/1/5 487/1/5
f 505/1/5 501/1/5 497/1/5
f 506/1/5 501/1/5 505/1/5
f 509/2/5 508/2/5 507/2/5
f 510/2/5 508/2/5 509/2/5
f 514/2/5 508/2/5 510/2/5
f 515/2/5 508/2/5 514/2/5
f 519/2/5 512/2/5 511/2/5
f 520/2/5 514/2/5 513/2/5
f 520/2/5 515/2/5 514/2/5
f 520/2/5 516/2/5 515/2/5
f 521/2/5 516/2/5 520/2/5
f 522/2/5 518/2/5 517/2/5
f 523/2/5 521/2/5 520/2/5
f 523/2/5 522/2/5 521/2/5
f 523/2/5 519/2/5 511/2/5
f 523/2/5 520/2/5 519/2/5
f 524/2/5 522/2/5 523/2/5
f 525/2/5 522/2/5 524/2/5
f 526/2/5 518/2/5 522/2/5
f 526/2/5 522/2/5 525/2/5
f 527/2/5 523/2/5 511/2/5
f 528/2/5 523/2/5 527/2/5
f 529/2/5 525/2/5 524/2/5
f 530/2/5 525/2/5 529/2/5
f 531/2/5 525/2/5 530/2/5
f 532/2/5 525/2/5 531/2/5
f 533/2/5 518/2/5 526/2/5
f 534/2/5 518/2/5 533/2/5
f 535/2/5 531/2/5 530/2/5
f 536/2/5 531/2/5 535/2/5
f 539/2/5 538/2/5 537/2/5
f 540/2/5 538/2/5 539/2/5
f 543/2/5 542/2/5 541/2/5
f 544/2/5 542/2/5 543/2/5
f 547/2/5 546/2/5 545/2/5
f 548/2/5 546/2/5 547/2/5
f 553/4/5 550/4/5 549/4/5
f 554/4/5 550/4/5 553/4/5
f 555/4/5 552/4/5 551/4/5
f 556/4/5 552/4/5 555/4/5
f 559/2/5 558/2/5 557/2/5
f 560/2/5 558/2/5 559/2/5
f 563/2/5 562/2/5 561/2/5
f 564/2/5 562/2/5 563/2/5
f 567/2/5 566/2/5 565/2/5
f 568/2/5 566/2/5 567/2/5
f 569/2/6 570/2/6 571/2/6
f 571/2/6 570/2/6 572/2/6
f 573/2/6 574/2/6 575/2/6
f 575/2/6 574/2/6 576/2/6
f 577/2/6 578/2/6 579/2/6
f 579/2/6 578/2/6 580/2/6
f 581/2/6 582/2/6 583/2/6
f 583/2/6 582/2/6 584/2/6
f 585/2/6 586/2/6 587/2/6
f 587/2/6 586/2/6 588/2/6
f 589/4/6 590/4/6 593/4/6
f 593/4/6 590/4/6 594/4/6
f 591/4/6 592/4/6 595/4/6
f 595/4/6 592/4/6 596/4/6
f 597/2/6 598/2/6 602/2/6
f 602/2/6 598/2/6 603/2/6
f 599/2/6 600/2/6 604/2/6
f 604/2/6 600/2/6 605/2/6
f 602/2/6 603/2/6 607/2/6
f 605/2/6 606/2/6 607/2/6
f 604/2/6 605/2/6 607/2/6
f 603/2/6 604/2/6 607/2/6
f 601/2/6 602/2/6 607/2/6
f 607/2/6 606/2/6 608/2/6
f 608/2/6 606/2/6 609/2/6
f 609/2/6 606/2/6 610/2/6
f 608/2/6 609/2/6 611/2/6
f 611/2/6 609/2/6 612/2/6
f 613/2/6 614/2/6 615/2/6
f 615/2/6 614/2/6 616/2/6
f 617/2/6 618/2/6 619/2/6
f 619/2/6 618/2/6 620/2/6
f 620/2/6 618/2/6 621/2/6
f 621/2/6 618/2/6 622/2/6
f 622/2/6 618/2/6 623/2/6
f 623/2/6 618/2/6 624/2/6
f 624/2/6 618/2/6 625/2/6
f 625/2/6 618/2/6 626/2/6
f 622/2/6 623/2/6 628/2/6
f 628/2/6 623/2/6 629/2/6
f 627/2/6 628/2/6 631/2/6
f 629/2/6 630/2/6 631/2/6
f 628/2/6 629/2/6 631/2/6
f 631/2/6 630/2/6 632/2/6
f 633/2/6 634/2/6 637/2/6
f 637/2/6 634/2/6 638/2/6
f 635/2/6 636/2/6 639/2/6
f 639/2/6 636/2/6 640/2/6
