# MagicaVoxel @ Ephtracy

# group
o 

# material
mtllib Faster-1.mtl
usemtl palette

# normals
vn -1 0 0
vn 1 0 0
vn 0 0 1
vn 0 0 -1
vn 0 -1 0
vn 0 1 0

# texcoords
vt 0.677734 0.5
vt 0.748047 0.5
vt 0.912109 0.5
vt 0.982422 0.5
vt 0.994141 0.5

# verts
v -10.2 0.3 0.6
v -10.2 0.3 0.3
v -10.2 0.3 0.2
v -10.2 3.2 0.6
v -10.2 3.2 0.3
v -10.2 3.2 0.2
v -10.1 0.2 0.6
v -10.1 0.2 0.3
v -10.1 0.2 0.2
v -10.1 0.3 0.6
v -10.1 0.3 0.3
v -10.1 0.3 0.2
v -10.1 3.2 0.6
v -10.1 3.2 0.3
v -10.1 3.2 0.2
v -10.1 3.3 0.6
v -10.1 3.3 0.3
v -10.1 3.3 0.2
v -10 0.1 0.6
v -10 0.1 0.3
v -10 0.1 0.2
v -10 0.2 0.6
v -10 0.2 0.3
v -10 0.2 0.2
v -10 3.3 0.6
v -10 3.3 0.3
v -10 3.3 0.2
v -10 3.4 0.6
v -10 3.4 0.3
v -10 3.4 0.2
v -9.9 0 0.6
v -9.9 0 0.3
v -9.9 0 0.2
v -9.9 0.1 0.6
v -9.9 0.1 0.3
v -9.9 0.1 0.2
v -9.9 3.4 0.6
v -9.9 3.4 0.3
v -9.9 3.4 0.2
v -9.9 3.5 0.6
v -9.9 3.5 0.3
v -9.9 3.5 0.2
v -8.5 0 0.6
v -8.5 0 0.3
v -8.5 0 0.2
v -8.5 0.1 0.6
v -8.5 0.1 0.3
v -8.5 0.1 0.2
v -8.5 3.4 0.6
v -8.5 3.4 0.3
v -8.5 3.4 0.2
v -8.5 3.5 0.6
v -8.5 3.5 0.3
v -8.5 3.5 0.2
v -8.4 0.1 0.6
v -8.4 0.1 0.3
v -8.4 0.1 0.2
v -8.4 0.2 0.6
v -8.4 0.2 0.3
v -8.4 0.2 0.2
v -8.4 3.3 0.6
v -8.4 3.3 0.3
v -8.4 3.3 0.2
v -8.4 3.4 0.6
v -8.4 3.4 0.3
v -8.4 3.4 0.2
v -8.3 0.2 0.6
v -8.3 0.2 0.3
v -8.3 0.2 0.2
v -8.3 0.3 0.6
v -8.3 0.3 0.3
v -8.3 0.3 0.2
v -8.3 3.2 0.6
v -8.3 3.2 0.3
v -8.3 3.2 0.2
v -8.3 3.3 0.6
v -8.3 3.3 0.3
v -8.3 3.3 0.2
v -8.2 0.3 0.6
v -8.2 0.3 0.3
v -8.2 0.3 0.2
v -8.2 3.2 0.6
v -8.2 3.2 0.3
v -8.2 3.2 0.2
v -10.2 0.3 0.6
v -10.2 3.2 0.6
v -10.1 0.2 0.6
v -10.1 0.3 0.6
v -10.1 3.2 0.6
v -10.1 3.3 0.6
v -10 0.1 0.6
v -10 0.2 0.6
v -10 3.3 0.6
v -10 3.4 0.6
v -9.9 0 0.6
v -9.9 0.1 0.6
v -9.9 3.4 0.6
v -9.9 3.5 0.6
v -8.5 0 0.6
v -8.5 0.1 0.6
v -8.5 3.4 0.6
v -8.5 3.5 0.6
v -8.4 0.1 0.6
v -8.4 0.2 0.6
v -8.4 3.3 0.6
v -8.4 3.4 0.6
v -8.3 0.2 0.6
v -8.3 0.3 0.6
v -8.3 3.2 0.6
v -8.3 3.3 0.6
v -8.2 0.3 0.6
v -8.2 3.2 0.6
v -10.2 0.3 0.2
v -10.2 3.2 0.2
v -10.1 0.2 0.2
v -10.1 0.3 0.2
v -10.1 3.2 0.2
v -10.1 3.3 0.2
v -10 0.1 0.2
v -10 0.2 0.2
v -10 0.3 0.2
v -10 3.2 0.2
v -10 3.3 0.2
v -10 3.4 0.2
v -9.9 0 0.2
v -9.9 0.1 0.2
v -9.9 0.2 0.2
v -9.9 1.1 0.2
v -9.9 2.8 0.2
v -9.9 3.3 0.2
v -9.9 3.4 0.2
v -9.9 3.5 0.2
v -9.8 1.2 0.2
v -9.8 2.7 0.2
v -9.7 1.2 0.2
v -9.7 1.3 0.2
v -9.6 1.3 0.2
v -9.6 1.4 0.2
v -9.5 0.5 0.2
v -9.5 0.9 0.2
v -9.5 1.4 0.2
v -9.5 1.5 0.2
v -9.4 0.4 0.2
v -9.4 0.5 0.2
v -9.4 0.9 0.2
v -9.4 1 0.2
v -9.4 1.5 0.2
v -9.4 1.8 0.2
v -9.3 1.8 0.2
v -9.3 2.1 0.2
v -9.3 3 0.2
v -9.3 3.2 0.2
v -9.2 2.1 0.2
v -9.2 2.4 0.2
v -9.1 2.4 0.2
v -9.1 2.7 0.2
v -9.1 3 0.2
v -9.1 3.2 0.2
v -9 0.4 0.2
v -9 0.5 0.2
v -9 0.9 0.2
v -9 1 0.2
v -8.9 0.5 0.2
v -8.9 0.9 0.2
v -8.6 1.2 0.2
v -8.6 2.7 0.2
v -8.5 0 0.2
v -8.5 0.1 0.2
v -8.5 0.2 0.2
v -8.5 1.1 0.2
v -8.5 2.8 0.2
v -8.5 3.3 0.2
v -8.5 3.4 0.2
v -8.5 3.5 0.2
v -8.4 0.1 0.2
v -8.4 0.2 0.2
v -8.4 0.3 0.2
v -8.4 3.2 0.2
v -8.4 3.3 0.2
v -8.4 3.4 0.2
v -8.3 0.2 0.2
v -8.3 0.3 0.2
v -8.3 3.2 0.2
v -8.3 3.3 0.2
v -8.2 0.3 0.2
v -8.2 3.2 0.2
v -9.9 0 0.6
v -8.5 0 0.6
v -9.9 0 0.3
v -8.5 0 0.3
v -9.9 0 0.2
v -8.5 0 0.2
v -10 0.1 0.6
v -9.9 0.1 0.6
v -8.5 0.1 0.6
v -8.4 0.1 0.6
v -10 0.1 0.3
v -9.9 0.1 0.3
v -8.5 0.1 0.3
v -8.4 0.1 0.3
v -10 0.1 0.2
v -9.9 0.1 0.2
v -8.5 0.1 0.2
v -8.4 0.1 0.2
v -10.1 0.2 0.6
v -10 0.2 0.6
v -8.4 0.2 0.6
v -8.3 0.2 0.6
v -10.1 0.2 0.3
v -10 0.2 0.3
v -8.4 0.2 0.3
v -8.3 0.2 0.3
v -10.1 0.2 0.2
v -10 0.2 0.2
v -8.4 0.2 0.2
v -8.3 0.2 0.2
v -10.2 0.3 0.6
v -10.1 0.3 0.6
v -8.3 0.3 0.6
v -8.2 0.3 0.6
v -10.2 0.3 0.3
v -10.1 0.3 0.3
v -8.3 0.3 0.3
v -8.2 0.3 0.3
v -10.2 0.3 0.2
v -10.1 0.3 0.2
v -8.3 0.3 0.2
v -8.2 0.3 0.2
v -10.2 3.2 0.6
v -10.1 3.2 0.6
v -8.3 3.2 0.6
v -8.2 3.2 0.6
v -10.2 3.2 0.3
v -10.1 3.2 0.3
v -8.3 3.2 0.3
v -8.2 3.2 0.3
v -10.2 3.2 0.2
v -10.1 3.2 0.2
v -8.3 3.2 0.2
v -8.2 3.2 0.2
v -10.1 3.3 0.6
v -10 3.3 0.6
v -8.4 3.3 0.6
v -8.3 3.3 0.6
v -10.1 3.3 0.3
v -10 3.3 0.3
v -8.4 3.3 0.3
v -8.3 3.3 0.3
v -10.1 3.3 0.2
v -10 3.3 0.2
v -8.4 3.3 0.2
v -8.3 3.3 0.2
v -10 3.4 0.6
v -9.9 3.4 0.6
v -8.5 3.4 0.6
v -8.4 3.4 0.6
v -10 3.4 0.3
v -9.9 3.4 0.3
v -8.5 3.4 0.3
v -8.4 3.4 0.3
v -10 3.4 0.2
v -9.9 3.4 0.2
v -8.5 3.4 0.2
v -8.4 3.4 0.2
v -9.9 3.5 0.6
v -8.5 3.5 0.6
v -9.9 3.5 0.3
v -8.5 3.5 0.3
v -9.9 3.5 0.2
v -8.5 3.5 0.2

# faces
f 4/4/1 2/4/1 1/4/1
f 5/5/1 3/5/1 2/5/1
f 5/4/1 2/4/1 4/4/1
f 6/5/1 3/5/1 5/5/1
f 10/4/1 8/4/1 7/4/1
f 11/5/1 9/5/1 8/5/1
f 11/4/1 8/4/1 10/4/1
f 12/5/1 9/5/1 11/5/1
f 16/4/1 14/4/1 13/4/1
f 17/5/1 15/5/1 14/5/1
f 17/4/1 14/4/1 16/4/1
f 18/5/1 15/5/1 17/5/1
f 22/4/1 20/4/1 19/4/1
f 23/5/1 21/5/1 20/5/1
f 23/4/1 20/4/1 22/4/1
f 24/5/1 21/5/1 23/5/1
f 28/4/1 26/4/1 25/4/1
f 29/5/1 27/5/1 26/5/1
f 29/4/1 26/4/1 28/4/1
f 30/5/1 27/5/1 29/5/1
f 34/4/1 32/4/1 31/4/1
f 35/5/1 33/5/1 32/5/1
f 35/4/1 32/4/1 34/4/1
f 36/5/1 33/5/1 35/5/1
f 40/4/1 38/4/1 37/4/1
f 41/5/1 39/5/1 38/5/1
f 41/4/1 38/4/1 40/4/1
f 42/5/1 39/5/1 41/5/1
f 43/4/2 44/4/2 46/4/2
f 44/5/2 45/5/2 47/5/2
f 46/4/2 44/4/2 47/4/2
f 47/5/2 45/5/2 48/5/2
f 49/4/2 50/4/2 52/4/2
f 50/5/2 51/5/2 53/5/2
f 52/4/2 50/4/2 53/4/2
f 53/5/2 51/5/2 54/5/2
f 55/4/2 56/4/2 58/4/2
f 56/5/2 57/5/2 59/5/2
f 58/4/2 56/4/2 59/4/2
f 59/5/2 57/5/2 60/5/2
f 61/4/2 62/4/2 64/4/2
f 62/5/2 63/5/2 65/5/2
f 64/4/2 62/4/2 65/4/2
f 65/5/2 63/5/2 66/5/2
f 67/4/2 68/4/2 70/4/2
f 68/5/2 69/5/2 71/5/2
f 70/4/2 68/4/2 71/4/2
f 71/5/2 69/5/2 72/5/2
f 73/4/2 74/4/2 76/4/2
f 74/5/2 75/5/2 77/5/2
f 76/4/2 74/4/2 77/4/2
f 77/5/2 75/5/2 78/5/2
f 79/4/2 80/4/2 82/4/2
f 80/5/2 81/5/2 83/5/2
f 82/4/2 80/4/2 83/4/2
f 83/5/2 81/5/2 84/5/2
f 88/4/3 86/4/3 85/4/3
f 89/4/3 86/4/3 88/4/3
f 92/4/3 88/4/3 87/4/3
f 92/4/3 90/4/3 89/4/3
f 92/4/3 89/4/3 88/4/3
f 93/4/3 90/4/3 92/4/3
f 96/4/3 92/4/3 91/4/3
f 96/4/3 94/4/3 93/4/3
f 96/4/3 93/4/3 92/4/3
f 97/4/3 94/4/3 96/4/3
f 99/4/3 96/4/3 95/4/3
f 99/4/3 98/4/3 97/4/3
f 99/4/3 97/4/3 96/4/3
f 100/4/3 98/4/3 99/4/3
f 101/4/3 98/4/3 100/4/3
f 102/4/3 98/4/3 101/4/3
f 103/4/3 101/4/3 100/4/3
f 104/4/3 101/4/3 103/4/3
f 105/4/3 101/4/3 104/4/3
f 106/4/3 101/4/3 105/4/3
f 107/4/3 105/4/3 104/4/3
f 108/4/3 105/4/3 107/4/3
f 109/4/3 105/4/3 108/4/3
f 110/4/3 105/4/3 109/4/3
f 111/4/3 109/4/3 108/4/3
f 112/4/3 109/4/3 111/4/3
f 113/5/4 114/5/4 116/5/4
f 116/5/4 114/5/4 117/5/4
f 115/5/4 116/5/4 120/5/4
f 116/4/4 117/4/4 121/4/4
f 120/5/4 116/5/4 121/5/4
f 117/5/4 118/5/4 122/5/4
f 121/4/4 117/4/4 122/4/4
f 122/5/4 118/5/4 123/5/4
f 119/5/4 120/5/4 126/5/4
f 120/4/4 121/4/4 127/4/4
f 121/4/4 122/4/4 127/4/4
f 126/5/4 120/5/4 127/5/4
f 122/4/4 123/4/4 127/4/4
f 127/4/4 123/4/4 128/4/4
f 128/4/4 123/4/4 129/4/4
f 123/5/4 124/5/4 130/5/4
f 129/4/4 123/4/4 130/4/4
f 130/5/4 124/5/4 131/5/4
f 128/5/4 129/5/4 133/5/4
f 133/5/4 129/5/4 134/5/4
f 128/5/4 133/5/4 135/5/4
f 133/2/4 134/2/4 135/2/4
f 135/2/4 134/2/4 136/2/4
f 135/1/4 136/1/4 137/1/4
f 136/2/4 134/2/4 137/2/4
f 137/2/4 134/2/4 138/2/4
f 126/4/4 127/4/4 139/4/4
f 127/4/4 128/4/4 139/4/4
f 139/4/4 128/4/4 140/4/4
f 138/2/4 134/2/4 141/2/4
f 137/1/4 138/1/4 141/1/4
f 141/2/4 134/2/4 142/2/4
f 126/4/4 139/4/4 143/4/4
f 139/5/4 140/5/4 144/5/4
f 143/4/4 139/4/4 144/4/4
f 140/4/4 128/4/4 145/4/4
f 144/5/4 140/5/4 145/5/4
f 145/4/4 128/4/4 146/4/4
f 142/2/4 134/2/4 147/2/4
f 141/1/4 142/1/4 147/1/4
f 147/2/4 134/2/4 148/2/4
f 147/1/4 148/1/4 149/1/4
f 148/2/4 134/2/4 149/2/4
f 149/2/4 134/2/4 150/2/4
f 129/4/4 130/4/4 151/4/4
f 130/4/4 131/4/4 151/4/4
f 151/4/4 131/4/4 152/4/4
f 150/2/4 134/2/4 153/2/4
f 149/1/4 150/1/4 153/1/4
f 153/2/4 134/2/4 154/2/4
f 153/1/4 154/1/4 155/1/4
f 154/2/4 134/2/4 155/2/4
f 134/5/4 129/5/4 156/5/4
f 155/2/4 134/2/4 156/2/4
f 151/5/4 152/5/4 157/5/4
f 129/4/4 151/4/4 157/4/4
f 152/4/4 131/4/4 158/4/4
f 157/5/4 152/5/4 158/5/4
f 143/5/4 144/5/4 159/5/4
f 126/4/4 143/4/4 159/4/4
f 144/3/4 145/3/4 160/3/4
f 159/5/4 144/5/4 160/5/4
f 145/5/4 146/5/4 161/5/4
f 160/3/4 145/3/4 161/3/4
f 146/4/4 128/4/4 162/4/4
f 161/5/4 146/5/4 162/5/4
f 160/5/4 161/5/4 163/5/4
f 159/4/4 160/4/4 163/4/4
f 161/4/4 162/4/4 164/4/4
f 163/5/4 161/5/4 164/5/4
f 153/1/4 155/1/4 165/1/4
f 128/5/4 135/5/4 165/5/4
f 135/1/4 137/1/4 165/1/4
f 149/1/4 153/1/4 165/1/4
f 155/1/4 156/1/4 165/1/4
f 147/1/4 149/1/4 165/1/4
f 141/1/4 147/1/4 165/1/4
f 137/1/4 141/1/4 165/1/4
f 156/5/4 129/5/4 166/5/4
f 165/1/4 156/1/4 166/1/4
f 125/5/4 126/5/4 167/5/4
f 163/4/4 164/4/4 168/4/4
f 167/5/4 126/5/4 168/5/4
f 126/4/4 159/4/4 168/4/4
f 159/4/4 163/4/4 168/4/4
f 168/4/4 164/4/4 169/4/4
f 128/5/4 165/5/4 170/5/4
f 169/4/4 164/4/4 170/4/4
f 164/4/4 162/4/4 170/4/4
f 165/5/4 166/5/4 170/5/4
f 162/4/4 128/4/4 170/4/4
f 166/5/4 129/5/4 171/5/4
f 170/5/4 166/5/4 171/5/4
f 157/4/4 158/4/4 171/4/4
f 129/4/4 157/4/4 171/4/4
f 158/4/4 131/4/4 172/4/4
f 171/4/4 158/4/4 172/4/4
f 131/5/4 132/5/4 173/5/4
f 172/4/4 131/4/4 173/4/4
f 173/5/4 132/5/4 174/5/4
f 168/5/4 169/5/4 175/5/4
f 169/4/4 170/4/4 176/4/4
f 175/5/4 169/5/4 176/5/4
f 171/4/4 172/4/4 176/4/4
f 170/4/4 171/4/4 176/4/4
f 176/4/4 172/4/4 177/4/4
f 177/4/4 172/4/4 178/4/4
f 172/5/4 173/5/4 179/5/4
f 178/4/4 172/4/4 179/4/4
f 179/5/4 173/5/4 180/5/4
f 176/5/4 177/5/4 181/5/4
f 177/4/4 178/4/4 182/4/4
f 181/5/4 177/5/4 182/5/4
f 178/5/4 179/5/4 183/5/4
f 182/4/4 178/4/4 183/4/4
f 183/5/4 179/5/4 184/5/4
f 182/5/4 183/5/4 185/5/4
f 185/5/4 183/5/4 186/5/4
f 189/4/5 188/4/5 187/4/5
f 190/4/5 188/4/5 189/4/5
f 191/5/5 190/5/5 189/5/5
f 192/5/5 190/5/5 191/5/5
f 197/4/5 194/4/5 193/4/5
f 198/4/5 194/4/5 197/4/5
f 199/4/5 196/4/5 195/4/5
f 200/4/5 196/4/5 199/4/5
f 201/5/5 198/5/5 197/5/5
f 202/5/5 198/5/5 201/5/5
f 203/5/5 200/5/5 199/5/5
f 204/5/5 200/5/5 203/5/5
f 209/4/5 206/4/5 205/4/5
f 210/4/5 206/4/5 209/4/5
f 211/4/5 208/4/5 207/4/5
f 212/4/5 208/4/5 211/4/5
f 213/5/5 210/5/5 209/5/5
f 214/5/5 210/5/5 213/5/5
f 215/5/5 212/5/5 211/5/5
f 216/5/5 212/5/5 215/5/5
f 221/4/5 218/4/5 217/4/5
f 222/4/5 218/4/5 221/4/5
f 223/4/5 220/4/5 219/4/5
f 224/4/5 220/4/5 223/4/5
f 225/5/5 222/5/5 221/5/5
f 226/5/5 222/5/5 225/5/5
f 227/5/5 224/5/5 223/5/5
f 228/5/5 224/5/5 227/5/5
f 229/4/6 230/4/6 233/4/6
f 233/4/6 230/4/6 234/4/6
f 231/4/6 232/4/6 235/4/6
f 235/4/6 232/4/6 236/4/6
f 233/5/6 234/5/6 237/5/6
f 237/5/6 234/5/6 238/5/6
f 235/5/6 236/5/6 239/5/6
f 239/5/6 236/5/6 240/5/6
f 241/4/6 242/4/6 245/4/6
f 245/4/6 242/4/6 246/4/6
f 243/4/6 244/4/6 247/4/6
f 247/4/6 244/4/6 248/4/6
f 245/5/6 246/5/6 249/5/6
f 249/5/6 246/5/6 250/5/6
f 247/5/6 248/5/6 251/5/6
f 251/5/6 248/5/6 252/5/6
f 253/4/6 254/4/6 257/4/6
f 257/4/6 254/4/6 258/4/6
f 255/4/6 256/4/6 259/4/6
f 259/4/6 256/4/6 260/4/6
f 257/5/6 258/5/6 261/5/6
f 261/5/6 258/5/6 262/5/6
f 259/5/6 260/5/6 263/5/6
f 263/5/6 260/5/6 264/5/6
f 265/4/6 266/4/6 267/4/6
f 267/4/6 266/4/6 268/4/6
f 267/5/6 268/5/6 269/5/6
f 269/5/6 268/5/6 270/5/6
