# MagicaVoxel @ Ephtracy

# group
o 

# material
mtllib Faster-0.mtl
usemtl palette

# normals
vn -1 0 0
vn 1 0 0
vn 0 0 1
vn 0 0 -1
vn 0 -1 0
vn 0 1 0

# texcoords
vt 0.916016 0.5
vt 0.978516 0.5
vt 0.994141 0.5

# verts
v -0.8 0 0.7
v -0.8 0 0.3
v -0.8 3.6 0.7
v -0.8 3.6 0.3
v 5.96046e-08 0.7 0.3
v 5.96046e-08 0.7 0.2
v 5.96046e-08 1 0.3
v 5.96046e-08 1 0.2
v 0.3 0.7 0.3
v 0.3 0.7 0.2
v 0.3 1 0.3
v 0.3 1 0.2
v 1 0 0.7
v 1 0 0.3
v 1 3.6 0.7
v 1 3.6 0.3
v -0.8 0 0.7
v -0.8 3.6 0.7
v 1 0 0.7
v 1 3.6 0.7
v -0.8 0 0.3
v -0.8 3.6 0.3
v -0.2 1.7 0.3
v -0.2 2 0.3
v -0.2 2.8 0.3
v -0.2 3.1 0.3
v -0.1 1.6 0.3
v -0.1 1.7 0.3
v -0.1 2 0.3
v -0.1 2.1 0.3
v -0.1 2.7 0.3
v -0.1 2.8 0.3
v -0.1 3.1 0.3
v -0.1 3.2 0.3
v 5.96046e-08 0.7 0.3
v 5.96046e-08 1 0.3
v 5.96046e-08 1.5 0.3
v 5.96046e-08 1.6 0.3
v 5.96046e-08 2.1 0.3
v 5.96046e-08 2.2 0.3
v 5.96046e-08 2.6 0.3
v 5.96046e-08 2.7 0.3
v 5.96046e-08 3.2 0.3
v 5.96046e-08 3.3 0.3
v 0.3 0.7 0.3
v 0.3 1 0.3
v 0.3 1.5 0.3
v 0.3 1.6 0.3
v 0.3 2.1 0.3
v 0.3 2.2 0.3
v 0.3 2.6 0.3
v 0.3 2.7 0.3
v 0.3 3.2 0.3
v 0.3 3.3 0.3
v 0.4 1.6 0.3
v 0.4 1.7 0.3
v 0.4 2 0.3
v 0.4 2.1 0.3
v 0.4 2.7 0.3
v 0.4 2.8 0.3
v 0.4 3.1 0.3
v 0.4 3.2 0.3
v 0.5 1.7 0.3
v 0.5 2 0.3
v 0.5 2.8 0.3
v 0.5 3.1 0.3
v 1 0 0.3
v 1 3.6 0.3
v 5.96046e-08 0.7 0.2
v 5.96046e-08 1 0.2
v 0.3 0.7 0.2
v 0.3 1 0.2
v -0.8 0 0.7
v 1 0 0.7
v -0.8 0 0.3
v 1 0 0.3
v 5.96046e-08 0.7 0.3
v 0.3 0.7 0.3
v 5.96046e-08 0.7 0.2
v 0.3 0.7 0.2
v 5.96046e-08 1 0.3
v 0.3 1 0.3
v 5.96046e-08 1 0.2
v 0.3 1 0.2
v -0.8 3.6 0.7
v 1 3.6 0.7
v -0.8 3.6 0.3
v 1 3.6 0.3

# faces
f 3/3/1 2/3/1 1/3/1
f 4/3/1 2/3/1 3/3/1
f 7/2/1 6/2/1 5/2/1
f 8/2/1 6/2/1 7/2/1
f 9/2/2 10/2/2 11/2/2
f 11/2/2 10/2/2 12/2/2
f 13/3/2 14/3/2 15/3/2
f 15/3/2 14/3/2 16/3/2
f 19/3/3 18/3/3 17/3/3
f 20/3/3 18/3/3 19/3/3
f 21/3/4 22/3/4 23/3/4
f 23/3/4 22/3/4 24/3/4
f 24/3/4 22/3/4 25/3/4
f 25/3/4 22/3/4 26/3/4
f 21/3/4 23/3/4 27/3/4
f 23/1/4 24/1/4 28/1/4
f 27/3/4 23/3/4 28/3/4
f 24/3/4 25/3/4 29/3/4
f 28/1/4 24/1/4 29/1/4
f 29/3/4 25/3/4 30/3/4
f 30/3/4 25/3/4 31/3/4
f 25/1/4 26/1/4 32/1/4
f 31/3/4 25/3/4 32/3/4
f 26/3/4 22/3/4 33/3/4
f 32/1/4 26/1/4 33/1/4
f 33/3/4 22/3/4 34/3/4
f 21/3/4 27/3/4 35/3/4
f 35/3/4 27/3/4 36/3/4
f 36/3/4 27/3/4 37/3/4
f 27/1/4 28/1/4 38/1/4
f 37/3/4 27/3/4 38/3/4
f 28/1/4 29/1/4 38/1/4
f 29/1/4 30/1/4 38/1/4
f 30/3/4 31/3/4 39/3/4
f 38/1/4 30/1/4 39/1/4
f 39/3/4 31/3/4 40/3/4
f 40/3/4 31/3/4 41/3/4
f 31/1/4 32/1/4 42/1/4
f 41/3/4 31/3/4 42/3/4
f 32/1/4 33/1/4 42/1/4
f 33/1/4 34/1/4 42/1/4
f 34/3/4 22/3/4 43/3/4
f 42/1/4 34/1/4 43/1/4
f 43/3/4 22/3/4 44/3/4
f 21/3/4 35/3/4 45/3/4
f 36/3/4 37/3/4 46/3/4
f 37/1/4 38/1/4 47/1/4
f 39/1/4 40/1/4 47/1/4
f 46/3/4 37/3/4 47/3/4
f 38/1/4 39/1/4 47/1/4
f 47/1/4 40/1/4 48/1/4
f 48/1/4 40/1/4 49/1/4
f 40/3/4 41/3/4 50/3/4
f 49/1/4 40/1/4 50/1/4
f 41/1/4 42/1/4 51/1/4
f 50/3/4 41/3/4 51/3/4
f 43/1/4 44/1/4 51/1/4
f 42/1/4 43/1/4 51/1/4
f 51/1/4 44/1/4 52/1/4
f 52/1/4 44/1/4 53/1/4
f 44/3/4 22/3/4 54/3/4
f 53/1/4 44/1/4 54/1/4
f 48/1/4 49/1/4 55/1/4
f 45/3/4 46/3/4 55/3/4
f 47/3/4 48/3/4 55/3/4
f 46/3/4 47/3/4 55/3/4
f 55/1/4 49/1/4 56/1/4
f 56/1/4 49/1/4 57/1/4
f 49/3/4 50/3/4 58/3/4
f 57/1/4 49/1/4 58/1/4
f 51/3/4 52/3/4 58/3/4
f 50/3/4 51/3/4 58/3/4
f 52/1/4 53/1/4 59/1/4
f 58/3/4 52/3/4 59/3/4
f 59/1/4 53/1/4 60/1/4
f 60/1/4 53/1/4 61/1/4
f 53/3/4 54/3/4 62/3/4
f 61/1/4 53/1/4 62/1/4
f 56/1/4 57/1/4 63/1/4
f 55/3/4 56/3/4 63/3/4
f 57/3/4 58/3/4 64/3/4
f 63/1/4 57/1/4 64/1/4
f 58/3/4 59/3/4 64/3/4
f 59/3/4 60/3/4 64/3/4
f 60/1/4 61/1/4 65/1/4
f 64/3/4 60/3/4 65/3/4
f 61/3/4 62/3/4 66/3/4
f 65/1/4 61/1/4 66/1/4
f 21/3/4 45/3/4 67/3/4
f 63/3/4 64/3/4 67/3/4
f 65/3/4 66/3/4 67/3/4
f 45/3/4 55/3/4 67/3/4
f 55/3/4 63/3/4 67/3/4
f 64/3/4 65/3/4 67/3/4
f 54/3/4 22/3/4 68/3/4
f 67/3/4 66/3/4 68/3/4
f 62/3/4 54/3/4 68/3/4
f 66/3/4 62/3/4 68/3/4
f 69/2/4 70/2/4 71/2/4
f 71/2/4 70/2/4 72/2/4
f 75/3/5 74/3/5 73/3/5
f 76/3/5 74/3/5 75/3/5
f 79/2/5 78/2/5 77/2/5
f 80/2/5 78/2/5 79/2/5
f 81/2/6 82/2/6 83/2/6
f 83/2/6 82/2/6 84/2/6
f 85/3/6 86/3/6 87/3/6
f 87/3/6 86/3/6 88/3/6
