# MagicaVoxel @ Ephtracy

# group
o 

# material
mtllib ModelsFedaHome-0.mtl
usemtl palette

# normals
vn -1 0 0
vn 1 0 0
vn 0 0 1
vn 0 0 -1
vn 0 -1 0
vn 0 1 0

# texcoords
vt 0.310547 0.5
vt 0.373047 0.5
vt 0.556641 0.5
vt 0.748047 0.5
vt 0.958984 0.5
vt 0.994141 0.5

# verts
v -1.7 0 8.7
v -1.7 0 7.7
v -1.7 0.2 8.7
v -1.7 0.2 8.3
v -1.7 3.3 8.3
v -1.7 3.3 7.7
v -1.6 3.3 8.3
v -1.6 3.3 7.7
v -1.6 3.4 8.3
v -1.6 3.4 7.7
v -0.2 0.2 8.3
v -0.2 0.2 8
v -0.2 0.9 8
v -0.2 1.5 8.3
v -0.2 1.5 8.2
v -0.2 1.8 8.3
v -0.2 1.8 8.2
v -0.2 3.2 8.3
v -0.2 3.2 8
v 1.5 0.2 8.3
v 1.5 0.2 8
v 1.5 0.2 7.9
v 1.5 0.2 7.7
v 1.5 0.9 8
v 1.5 0.9 7.9
v 1.5 3.2 8.3
v 1.5 3.2 8
v 1.5 3.2 7.9
v 1.5 3.2 7.7
v -1.5 0.2 8.3
v -1.5 0.2 8
v -1.5 0.2 7.9
v -1.5 0.2 7.7
v -1.5 0.9 8
v -1.5 0.9 7.9
v -1.5 3.2 8.3
v -1.5 3.2 8
v -1.5 3.2 7.9
v -1.5 3.2 7.7
v 0.2 0.2 8.3
v 0.2 0.2 8
v 0.2 0.9 8
v 0.2 1.5 8.3
v 0.2 1.5 8.2
v 0.2 1.8 8.3
v 0.2 1.8 8.2
v 0.2 3.2 8.3
v 0.2 3.2 8
v 1.6 3.3 8.3
v 1.6 3.3 7.7
v 1.6 3.4 8.3
v 1.6 3.4 7.7
v 1.7 0 8.7
v 1.7 0 7.7
v 1.7 0.2 8.7
v 1.7 0.2 8.3
v 1.7 3.3 8.3
v 1.7 3.3 7.7
v -1.7 0 8.7
v -1.7 0.2 8.7
v 1.7 0 8.7
v 1.7 0.2 8.7
v -1.7 0.2 8.3
v -1.7 3.3 8.3
v -1.6 3.3 8.3
v -1.6 3.4 8.3
v -1.5 0.2 8.3
v -1.5 3.2 8.3
v -0.2 0.2 8.3
v -0.2 1.5 8.3
v -0.2 1.8 8.3
v -0.2 3.2 8.3
v -0.0999999 1.5 8.3
v -0.0999999 1.8 8.3
v 0.1 1.5 8.3
v 0.1 1.8 8.3
v 0.2 0.2 8.3
v 0.2 1.5 8.3
v 0.2 1.8 8.3
v 0.2 3.2 8.3
v 1.5 0.2 8.3
v 1.5 3.2 8.3
v 1.6 3.3 8.3
v 1.6 3.4 8.3
v 1.7 0.2 8.3
v 1.7 3.3 8.3
v -1.5 0.2 8
v -1.5 0.9 8
v -1.5 3.2 8
v -1.4 2.2 8
v -1.4 2.3 8
v -1.4 2.4 8
v -1.4 2.5 8
v -1.4 2.6 8
v -1.4 2.7 8
v -1.4 2.8 8
v -1.4 2.9 8
v -1.3 2.2 8
v -1.3 2.3 8
v -1.3 2.4 8
v -1.3 2.5 8
v -1.3 2.6 8
v -1.3 2.7 8
v -1.3 2.8 8
v -1.3 2.9 8
v -1.2 2 8
v -1.2 2.1 8
v -1.2 2.2 8
v -1.2 2.9 8
v -1.2 3 8
v -1.2 3.1 8
v -1.1 2 8
v -1.1 2.1 8
v -1.1 3 8
v -1.1 3.1 8
v -1 2 8
v -1 2.1 8
v -1 3 8
v -1 3.1 8
v -0.9 2 8
v -0.9 2.1 8
v -0.9 3 8
v -0.9 3.1 8
v -0.8 2 8
v -0.8 2.1 8
v -0.8 3 8
v -0.8 3.1 8
v -0.7 2 8
v -0.7 2.1 8
v -0.7 3 8
v -0.7 3.1 8
v -0.6 2 8
v -0.6 2.1 8
v -0.6 3 8
v -0.6 3.1 8
v -0.5 2 8
v -0.5 2.1 8
v -0.5 2.2 8
v -0.5 2.9 8
v -0.5 3 8
v -0.5 3.1 8
v -0.4 2.2 8
v -0.4 2.3 8
v -0.4 2.4 8
v -0.4 2.5 8
v -0.4 2.6 8
v -0.4 2.7 8
v -0.4 2.8 8
v -0.4 2.9 8
v -0.3 2.2 8
v -0.3 2.3 8
v -0.3 2.4 8
v -0.3 2.5 8
v -0.3 2.6 8
v -0.3 2.7 8
v -0.3 2.8 8
v -0.3 2.9 8
v -0.2 0.2 8
v -0.2 0.9 8
v -0.2 3.2 8
v 0.2 0.2 8
v 0.2 0.9 8
v 0.2 3.2 8
v 0.4 1.6 8
v 0.4 1.7 8
v 0.5 0.9 8
v 0.5 1.6 8
v 0.5 1.7 8
v 0.5 1.8 8
v 0.6 1.3 8
v 0.6 1.5 8
v 0.6 1.8 8
v 0.6 1.9 8
v 0.7 1.9 8
v 0.7 2 8
v 0.8 0.9 8
v 0.8 1.1 8
v 0.8 1.3 8
v 0.8 1.5 8
v 0.8 2 8
v 0.8 2.1 8
v 0.9 0.9 8
v 0.9 1.1 8
v 1 1.3 8
v 1 1.5 8
v 1 2 8
v 1 2.1 8
v 1.1 1.9 8
v 1.1 2 8
v 1.2 1.3 8
v 1.2 1.5 8
v 1.2 1.8 8
v 1.2 1.9 8
v 1.3 0.9 8
v 1.3 1.6 8
v 1.3 1.7 8
v 1.3 1.8 8
v 1.4 1.6 8
v 1.4 1.7 8
v 1.5 0.2 8
v 1.5 0.9 8
v 1.5 3.2 8
v -1.5 0.2 7.9
v -1.5 0.9 7.9
v -1.5 3.2 7.9
v -1.4 2.2 7.9
v -1.4 2.3 7.9
v -1.4 2.4 7.9
v -1.4 2.5 7.9
v -1.4 2.6 7.9
v -1.4 2.7 7.9
v -1.4 2.8 7.9
v -1.4 2.9 7.9
v -1.3 2.2 7.9
v -1.3 2.3 7.9
v -1.3 2.4 7.9
v -1.3 2.5 7.9
v -1.3 2.6 7.9
v -1.3 2.7 7.9
v -1.3 2.8 7.9
v -1.3 2.9 7.9
v -1.2 2 7.9
v -1.2 2.1 7.9
v -1.2 2.2 7.9
v -1.2 2.9 7.9
v -1.2 3 7.9
v -1.2 3.1 7.9
v -1.1 2 7.9
v -1.1 2.1 7.9
v -1.1 3 7.9
v -1.1 3.1 7.9
v -1 2 7.9
v -1 2.1 7.9
v -1 3 7.9
v -1 3.1 7.9
v -0.9 2 7.9
v -0.9 2.1 7.9
v -0.9 3 7.9
v -0.9 3.1 7.9
v -0.8 2 7.9
v -0.8 2.1 7.9
v -0.8 3 7.9
v -0.8 3.1 7.9
v -0.7 2 7.9
v -0.7 2.1 7.9
v -0.7 3 7.9
v -0.7 3.1 7.9
v -0.6 2 7.9
v -0.6 2.1 7.9
v -0.6 3 7.9
v -0.6 3.1 7.9
v -0.5 2 7.9
v -0.5 2.1 7.9
v -0.5 2.2 7.9
v -0.5 2.9 7.9
v -0.5 3 7.9
v -0.5 3.1 7.9
v -0.4 2.2 7.9
v -0.4 2.3 7.9
v -0.4 2.4 7.9
v -0.4 2.5 7.9
v -0.4 2.6 7.9
v -0.4 2.7 7.9
v -0.4 2.8 7.9
v -0.4 2.9 7.9
v -0.3 2.2 7.9
v -0.3 2.3 7.9
v -0.3 2.4 7.9
v -0.3 2.5 7.9
v -0.3 2.6 7.9
v -0.3 2.7 7.9
v -0.3 2.8 7.9
v -0.3 2.9 7.9
v -0.2 0.2 7.9
v -0.2 0.9 7.9
v 0.2 0.2 7.9
v 0.2 0.9 7.9
v 0.4 1.6 7.9
v 0.4 1.7 7.9
v 0.5 0.9 7.9
v 0.5 1.6 7.9
v 0.5 1.7 7.9
v 0.5 1.8 7.9
v 0.6 1.3 7.9
v 0.6 1.5 7.9
v 0.6 1.8 7.9
v 0.6 1.9 7.9
v 0.7 1.9 7.9
v 0.7 2 7.9
v 0.8 0.9 7.9
v 0.8 1.1 7.9
v 0.8 1.3 7.9
v 0.8 1.5 7.9
v 0.8 2 7.9
v 0.8 2.1 7.9
v 0.9 0.9 7.9
v 0.9 1.1 7.9
v 1 1.3 7.9
v 1 1.5 7.9
v 1 2 7.9
v 1 2.1 7.9
v 1.1 1.9 7.9
v 1.1 2 7.9
v 1.2 1.3 7.9
v 1.2 1.5 7.9
v 1.2 1.8 7.9
v 1.2 1.9 7.9
v 1.3 0.9 7.9
v 1.3 1.6 7.9
v 1.3 1.7 7.9
v 1.3 1.8 7.9
v 1.4 1.6 7.9
v 1.4 1.7 7.9
v 1.5 0.2 7.9
v 1.5 0.9 7.9
v 1.5 3.2 7.9
v -1.7 0 7.7
v -1.7 3.3 7.7
v -1.6 3.3 7.7
v -1.6 3.4 7.7
v -1.5 0.2 7.7
v -1.5 3.2 7.7
v 1.5 0.2 7.7
v 1.5 3.2 7.7
v 1.6 3.3 7.7
v 1.6 3.4 7.7
v 1.7 0 7.7
v 1.7 3.3 7.7
v -1.7 0 8.7
v 1.7 0 8.7
v -1.7 0 7.7
v 1.7 0 7.7
v -1.5 3.2 8.3
v -0.2 3.2 8.3
v 0.2 3.2 8.3
v 1.5 3.2 8.3
v -1.5 3.2 8
v -0.2 3.2 8
v 0.2 3.2 8
v 1.5 3.2 8
v -1.5 3.2 7.9
v 1.5 3.2 7.9
v -1.5 3.2 7.7
v 1.5 3.2 7.7
v -1.7 0.2 8.7
v 1.7 0.2 8.7
v -1.7 0.2 8.3
v -1.5 0.2 8.3
v -0.2 0.2 8.3
v 0.2 0.2 8.3
v 1.5 0.2 8.3
v 1.7 0.2 8.3
v -1.5 0.2 8
v -0.2 0.2 8
v 0.2 0.2 8
v 1.5 0.2 8
v -1.5 0.2 7.9
v -0.2 0.2 7.9
v 0.2 0.2 7.9
v 1.5 0.2 7.9
v -1.5 0.2 7.7
v 1.5 0.2 7.7
v -1.7 3.3 8.3
v -1.6 3.3 8.3
v 1.6 3.3 8.3
v 1.7 3.3 8.3
v -1.7 3.3 7.7
v -1.6 3.3 7.7
v 1.6 3.3 7.7
v 1.7 3.3 7.7
v -1.6 3.4 8.3
v 1.6 3.4 8.3
v -1.6 3.4 7.7
v 1.6 3.4 7.7

# faces
f 3/5/1 2/5/1 1/5/1
f 4/5/1 2/5/1 3/5/1
f 5/5/1 2/5/1 4/5/1
f 6/5/1 2/5/1 5/5/1
f 9/5/1 8/5/1 7/5/1
f 10/5/1 8/5/1 9/5/1
f 13/5/1 12/5/1 11/5/1
f 14/5/1 13/5/1 11/5/1
f 15/5/1 13/5/1 14/5/1
f 16/6/1 15/6/1 14/6/1
f 17/5/1 13/5/1 15/5/1
f 17/6/1 15/6/1 16/6/1
f 18/5/1 17/5/1 16/5/1
f 19/5/1 13/5/1 17/5/1
f 19/5/1 17/5/1 18/5/1
f 24/5/1 21/5/1 20/5/1
f 25/5/1 23/5/1 22/5/1
f 26/5/1 24/5/1 20/5/1
f 27/5/1 24/5/1 26/5/1
f 28/5/1 23/5/1 25/5/1
f 29/5/1 23/5/1 28/5/1
f 30/5/2 31/5/2 34/5/2
f 32/5/2 33/5/2 35/5/2
f 30/5/2 34/5/2 36/5/2
f 36/5/2 34/5/2 37/5/2
f 35/5/2 33/5/2 38/5/2
f 38/5/2 33/5/2 39/5/2
f 40/5/2 41/5/2 42/5/2
f 40/5/2 42/5/2 43/5/2
f 43/5/2 42/5/2 44/5/2
f 43/6/2 44/6/2 45/6/2
f 44/5/2 42/5/2 46/5/2
f 45/6/2 44/6/2 46/6/2
f 45/5/2 46/5/2 47/5/2
f 46/5/2 42/5/2 48/5/2
f 47/5/2 46/5/2 48/5/2
f 49/5/2 50/5/2 51/5/2
f 51/5/2 50/5/2 52/5/2
f 53/5/2 54/5/2 55/5/2
f 55/5/2 54/5/2 56/5/2
f 56/5/2 54/5/2 57/5/2
f 57/5/2 54/5/2 58/5/2
f 61/5/3 60/5/3 59/5/3
f 62/5/3 60/5/3 61/5/3
f 65/5/3 64/5/3 63/5/3
f 67/5/3 65/5/3 63/5/3
f 67/5/3 66/5/3 65/5/3
f 68/5/3 66/5/3 67/5/3
f 72/5/3 66/5/3 68/5/3
f 73/6/3 71/6/3 70/6/3
f 73/5/3 70/5/3 69/5/3
f 74/5/3 72/5/3 71/5/3
f 74/6/3 71/6/3 73/6/3
f 75/5/3 73/5/3 69/5/3
f 75/5/3 74/5/3 73/5/3
f 76/5/3 72/5/3 74/5/3
f 76/5/3 74/5/3 75/5/3
f 77/5/3 75/5/3 69/5/3
f 78/6/3 76/6/3 75/6/3
f 78/5/3 75/5/3 77/5/3
f 79/5/3 72/5/3 76/5/3
f 79/6/3 76/6/3 78/6/3
f 80/5/3 66/5/3 72/5/3
f 80/5/3 72/5/3 79/5/3
f 82/5/3 66/5/3 80/5/3
f 83/5/3 66/5/3 82/5/3
f 83/5/3 82/5/3 81/5/3
f 84/5/3 66/5/3 83/5/3
f 85/5/3 83/5/3 81/5/3
f 86/5/3 83/5/3 85/5/3
f 90/4/3 89/4/3 88/4/3
f 91/4/3 89/4/3 90/4/3
f 92/4/3 89/4/3 91/4/3
f 93/4/3 89/4/3 92/4/3
f 94/4/3 89/4/3 93/4/3
f 95/4/3 89/4/3 94/4/3
f 96/4/3 89/4/3 95/4/3
f 97/4/3 89/4/3 96/4/3
f 98/4/3 90/4/3 88/4/3
f 98/2/3 91/2/3 90/2/3
f 99/4/3 92/4/3 91/4/3
f 99/2/3 91/2/3 98/2/3
f 100/2/3 93/2/3 92/2/3
f 100/4/3 92/4/3 99/4/3
f 101/4/3 94/4/3 93/4/3
f 101/2/3 93/2/3 100/2/3
f 102/2/3 95/2/3 94/2/3
f 102/4/3 94/4/3 101/4/3
f 103/4/3 96/4/3 95/4/3
f 103/2/3 95/2/3 102/2/3
f 104/2/3 97/2/3 96/2/3
f 104/4/3 96/4/3 103/4/3
f 105/4/3 89/4/3 97/4/3
f 105/2/3 97/2/3 104/2/3
f 106/4/3 104/4/3 103/4/3
f 106/4/3 103/4/3 102/4/3
f 106/4/3 105/4/3 104/4/3
f 106/4/3 102/4/3 101/4/3
f 106/4/3 101/4/3 100/4/3
f 106/4/3 100/4/3 99/4/3
f 106/4/3 99/4/3 98/4/3
f 106/4/3 98/4/3 88/4/3
f 107/4/3 105/4/3 106/4/3
f 108/4/3 105/4/3 107/4/3
f 109/4/3 89/4/3 105/4/3
f 109/4/3 105/4/3 108/4/3
f 110/4/3 89/4/3 109/4/3
f 111/4/3 89/4/3 110/4/3
f 112/4/3 106/4/3 88/4/3
f 112/2/3 107/2/3 106/2/3
f 113/4/3 108/4/3 107/4/3
f 113/2/3 107/2/3 112/2/3
f 114/2/3 111/2/3 110/2/3
f 114/4/3 110/4/3 109/4/3
f 115/4/3 89/4/3 111/4/3
f 115/2/3 111/2/3 114/2/3
f 116/4/3 112/4/3 88/4/3
f 116/4/3 113/4/3 112/4/3
f 117/4/3 108/4/3 113/4/3
f 117/4/3 113/4/3 116/4/3
f 118/4/3 114/4/3 109/4/3
f 118/4/3 115/4/3 114/4/3
f 119/4/3 89/4/3 115/4/3
f 119/4/3 115/4/3 118/4/3
f 120/4/3 116/4/3 88/4/3
f 120/2/3 117/2/3 116/2/3
f 121/4/3 108/4/3 117/4/3
f 121/2/3 117/2/3 120/2/3
f 122/4/3 118/4/3 109/4/3
f 122/2/3 119/2/3 118/2/3
f 123/4/3 89/4/3 119/4/3
f 123/2/3 119/2/3 122/2/3
f 124/4/3 120/4/3 88/4/3
f 124/4/3 121/4/3 120/4/3
f 125/4/3 108/4/3 121/4/3
f 125/4/3 121/4/3 124/4/3
f 126/4/3 122/4/3 109/4/3
f 126/4/3 123/4/3 122/4/3
f 127/4/3 89/4/3 123/4/3
f 127/4/3 123/4/3 126/4/3
f 128/4/3 124/4/3 88/4/3
f 128/2/3 125/2/3 124/2/3
f 129/4/3 108/4/3 125/4/3
f 129/2/3 125/2/3 128/2/3
f 130/4/3 126/4/3 109/4/3
f 130/2/3 127/2/3 126/2/3
f 131/4/3 89/4/3 127/4/3
f 131/2/3 127/2/3 130/2/3
f 132/4/3 128/4/3 88/4/3
f 132/4/3 129/4/3 128/4/3
f 133/4/3 108/4/3 129/4/3
f 133/4/3 129/4/3 132/4/3
f 134/4/3 130/4/3 109/4/3
f 134/4/3 131/4/3 130/4/3
f 135/4/3 89/4/3 131/4/3
f 135/4/3 131/4/3 134/4/3
f 136/4/3 132/4/3 88/4/3
f 136/2/3 133/2/3 132/2/3
f 137/4/3 108/4/3 133/4/3
f 137/2/3 133/2/3 136/2/3
f 138/2/3 109/2/3 108/2/3
f 138/4/3 108/4/3 137/4/3
f 139/4/3 134/4/3 109/4/3
f 139/2/3 109/2/3 138/2/3
f 140/2/3 135/2/3 134/2/3
f 140/4/3 134/4/3 139/4/3
f 141/4/3 89/4/3 135/4/3
f 141/2/3 135/2/3 140/2/3
f 142/4/3 140/4/3 139/4/3
f 142/4/3 138/4/3 137/4/3
f 142/4/3 141/4/3 140/4/3
f 142/4/3 139/4/3 138/4/3
f 142/4/3 137/4/3 136/4/3
f 143/4/3 141/4/3 142/4/3
f 144/4/3 141/4/3 143/4/3
f 145/4/3 141/4/3 144/4/3
f 146/4/3 141/4/3 145/4/3
f 147/4/3 141/4/3 146/4/3
f 148/4/3 141/4/3 147/4/3
f 149/4/3 141/4/3 148/4/3
f 150/4/3 142/4/3 136/4/3
f 150/2/3 143/2/3 142/2/3
f 151/4/3 144/4/3 143/4/3
f 151/2/3 143/2/3 150/2/3
f 152/2/3 145/2/3 144/2/3
f 152/4/3 144/4/3 151/4/3
f 153/4/3 146/4/3 145/4/3
f 153/2/3 145/2/3 152/2/3
f 154/2/3 147/2/3 146/2/3
f 154/4/3 146/4/3 153/4/3
f 155/4/3 148/4/3 147/4/3
f 155/2/3 147/2/3 154/2/3
f 156/2/3 149/2/3 148/2/3
f 156/4/3 148/4/3 155/4/3
f 157/4/3 141/4/3 149/4/3
f 157/2/3 149/2/3 156/2/3
f 158/3/3 88/3/3 87/3/3
f 159/4/3 136/4/3 88/4/3
f 159/3/3 88/3/3 158/3/3
f 159/4/3 156/4/3 155/4/3
f 159/4/3 157/4/3 156/4/3
f 159/4/3 154/4/3 153/4/3
f 159/4/3 153/4/3 152/4/3
f 159/4/3 152/4/3 151/4/3
f 159/4/3 151/4/3 150/4/3
f 159/4/3 150/4/3 136/4/3
f 159/4/3 155/4/3 154/4/3
f 160/4/3 141/4/3 157/4/3
f 160/4/3 157/4/3 159/4/3
f 160/4/3 89/4/3 141/4/3
f 164/4/3 163/4/3 162/4/3
f 165/4/3 163/4/3 164/4/3
f 166/3/3 162/3/3 161/3/3
f 166/4/3 164/4/3 162/4/3
f 167/6/3 165/6/3 164/6/3
f 167/4/3 164/4/3 166/4/3
f 168/4/3 163/4/3 165/4/3
f 168/6/3 165/6/3 167/6/3
f 169/4/3 163/4/3 168/4/3
f 170/1/3 167/1/3 166/1/3
f 171/1/3 167/1/3 170/1/3
f 172/4/3 163/4/3 169/4/3
f 172/6/3 168/6/3 167/6/3
f 172/6/3 169/6/3 168/6/3
f 173/4/3 163/4/3 172/4/3
f 174/6/3 173/6/3 172/6/3
f 174/4/3 163/4/3 173/4/3
f 175/4/3 163/4/3 174/4/3
f 176/3/3 166/3/3 161/3/3
f 176/1/3 170/1/3 166/1/3
f 177/1/3 170/1/3 176/1/3
f 178/5/3 171/5/3 170/5/3
f 178/1/3 170/1/3 177/1/3
f 179/1/3 167/1/3 171/1/3
f 179/5/3 171/5/3 178/5/3
f 180/4/3 163/4/3 175/4/3
f 180/6/3 175/6/3 174/6/3
f 181/4/3 163/4/3 180/4/3
f 182/5/3 177/5/3 176/5/3
f 182/3/3 176/3/3 161/3/3
f 183/1/3 178/1/3 177/1/3
f 183/5/3 177/5/3 182/5/3
f 183/1/3 179/1/3 178/1/3
f 184/1/3 183/1/3 182/1/3
f 184/1/3 179/1/3 183/1/3
f 185/1/3 167/1/3 179/1/3
f 185/1/3 179/1/3 184/1/3
f 186/6/3 180/6/3 174/6/3
f 186/6/3 181/6/3 180/6/3
f 187/4/3 163/4/3 181/4/3
f 187/6/3 181/6/3 186/6/3
f 188/6/3 186/6/3 174/6/3
f 188/6/3 174/6/3 172/6/3
f 189/4/3 187/4/3 186/4/3
f 189/6/3 186/6/3 188/6/3
f 190/1/3 184/1/3 182/1/3
f 190/5/3 185/5/3 184/5/3
f 191/1/3 167/1/3 185/1/3
f 191/5/3 185/5/3 190/5/3
f 192/6/3 172/6/3 167/6/3
f 192/6/3 188/6/3 172/6/3
f 193/4/3 189/4/3 188/4/3
f 193/6/3 188/6/3 192/6/3
f 194/3/3 182/3/3 161/3/3
f 194/1/3 190/1/3 182/1/3
f 194/1/3 191/1/3 190/1/3
f 195/1/3 167/1/3 191/1/3
f 195/1/3 191/1/3 194/1/3
f 195/6/3 192/6/3 167/6/3
f 196/6/3 192/6/3 195/6/3
f 197/4/3 193/4/3 192/4/3
f 197/6/3 192/6/3 196/6/3
f 198/6/3 196/6/3 195/6/3
f 198/4/3 195/4/3 194/4/3
f 199/4/3 197/4/3 196/4/3
f 199/6/3 196/6/3 198/6/3
f 200/3/3 194/3/3 161/3/3
f 201/4/3 198/4/3 194/4/3
f 201/3/3 194/3/3 200/3/3
f 201/4/3 199/4/3 198/4/3
f 202/4/3 189/4/3 193/4/3
f 202/4/3 199/4/3 201/4/3
f 202/4/3 187/4/3 189/4/3
f 202/4/3 163/4/3 187/4/3
f 202/4/3 197/4/3 199/4/3
f 202/4/3 193/4/3 197/4/3
f 204/4/4 205/4/4 206/4/4
f 206/4/4 205/4/4 207/4/4
f 207/4/4 205/4/4 208/4/4
f 208/4/4 205/4/4 209/4/4
f 209/4/4 205/4/4 210/4/4
f 210/4/4 205/4/4 211/4/4
f 211/4/4 205/4/4 212/4/4
f 212/4/4 205/4/4 213/4/4
f 204/4/4 206/4/4 214/4/4
f 206/2/4 207/2/4 214/2/4
f 207/4/4 208/4/4 215/4/4
f 214/2/4 207/2/4 215/2/4
f 208/2/4 209/2/4 216/2/4
f 215/4/4 208/4/4 216/4/4
f 209/4/4 210/4/4 217/4/4
f 216/2/4 209/2/4 217/2/4
f 210/2/4 211/2/4 218/2/4
f 217/4/4 210/4/4 218/4/4
f 211/4/4 212/4/4 219/4/4
f 218/2/4 211/2/4 219/2/4
f 212/2/4 213/2/4 220/2/4
f 219/4/4 212/4/4 220/4/4
f 213/4/4 205/4/4 221/4/4
f 220/2/4 213/2/4 221/2/4
f 219/4/4 220/4/4 222/4/4
f 218/4/4 219/4/4 222/4/4
f 220/4/4 221/4/4 222/4/4
f 217/4/4 218/4/4 222/4/4
f 216/4/4 217/4/4 222/4/4
f 215/4/4 216/4/4 222/4/4
f 214/4/4 215/4/4 222/4/4
f 204/4/4 214/4/4 222/4/4
f 222/4/4 221/4/4 223/4/4
f 223/4/4 221/4/4 224/4/4
f 221/4/4 205/4/4 225/4/4
f 224/4/4 221/4/4 225/4/4
f 225/4/4 205/4/4 226/4/4
f 226/4/4 205/4/4 227/4/4
f 204/4/4 222/4/4 228/4/4
f 222/2/4 223/2/4 228/2/4
f 223/4/4 224/4/4 229/4/4
f 228/2/4 223/2/4 229/2/4
f 226/2/4 227/2/4 230/2/4
f 225/4/4 226/4/4 230/4/4
f 227/4/4 205/4/4 231/4/4
f 230/2/4 227/2/4 231/2/4
f 204/4/4 228/4/4 232/4/4
f 228/4/4 229/4/4 232/4/4
f 229/4/4 224/4/4 233/4/4
f 232/4/4 229/4/4 233/4/4
f 225/4/4 230/4/4 234/4/4
f 230/4/4 231/4/4 234/4/4
f 231/4/4 205/4/4 235/4/4
f 234/4/4 231/4/4 235/4/4
f 204/4/4 232/4/4 236/4/4
f 232/2/4 233/2/4 236/2/4
f 233/4/4 224/4/4 237/4/4
f 236/2/4 233/2/4 237/2/4
f 225/4/4 234/4/4 238/4/4
f 234/2/4 235/2/4 238/2/4
f 235/4/4 205/4/4 239/4/4
f 238/2/4 235/2/4 239/2/4
f 204/4/4 236/4/4 240/4/4
f 236/4/4 237/4/4 240/4/4
f 237/4/4 224/4/4 241/4/4
f 240/4/4 237/4/4 241/4/4
f 225/4/4 238/4/4 242/4/4
f 238/4/4 239/4/4 242/4/4
f 239/4/4 205/4/4 243/4/4
f 242/4/4 239/4/4 243/4/4
f 204/4/4 240/4/4 244/4/4
f 240/2/4 241/2/4 244/2/4
f 241/4/4 224/4/4 245/4/4
f 244/2/4 241/2/4 245/2/4
f 225/4/4 242/4/4 246/4/4
f 242/2/4 243/2/4 246/2/4
f 243/4/4 205/4/4 247/4/4
f 246/2/4 243/2/4 247/2/4
f 204/4/4 244/4/4 248/4/4
f 244/4/4 245/4/4 248/4/4
f 245/4/4 224/4/4 249/4/4
f 248/4/4 245/4/4 249/4/4
f 225/4/4 246/4/4 250/4/4
f 246/4/4 247/4/4 250/4/4
f 247/4/4 205/4/4 251/4/4
f 250/4/4 247/4/4 251/4/4
f 204/4/4 248/4/4 252/4/4
f 248/2/4 249/2/4 252/2/4
f 249/4/4 224/4/4 253/4/4
f 252/2/4 249/2/4 253/2/4
f 224/2/4 225/2/4 254/2/4
f 253/4/4 224/4/4 254/4/4
f 225/4/4 250/4/4 255/4/4
f 254/2/4 225/2/4 255/2/4
f 250/2/4 251/2/4 256/2/4
f 255/4/4 250/4/4 256/4/4
f 251/4/4 205/4/4 257/4/4
f 256/2/4 251/2/4 257/2/4
f 255/4/4 256/4/4 258/4/4
f 253/4/4 254/4/4 258/4/4
f 256/4/4 257/4/4 258/4/4
f 254/4/4 255/4/4 258/4/4
f 252/4/4 253/4/4 258/4/4
f 258/4/4 257/4/4 259/4/4
f 259/4/4 257/4/4 260/4/4
f 260/4/4 257/4/4 261/4/4
f 261/4/4 257/4/4 262/4/4
f 262/4/4 257/4/4 263/4/4
f 263/4/4 257/4/4 264/4/4
f 264/4/4 257/4/4 265/4/4
f 252/4/4 258/4/4 266/4/4
f 258/2/4 259/2/4 266/2/4
f 259/4/4 260/4/4 267/4/4
f 266/2/4 259/2/4 267/2/4
f 260/2/4 261/2/4 268/2/4
f 267/4/4 260/4/4 268/4/4
f 261/4/4 262/4/4 269/4/4
f 268/2/4 261/2/4 269/2/4
f 262/2/4 263/2/4 270/2/4
f 269/4/4 262/4/4 270/4/4
f 263/4/4 264/4/4 271/4/4
f 270/2/4 263/2/4 271/2/4
f 264/2/4 265/2/4 272/2/4
f 271/4/4 264/4/4 272/4/4
f 265/4/4 257/4/4 273/4/4
f 272/2/4 265/2/4 273/2/4
f 203/3/4 204/3/4 274/3/4
f 204/4/4 252/4/4 275/4/4
f 274/3/4 204/3/4 275/3/4
f 271/4/4 272/4/4 275/4/4
f 272/4/4 273/4/4 275/4/4
f 269/4/4 270/4/4 275/4/4
f 268/4/4 269/4/4 275/4/4
f 267/4/4 268/4/4 275/4/4
f 266/4/4 267/4/4 275/4/4
f 252/4/4 266/4/4 275/4/4
f 270/4/4 271/4/4 275/4/4
f 274/4/4 275/4/4 276/4/4
f 275/4/4 273/4/4 277/4/4
f 276/4/4 275/4/4 277/4/4
f 277/4/4 273/4/4 278/4/4
f 278/4/4 273/4/4 279/4/4
f 276/3/4 277/3/4 280/3/4
f 277/4/4 278/4/4 280/4/4
f 278/6/4 279/6/4 281/6/4
f 280/4/4 278/4/4 281/4/4
f 279/4/4 273/4/4 282/4/4
f 281/6/4 279/6/4 282/6/4
f 282/4/4 273/4/4 283/4/4
f 280/1/4 281/1/4 284/1/4
f 284/1/4 281/1/4 285/1/4
f 283/4/4 273/4/4 286/4/4
f 281/6/4 282/6/4 286/6/4
f 282/6/4 283/6/4 286/6/4
f 286/4/4 273/4/4 287/4/4
f 286/6/4 287/6/4 288/6/4
f 287/4/4 273/4/4 288/4/4
f 288/4/4 273/4/4 289/4/4
f 276/3/4 280/3/4 290/3/4
f 280/1/4 284/1/4 290/1/4
f 290/1/4 284/1/4 291/1/4
f 284/5/4 285/5/4 292/5/4
f 291/1/4 284/1/4 292/1/4
f 285/1/4 281/1/4 293/1/4
f 292/5/4 285/5/4 293/5/4
f 289/4/4 273/4/4 294/4/4
f 288/6/4 289/6/4 294/6/4
f 294/4/4 273/4/4 295/4/4
f 290/5/4 291/5/4 296/5/4
f 276/3/4 290/3/4 296/3/4
f 291/1/4 292/1/4 297/1/4
f 296/5/4 291/5/4 297/5/4
f 292/1/4 293/1/4 297/1/4
f 296/1/4 297/1/4 298/1/4
f 297/1/4 293/1/4 298/1/4
f 293/1/4 281/1/4 299/1/4
f 298/1/4 293/1/4 299/1/4
f 288/6/4 294/6/4 300/6/4
f 294/6/4 295/6/4 300/6/4
f 295/4/4 273/4/4 301/4/4
f 300/6/4 295/6/4 301/6/4
f 288/6/4 300/6/4 302/6/4
f 286/6/4 288/6/4 302/6/4
f 300/4/4 301/4/4 303/4/4
f 302/6/4 300/6/4 303/6/4
f 296/1/4 298/1/4 304/1/4
f 298/5/4 299/5/4 304/5/4
f 299/1/4 281/1/4 305/1/4
f 304/5/4 299/5/4 305/5/4
f 281/6/4 286/6/4 306/6/4
f 286/6/4 302/6/4 306/6/4
f 302/4/4 303/4/4 307/4/4
f 306/6/4 302/6/4 307/6/4
f 276/3/4 296/3/4 308/3/4
f 296/1/4 304/1/4 308/1/4
f 304/1/4 305/1/4 308/1/4
f 305/1/4 281/1/4 309/1/4
f 308/1/4 305/1/4 309/1/4
f 281/6/4 306/6/4 309/6/4
f 309/6/4 306/6/4 310/6/4
f 306/4/4 307/4/4 311/4/4
f 310/6/4 306/6/4 311/6/4
f 309/6/4 310/6/4 312/6/4
f 308/4/4 309/4/4 312/4/4
f 310/4/4 311/4/4 313/4/4
f 312/6/4 310/6/4 313/6/4
f 276/3/4 308/3/4 314/3/4
f 308/4/4 312/4/4 315/4/4
f 314/3/4 308/3/4 315/3/4
f 312/4/4 313/4/4 315/4/4
f 273/4/4 257/4/4 316/4/4
f 315/4/4 313/4/4 316/4/4
f 257/4/4 205/4/4 316/4/4
f 307/4/4 303/4/4 316/4/4
f 313/4/4 311/4/4 316/4/4
f 311/4/4 307/4/4 316/4/4
f 301/4/4 273/4/4 316/4/4
f 303/4/4 301/4/4 316/4/4
f 317/5/4 318/5/4 319/5/4
f 317/5/4 319/5/4 321/5/4
f 319/5/4 320/5/4 321/5/4
f 321/5/4 320/5/4 322/5/4
f 317/5/4 321/5/4 323/5/4
f 322/5/4 320/5/4 324/5/4
f 324/5/4 320/5/4 325/5/4
f 323/5/4 324/5/4 325/5/4
f 325/5/4 320/5/4 326/5/4
f 317/5/4 323/5/4 327/5/4
f 323/5/4 325/5/4 327/5/4
f 327/5/4 325/5/4 328/5/4
f 331/5/5 330/5/5 329/5/5
f 332/5/5 330/5/5 331/5/5
f 337/5/5 334/5/5 333/5/5
f 338/5/5 334/5/5 337/5/5
f 339/5/5 336/5/5 335/5/5
f 340/5/5 336/5/5 339/5/5
f 343/5/5 342/5/5 341/5/5
f 344/5/5 342/5/5 343/5/5
f 345/5/6 346/5/6 347/5/6
f 347/5/6 346/5/6 348/5/6
f 348/5/6 346/5/6 349/5/6
f 349/5/6 346/5/6 350/5/6
f 350/5/6 346/5/6 351/5/6
f 351/5/6 346/5/6 352/5/6
f 348/5/6 349/5/6 353/5/6
f 353/5/6 349/5/6 354/5/6
f 350/5/6 351/5/6 355/5/6
f 355/5/6 351/5/6 356/5/6
f 357/5/6 358/5/6 361/5/6
f 359/5/6 360/5/6 361/5/6
f 358/5/6 359/5/6 361/5/6
f 361/5/6 360/5/6 362/5/6
f 363/5/6 364/5/6 367/5/6
f 367/5/6 364/5/6 368/5/6
f 365/5/6 366/5/6 369/5/6
f 369/5/6 366/5/6 370/5/6
f 371/5/6 372/5/6 373/5/6
f 373/5/6 372/5/6 374/5/6
