# MagicaVoxel @ Ephtracy

# group
o 

# material
mtllib ModelsFedaHome-3.mtl
usemtl palette

# normals
vn -1 0 0
vn 1 0 0
vn 0 0 1
vn 0 0 -1
vn 0 -1 0
vn 0 1 0

# texcoords
vt 0.0566406 0.5
vt 0.0644531 0.5
vt 0.310547 0.5
vt 0.373047 0.5
vt 0.427734 0.5
vt 0.642578 0.5
vt 0.748047 0.5
vt 0.771484 0.5
vt 0.958984 0.5
vt 0.994141 0.5

# verts
v -13.3 0.1 0.4
v -13.3 0.1 -0.1
v -13.3 2.6 0.4
v -13.3 2.6 -0.1
v -13.2 0 0.4
v -13.2 0 -0.1
v -13.2 0.1 0.4
v -13.2 0.1 -0.1
v -13.2 2.6 0.4
v -13.2 2.6 -0.1
v -13.2 2.8 0.4
v -13.2 2.8 -0.1
v -10.6 0.1 0.4
v -10.6 0.1 0.2
v -10.6 0.1 0.1
v -10.6 0.1 -0.1
v -10.6 2.6 0.4
v -10.6 2.6 0.2
v -10.6 2.6 0.1
v -10.6 2.6 -0.1
v -13.1 0.1 0.4
v -13.1 0.1 0.2
v -13.1 0.1 0.1
v -13.1 0.1 -0.1
v -13.1 2.6 0.4
v -13.1 2.6 0.2
v -13.1 2.6 0.1
v -13.1 2.6 -0.1
v -10.5 0 0.4
v -10.5 0 -0.1
v -10.5 0.1 0.4
v -10.5 0.1 -0.1
v -10.5 2.6 0.4
v -10.5 2.6 -0.1
v -10.5 2.8 0.4
v -10.5 2.8 -0.1
v -10.4 0.1 0.4
v -10.4 0.1 -0.1
v -10.4 2.6 0.4
v -10.4 2.6 -0.1
v -13.3 0.1 0.4
v -13.3 2.6 0.4
v -13.2 0 0.4
v -13.2 0.1 0.4
v -13.2 2.6 0.4
v -13.2 2.8 0.4
v -13.1 0.1 0.4
v -13.1 2.6 0.4
v -10.6 0.1 0.4
v -10.6 2.6 0.4
v -10.5 0 0.4
v -10.5 0.1 0.4
v -10.5 2.6 0.4
v -10.5 2.8 0.4
v -10.4 0.1 0.4
v -10.4 2.6 0.4
v -13.1 0.1 0.2
v -13.1 2.6 0.2
v -12.6 0.1 0.2
v -12.6 0.3 0.2
v -12.6 0.5 0.2
v -12.6 0.7 0.2
v -12.6 0.9 0.2
v -12.6 1.6 0.2
v -12.6 2.2 0.2
v -12.4 0.9 0.2
v -12.4 1.6 0.2
v -12.4 2.2 0.2
v -12.4 2.4 0.2
v -12.3 1.6 0.2
v -12.3 2.1 0.2
v -12.2 1 0.2
v -12.2 1.2 0.2
v -12.2 1.5 0.2
v -12.2 1.6 0.2
v -12.2 1.7 0.2
v -12.2 1.9 0.2
v -12.1 1 0.2
v -12.1 1.1 0.2
v -12.1 1.2 0.2
v -12.1 1.3 0.2
v -12.1 1.5 0.2
v -12.1 1.6 0.2
v -12.1 1.7 0.2
v -12.1 1.8 0.2
v -12 1.1 0.2
v -12 1.2 0.2
v -12 1.4 0.2
v -12 1.6 0.2
v -12 1.7 0.2
v -12 1.8 0.2
v -12 1.9 0.2
v -11.7 1.1 0.2
v -11.7 1.2 0.2
v -11.7 1.4 0.2
v -11.7 1.6 0.2
v -11.7 1.7 0.2
v -11.7 1.9 0.2
v -11.6 1 0.2
v -11.6 1.1 0.2
v -11.6 1.2 0.2
v -11.6 1.3 0.2
v -11.6 1.5 0.2
v -11.6 1.6 0.2
v -11.6 1.7 0.2
v -11.6 1.8 0.2
v -11.5 1 0.2
v -11.5 1.2 0.2
v -11.5 1.5 0.2
v -11.5 1.6 0.2
v -11.5 1.7 0.2
v -11.5 1.8 0.2
v -11.5 1.9 0.2
v -11.4 1.5 0.2
v -11.4 2.1 0.2
v -11.3 0.9 0.2
v -11.3 1.5 0.2
v -11.3 2.1 0.2
v -11.3 2.4 0.2
v -11.1 0.1 0.2
v -11.1 0.3 0.2
v -11.1 0.5 0.2
v -11.1 0.7 0.2
v -11.1 0.9 0.2
v -11.1 1.5 0.2
v -11.1 2.1 0.2
v -10.6 0.1 0.2
v -10.6 2.6 0.2
v -13.1 0.1 0.1
v -13.1 2.6 0.1
v -12.6 0.1 0.1
v -12.6 0.3 0.1
v -12.6 0.5 0.1
v -12.6 0.7 0.1
v -12.6 0.9 0.1
v -12.6 1.6 0.1
v -12.6 2.2 0.1
v -12.4 0.9 0.1
v -12.4 1.6 0.1
v -12.4 2.2 0.1
v -12.4 2.4 0.1
v -12.3 1.6 0.1
v -12.3 2.1 0.1
v -12.2 1 0.1
v -12.2 1.2 0.1
v -12.2 1.5 0.1
v -12.2 1.6 0.1
v -12.2 1.7 0.1
v -12.2 1.9 0.1
v -12.1 1 0.1
v -12.1 1.1 0.1
v -12.1 1.2 0.1
v -12.1 1.3 0.1
v -12.1 1.5 0.1
v -12.1 1.6 0.1
v -12.1 1.7 0.1
v -12.1 1.8 0.1
v -12 1.1 0.1
v -12 1.2 0.1
v -12 1.4 0.1
v -12 1.6 0.1
v -12 1.7 0.1
v -12 1.8 0.1
v -12 1.9 0.1
v -11.7 1.1 0.1
v -11.7 1.2 0.1
v -11.7 1.4 0.1
v -11.7 1.6 0.1
v -11.7 1.7 0.1
v -11.7 1.9 0.1
v -11.6 1 0.1
v -11.6 1.1 0.1
v -11.6 1.2 0.1
v -11.6 1.3 0.1
v -11.6 1.5 0.1
v -11.6 1.6 0.1
v -11.6 1.7 0.1
v -11.6 1.8 0.1
v -11.5 1 0.1
v -11.5 1.2 0.1
v -11.5 1.5 0.1
v -11.5 1.6 0.1
v -11.5 1.7 0.1
v -11.5 1.8 0.1
v -11.5 1.9 0.1
v -11.4 1.5 0.1
v -11.4 2.1 0.1
v -11.3 0.9 0.1
v -11.3 1.5 0.1
v -11.3 2.1 0.1
v -11.3 2.4 0.1
v -11.1 0.1 0.1
v -11.1 0.3 0.1
v -11.1 0.5 0.1
v -11.1 0.7 0.1
v -11.1 0.9 0.1
v -11.1 1.5 0.1
v -11.1 2.1 0.1
v -10.6 0.1 0.1
v -10.6 2.6 0.1
v -13.3 0.1 -0.1
v -13.3 2.6 -0.1
v -13.2 0 -0.1
v -13.2 0.1 -0.1
v -13.2 2.6 -0.1
v -13.2 2.8 -0.1
v -13.1 0.1 -0.1
v -13.1 2.6 -0.1
v -10.6 0.1 -0.1
v -10.6 2.6 -0.1
v -10.5 0 -0.1
v -10.5 0.1 -0.1
v -10.5 2.6 -0.1
v -10.5 2.8 -0.1
v -10.4 0.1 -0.1
v -10.4 2.6 -0.1
v -13.2 0 0.4
v -10.5 0 0.4
v -13.2 0 -0.1
v -10.5 0 -0.1
v -13.3 0.1 0.4
v -13.2 0.1 0.4
v -10.5 0.1 0.4
v -10.4 0.1 0.4
v -13.3 0.1 -0.1
v -13.2 0.1 -0.1
v -10.5 0.1 -0.1
v -10.4 0.1 -0.1
v -13.1 2.6 0.4
v -10.6 2.6 0.4
v -13.1 2.6 0.2
v -10.6 2.6 0.2
v -13.1 2.6 0.1
v -10.6 2.6 0.1
v -13.1 2.6 -0.1
v -10.6 2.6 -0.1
v -13.1 0.1 0.4
v -10.6 0.1 0.4
v -13.1 0.1 0.2
v -12.6 0.1 0.2
v -11.1 0.1 0.2
v -10.6 0.1 0.2
v -13.1 0.1 0.1
v -12.6 0.1 0.1
v -11.1 0.1 0.1
v -10.6 0.1 0.1
v -13.1 0.1 -0.1
v -10.6 0.1 -0.1
v -13.3 2.6 0.4
v -13.2 2.6 0.4
v -10.5 2.6 0.4
v -10.4 2.6 0.4
v -13.3 2.6 -0.1
v -13.2 2.6 -0.1
v -10.5 2.6 -0.1
v -10.4 2.6 -0.1
v -13.2 2.8 0.4
v -10.5 2.8 0.4
v -13.2 2.8 -0.1
v -10.5 2.8 -0.1

# faces
f 3/3/1 2/3/1 1/3/1
f 4/3/1 2/3/1 3/3/1
f 7/3/1 6/3/1 5/3/1
f 8/3/1 6/3/1 7/3/1
f 11/3/1 10/3/1 9/3/1
f 12/3/1 10/3/1 11/3/1
f 17/3/1 14/3/1 13/3/1
f 18/3/1 14/3/1 17/3/1
f 19/3/1 16/3/1 15/3/1
f 20/3/1 16/3/1 19/3/1
f 21/3/2 22/3/2 25/3/2
f 25/3/2 22/3/2 26/3/2
f 23/3/2 24/3/2 27/3/2
f 27/3/2 24/3/2 28/3/2
f 29/3/2 30/3/2 31/3/2
f 31/3/2 30/3/2 32/3/2
f 33/3/2 34/3/2 35/3/2
f 35/3/2 34/3/2 36/3/2
f 37/3/2 38/3/2 39/3/2
f 39/3/2 38/3/2 40/3/2
f 44/3/3 42/3/3 41/3/3
f 45/3/3 42/3/3 44/3/3
f 47/3/3 44/3/3 43/3/3
f 47/3/3 46/3/3 45/3/3
f 47/3/3 45/3/3 44/3/3
f 48/3/3 46/3/3 47/3/3
f 49/3/3 47/3/3 43/3/3
f 50/3/3 46/3/3 48/3/3
f 51/3/3 49/3/3 43/3/3
f 51/3/3 50/3/3 49/3/3
f 52/3/3 50/3/3 51/3/3
f 53/3/3 46/3/3 50/3/3
f 53/3/3 50/3/3 52/3/3
f 54/3/3 46/3/3 53/3/3
f 55/3/3 53/3/3 52/3/3
f 56/3/3 53/3/3 55/3/3
f 59/10/3 58/10/3 57/10/3
f 60/10/3 58/10/3 59/10/3
f 61/10/3 58/10/3 60/10/3
f 62/10/3 58/10/3 61/10/3
f 63/10/3 58/10/3 62/10/3
f 64/10/3 58/10/3 63/10/3
f 65/10/3 58/10/3 64/10/3
f 66/8/3 63/8/3 62/8/3
f 66/10/3 64/10/3 63/10/3
f 67/1/3 65/1/3 64/1/3
f 67/10/3 64/10/3 66/10/3
f 68/10/3 58/10/3 65/10/3
f 68/1/3 65/1/3 67/1/3
f 69/10/3 58/10/3 68/10/3
f 70/9/3 67/9/3 66/9/3
f 70/1/3 68/1/3 67/1/3
f 70/1/3 69/1/3 68/1/3
f 71/1/3 69/1/3 70/1/3
f 72/9/3 70/9/3 66/9/3
f 72/9/3 71/9/3 70/9/3
f 73/9/3 71/9/3 72/9/3
f 74/9/3 71/9/3 73/9/3
f 75/9/3 71/9/3 74/9/3
f 76/9/3 71/9/3 75/9/3
f 77/9/3 71/9/3 76/9/3
f 78/9/3 72/9/3 66/9/3
f 78/1/3 73/1/3 72/1/3
f 79/1/3 73/1/3 78/1/3
f 80/9/3 74/9/3 73/9/3
f 80/1/3 73/1/3 79/1/3
f 81/9/3 74/9/3 80/9/3
f 82/7/3 75/7/3 74/7/3
f 82/9/3 74/9/3 81/9/3
f 83/9/3 76/9/3 75/9/3
f 83/7/3 75/7/3 82/7/3
f 84/10/3 77/10/3 76/10/3
f 84/9/3 76/9/3 83/9/3
f 85/10/3 77/10/3 84/10/3
f 86/9/3 79/9/3 78/9/3
f 86/1/3 81/1/3 80/1/3
f 86/1/3 80/1/3 79/1/3
f 87/1/3 81/1/3 86/1/3
f 88/9/3 83/9/3 82/9/3
f 88/9/3 82/9/3 81/9/3
f 88/9/3 84/9/3 83/9/3
f 89/9/3 84/9/3 88/9/3
f 90/6/3 85/6/3 84/6/3
f 90/9/3 84/9/3 89/9/3
f 91/10/3 77/10/3 85/10/3
f 91/6/3 85/6/3 90/6/3
f 92/9/3 71/9/3 77/9/3
f 92/10/3 77/10/3 91/10/3
f 93/9/3 87/9/3 86/9/3
f 93/9/3 86/9/3 78/9/3
f 94/1/3 81/1/3 87/1/3
f 94/9/3 87/9/3 93/9/3
f 95/2/3 89/2/3 88/2/3
f 95/9/3 88/9/3 81/9/3
f 96/9/3 91/9/3 90/9/3
f 96/2/3 89/2/3 95/2/3
f 96/9/3 90/9/3 89/9/3
f 96/9/3 92/9/3 91/9/3
f 97/9/3 92/9/3 96/9/3
f 98/9/3 71/9/3 92/9/3
f 98/9/3 92/9/3 97/9/3
f 99/9/3 93/9/3 78/9/3
f 99/9/3 78/9/3 66/9/3
f 100/1/3 94/1/3 93/1/3
f 100/9/3 93/9/3 99/9/3
f 101/1/3 81/1/3 94/1/3
f 101/1/3 94/1/3 100/1/3
f 102/9/3 95/9/3 81/9/3
f 102/1/3 81/1/3 101/1/3
f 102/9/3 97/9/3 96/9/3
f 102/9/3 96/9/3 95/9/3
f 103/9/3 97/9/3 102/9/3
f 104/9/3 97/9/3 103/9/3
f 105/10/3 98/10/3 97/10/3
f 105/9/3 97/9/3 104/9/3
f 106/10/3 98/10/3 105/10/3
f 107/1/3 101/1/3 100/1/3
f 107/9/3 99/9/3 66/9/3
f 107/1/3 100/1/3 99/1/3
f 108/9/3 102/9/3 101/9/3
f 108/1/3 101/1/3 107/1/3
f 108/9/3 103/9/3 102/9/3
f 109/7/3 104/7/3 103/7/3
f 109/9/3 103/9/3 108/9/3
f 110/9/3 105/9/3 104/9/3
f 110/7/3 104/7/3 109/7/3
f 111/6/3 106/6/3 105/6/3
f 111/9/3 105/9/3 110/9/3
f 112/10/3 98/10/3 106/10/3
f 112/6/3 106/6/3 111/6/3
f 113/9/3 71/9/3 98/9/3
f 113/10/3 98/10/3 112/10/3
f 114/9/3 111/9/3 110/9/3
f 114/9/3 112/9/3 111/9/3
f 114/9/3 113/9/3 112/9/3
f 114/9/3 110/9/3 109/9/3
f 114/9/3 108/9/3 107/9/3
f 114/9/3 109/9/3 108/9/3
f 115/1/3 69/1/3 71/1/3
f 115/9/3 113/9/3 114/9/3
f 115/9/3 71/9/3 113/9/3
f 116/8/3 66/8/3 62/8/3
f 116/9/3 114/9/3 107/9/3
f 116/9/3 107/9/3 66/9/3
f 117/1/3 115/1/3 114/1/3
f 117/9/3 114/9/3 116/9/3
f 118/1/3 69/1/3 115/1/3
f 118/1/3 115/1/3 117/1/3
f 119/10/3 58/10/3 69/10/3
f 119/1/3 69/1/3 118/1/3
f 120/4/3 60/4/3 59/4/3
f 121/8/3 61/8/3 60/8/3
f 121/4/3 60/4/3 120/4/3
f 122/5/3 62/5/3 61/5/3
f 122/8/3 61/8/3 121/8/3
f 123/8/3 116/8/3 62/8/3
f 123/5/3 62/5/3 122/5/3
f 124/10/3 117/10/3 116/10/3
f 124/8/3 116/8/3 123/8/3
f 125/1/3 118/1/3 117/1/3
f 125/10/3 117/10/3 124/10/3
f 126/10/3 119/10/3 118/10/3
f 126/1/3 118/1/3 125/1/3
f 127/10/3 121/10/3 120/10/3
f 127/10/3 124/10/3 123/10/3
f 127/10/3 126/10/3 125/10/3
f 127/10/3 125/10/3 124/10/3
f 127/10/3 122/10/3 121/10/3
f 127/10/3 123/10/3 122/10/3
f 128/10/3 58/10/3 119/10/3
f 128/10/3 126/10/3 127/10/3
f 128/10/3 119/10/3 126/10/3
f 129/10/4 130/10/4 131/10/4
f 131/10/4 130/10/4 132/10/4
f 132/10/4 130/10/4 133/10/4
f 133/10/4 130/10/4 134/10/4
f 134/10/4 130/10/4 135/10/4
f 135/10/4 130/10/4 136/10/4
f 136/10/4 130/10/4 137/10/4
f 134/8/4 135/8/4 138/8/4
f 135/10/4 136/10/4 138/10/4
f 136/1/4 137/1/4 139/1/4
f 138/10/4 136/10/4 139/10/4
f 137/10/4 130/10/4 140/10/4
f 139/1/4 137/1/4 140/1/4
f 140/10/4 130/10/4 141/10/4
f 138/9/4 139/9/4 142/9/4
f 139/1/4 140/1/4 142/1/4
f 140/1/4 141/1/4 142/1/4
f 142/1/4 141/1/4 143/1/4
f 138/9/4 142/9/4 144/9/4
f 142/9/4 143/9/4 144/9/4
f 144/9/4 143/9/4 145/9/4
f 145/9/4 143/9/4 146/9/4
f 146/9/4 143/9/4 147/9/4
f 147/9/4 143/9/4 148/9/4
f 148/9/4 143/9/4 149/9/4
f 138/9/4 144/9/4 150/9/4
f 144/1/4 145/1/4 150/1/4
f 150/1/4 145/1/4 151/1/4
f 145/9/4 146/9/4 152/9/4
f 151/1/4 145/1/4 152/1/4
f 152/9/4 146/9/4 153/9/4
f 146/7/4 147/7/4 154/7/4
f 153/9/4 146/9/4 154/9/4
f 147/9/4 148/9/4 155/9/4
f 154/7/4 147/7/4 155/7/4
f 148/10/4 149/10/4 156/10/4
f 155/9/4 148/9/4 156/9/4
f 156/10/4 149/10/4 157/10/4
f 150/9/4 151/9/4 158/9/4
f 152/1/4 153/1/4 158/1/4
f 151/1/4 152/1/4 158/1/4
f 158/1/4 153/1/4 159/1/4
f 154/9/4 155/9/4 160/9/4
f 153/9/4 154/9/4 160/9/4
f 155/9/4 156/9/4 160/9/4
f 160/9/4 156/9/4 161/9/4
f 156/6/4 157/6/4 162/6/4
f 161/9/4 156/9/4 162/9/4
f 157/10/4 149/10/4 163/10/4
f 162/6/4 157/6/4 163/6/4
f 149/9/4 143/9/4 164/9/4
f 163/10/4 149/10/4 164/10/4
f 158/9/4 159/9/4 165/9/4
f 150/9/4 158/9/4 165/9/4
f 159/1/4 153/1/4 166/1/4
f 165/9/4 159/9/4 166/9/4
f 160/2/4 161/2/4 167/2/4
f 153/9/4 160/9/4 167/9/4
f 162/9/4 163/9/4 168/9/4
f 167/2/4 161/2/4 168/2/4
f 161/9/4 162/9/4 168/9/4
f 163/9/4 164/9/4 168/9/4
f 168/9/4 164/9/4 169/9/4
f 164/9/4 143/9/4 170/9/4
f 169/9/4 164/9/4 170/9/4
f 150/9/4 165/9/4 171/9/4
f 138/9/4 150/9/4 171/9/4
f 165/1/4 166/1/4 172/1/4
f 171/9/4 165/9/4 172/9/4
f 166/1/4 153/1/4 173/1/4
f 172/1/4 166/1/4 173/1/4
f 153/9/4 167/9/4 174/9/4
f 173/1/4 153/1/4 174/1/4
f 168/9/4 169/9/4 174/9/4
f 167/9/4 168/9/4 174/9/4
f 174/9/4 169/9/4 175/9/4
f 175/9/4 169/9/4 176/9/4
f 169/10/4 170/10/4 177/10/4
f 176/9/4 169/9/4 177/9/4
f 177/10/4 170/10/4 178/10/4
f 172/1/4 173/1/4 179/1/4
f 138/9/4 171/9/4 179/9/4
f 171/1/4 172/1/4 179/1/4
f 173/9/4 174/9/4 180/9/4
f 179/1/4 173/1/4 180/1/4
f 174/9/4 175/9/4 180/9/4
f 175/7/4 176/7/4 181/7/4
f 180/9/4 175/9/4 181/9/4
f 176/9/4 177/9/4 182/9/4
f 181/7/4 176/7/4 182/7/4
f 177/6/4 178/6/4 183/6/4
f 182/9/4 177/9/4 183/9/4
f 178/10/4 170/10/4 184/10/4
f 183/6/4 178/6/4 184/6/4
f 170/9/4 143/9/4 185/9/4
f 184/10/4 170/10/4 185/10/4
f 182/9/4 183/9/4 186/9/4
f 183/9/4 184/9/4 186/9/4
f 184/9/4 185/9/4 186/9/4
f 181/9/4 182/9/4 186/9/4
f 179/9/4 180/9/4 186/9/4
f 180/9/4 181/9/4 186/9/4
f 143/1/4 141/1/4 187/1/4
f 186/9/4 185/9/4 187/9/4
f 185/9/4 143/9/4 187/9/4
f 134/8/4 138/8/4 188/8/4
f 179/9/4 186/9/4 188/9/4
f 138/9/4 179/9/4 188/9/4
f 186/1/4 187/1/4 189/1/4
f 188/9/4 186/9/4 189/9/4
f 187/1/4 141/1/4 190/1/4
f 189/1/4 187/1/4 190/1/4
f 141/10/4 130/10/4 191/10/4
f 190/1/4 141/1/4 191/1/4
f 131/4/4 132/4/4 192/4/4
f 132/8/4 133/8/4 193/8/4
f 192/4/4 132/4/4 193/4/4
f 133/5/4 134/5/4 194/5/4
f 193/8/4 133/8/4 194/8/4
f 134/8/4 188/8/4 195/8/4
f 194/5/4 134/5/4 195/5/4
f 188/10/4 189/10/4 196/10/4
f 195/8/4 188/8/4 196/8/4
f 189/1/4 190/1/4 197/1/4
f 196/10/4 189/10/4 197/10/4
f 190/10/4 191/10/4 198/10/4
f 197/1/4 190/1/4 198/1/4
f 192/10/4 193/10/4 199/10/4
f 195/10/4 196/10/4 199/10/4
f 197/10/4 198/10/4 199/10/4
f 196/10/4 197/10/4 199/10/4
f 193/10/4 194/10/4 199/10/4
f 194/10/4 195/10/4 199/10/4
f 191/10/4 130/10/4 200/10/4
f 199/10/4 198/10/4 200/10/4
f 198/10/4 191/10/4 200/10/4
f 201/3/4 202/3/4 204/3/4
f 204/3/4 202/3/4 205/3/4
f 203/3/4 204/3/4 207/3/4
f 205/3/4 206/3/4 207/3/4
f 204/3/4 205/3/4 207/3/4
f 207/3/4 206/3/4 208/3/4
f 203/3/4 207/3/4 209/3/4
f 208/3/4 206/3/4 210/3/4
f 203/3/4 209/3/4 211/3/4
f 209/3/4 210/3/4 211/3/4
f 211/3/4 210/3/4 212/3/4
f 210/3/4 206/3/4 213/3/4
f 212/3/4 210/3/4 213/3/4
f 213/3/4 206/3/4 214/3/4
f 212/3/4 213/3/4 215/3/4
f 215/3/4 213/3/4 216/3/4
f 219/3/5 218/3/5 217/3/5
f 220/3/5 218/3/5 219/3/5
f 225/3/5 222/3/5 221/3/5
f 226/3/5 222/3/5 225/3/5
f 227/3/5 224/3/5 223/3/5
f 228/3/5 224/3/5 227/3/5
f 231/3/5 230/3/5 229/3/5
f 232/3/5 230/3/5 231/3/5
f 235/3/5 234/3/5 233/3/5
f 236/3/5 234/3/5 235/3/5
f 237/3/6 238/3/6 239/3/6
f 239/3/6 238/3/6 240/3/6
f 240/3/6 238/3/6 241/3/6
f 241/3/6 238/3/6 242/3/6
f 243/3/6 244/3/6 247/3/6
f 245/3/6 246/3/6 247/3/6
f 244/3/6 245/3/6 247/3/6
f 247/3/6 246/3/6 248/3/6
f 249/3/6 250/3/6 253/3/6
f 253/3/6 250/3/6 254/3/6
f 251/3/6 252/3/6 255/3/6
f 255/3/6 252/3/6 256/3/6
f 257/3/6 258/3/6 259/3/6
f 259/3/6 258/3/6 260/3/6
