# MagicaVoxel @ Ephtracy

# group
o 

# material
mtllib Project-9.mtl
usemtl palette

# normals
vn -1 0 0
vn 1 0 0
vn 0 0 1
vn 0 0 -1
vn 0 -1 0
vn 0 1 0

# texcoords
vt 0.958984 0.5
vt 0.994141 0.5

# verts
v -0.1 0 11.7
v -0.1 0 10.1
v -0.1 0.1 11.4
v -0.1 0.1 11.3
v -0.1 0.1 11.2
v -0.1 0.1 11.1
v -0.1 0.1 11
v -0.1 0.1 10.9
v -0.1 0.1 10.8
v -0.1 0.1 10.7
v -0.1 0.1 10.6
v -0.1 0.1 10.5
v -0.1 0.1 10.3
v -0.1 0.1 10.2
v -0.1 0.2 11.4
v -0.1 0.2 11.3
v -0.1 0.2 10.6
v -0.1 0.2 10.5
v -0.1 0.3 11.4
v -0.1 0.3 11.3
v -0.1 0.3 11
v -0.1 0.3 10.9
v -0.1 0.3 10.8
v -0.1 0.3 10.7
v -0.1 0.3 10.6
v -0.1 0.3 10.5
v -0.1 0.3 10.3
v -0.1 0.3 10.2
v -0.1 0.4 11.4
v -0.1 0.4 11.3
v -0.1 0.4 11.2
v -0.1 0.4 11.1
v -0.1 0.4 11
v -0.1 0.4 10.9
v -0.1 0.4 10.8
v -0.1 0.4 10.7
v -0.1 0.4 10.6
v -0.1 0.4 10.5
v -0.1 0.5 11.4
v -0.1 0.5 11.3
v -0.1 0.5 11.2
v -0.1 0.5 11.1
v -0.1 0.5 11
v -0.1 0.5 10.9
v -0.1 0.5 10.8
v -0.1 0.5 10.7
v -0.1 0.5 10.6
v -0.1 0.5 10.5
v -0.1 0.5 10.3
v -0.1 0.5 10.2
v -0.1 0.6 11.4
v -0.1 0.6 11.3
v -0.1 0.6 11.2
v -0.1 0.6 11.1
v -0.1 0.6 11
v -0.1 0.6 10.9
v -0.1 0.6 10.8
v -0.1 0.6 10.7
v -0.1 0.6 10.6
v -0.1 0.6 10.5
v -0.1 0.6 10.3
v -0.1 0.6 10.2
v -0.1 0.7 11.4
v -0.1 0.7 11.3
v -0.1 0.7 11.2
v -0.1 0.7 11.1
v -0.1 0.7 11
v -0.1 0.7 10.9
v -0.1 0.7 10.8
v -0.1 0.7 10.7
v -0.1 0.7 10.6
v -0.1 0.7 10.5
v -0.1 0.7 10.3
v -0.1 0.7 10.2
v -0.1 0.8 11.4
v -0.1 0.8 11.3
v -0.1 0.8 11.2
v -0.1 0.8 11.1
v -0.1 0.8 11
v -0.1 0.8 10.9
v -0.1 0.8 10.8
v -0.1 0.8 10.7
v -0.1 0.8 10.6
v -0.1 0.8 10.5
v -0.1 0.8 10.3
v -0.1 0.8 10.2
v -0.1 0.9 11.4
v -0.1 0.9 11.3
v -0.1 0.9 11.2
v -0.1 0.9 11.1
v -0.1 0.9 11
v -0.1 0.9 10.9
v -0.1 0.9 10.8
v -0.1 0.9 10.7
v -0.1 0.9 10.6
v -0.1 0.9 10.5
v -0.1 0.9 10.3
v -0.1 0.9 10.2
v -0.1 1 11.2
v -0.1 1 11.1
v -0.1 1 11
v -0.1 1 10.9
v -0.1 1 10.8
v -0.1 1 10.7
v -0.1 1 10.6
v -0.1 1 10.5
v -0.1 1 10.3
v -0.1 1 10.2
v -0.1 1.1 11.2
v -0.1 1.1 11.1
v -0.1 1.1 11
v -0.1 1.1 10.9
v -0.1 1.1 10.8
v -0.1 1.1 10.7
v -0.1 1.1 10.6
v -0.1 1.1 10.5
v -0.1 1.1 10.3
v -0.1 1.1 10.2
v -0.1 1.2 11.2
v -0.1 1.2 11.1
v -0.1 1.2 11
v -0.1 1.2 10.9
v -0.1 1.2 10.8
v -0.1 1.2 10.7
v -0.1 1.2 10.6
v -0.1 1.2 10.5
v -0.1 1.2 10.3
v -0.1 1.2 10.2
v -0.1 1.3 11.2
v -0.1 1.3 11.1
v -0.1 1.3 11
v -0.1 1.3 10.9
v -0.1 1.3 10.8
v -0.1 1.3 10.7
v -0.1 1.3 10.6
v -0.1 1.3 10.5
v -0.1 1.3 10.3
v -0.1 1.3 10.2
v -0.1 1.4 11.2
v -0.1 1.4 11.1
v -0.1 1.4 11
v -0.1 1.4 10.9
v -0.1 1.4 10.8
v -0.1 1.4 10.7
v -0.1 1.4 10.6
v -0.1 1.4 10.5
v -0.1 1.4 10.3
v -0.1 1.4 10.2
v -0.1 1.5 11.2
v -0.1 1.5 11.1
v -0.1 1.5 11
v -0.1 1.5 10.9
v -0.1 1.5 10.8
v -0.1 1.5 10.7
v -0.1 1.5 10.6
v -0.1 1.5 10.5
v -0.1 1.5 10.3
v -0.1 1.5 10.2
v -0.1 1.6 11.2
v -0.1 1.6 11.1
v -0.1 1.6 11
v -0.1 1.6 10.9
v -0.1 1.6 10.8
v -0.1 1.6 10.7
v -0.1 1.6 10.6
v -0.1 1.6 10.5
v -0.1 1.6 10.3
v -0.1 1.6 10.2
v -0.1 1.7 11.2
v -0.1 1.7 11.1
v -0.1 1.7 11
v -0.1 1.7 10.9
v -0.1 1.7 10.8
v -0.1 1.7 10.7
v -0.1 1.7 10.6
v -0.1 1.7 10.5
v -0.1 1.7 10.3
v -0.1 1.7 10.2
v -0.1 1.8 11.2
v -0.1 1.8 11.1
v -0.1 1.8 11
v -0.1 1.8 10.9
v -0.1 1.8 10.8
v -0.1 1.8 10.7
v -0.1 1.8 10.6
v -0.1 1.8 10.5
v -0.1 1.8 10.3
v -0.1 1.8 10.2
v -0.1 1.9 11.4
v -0.1 1.9 11.3
v -0.1 1.9 11.2
v -0.1 1.9 11.1
v -0.1 1.9 11
v -0.1 1.9 10.9
v -0.1 1.9 10.8
v -0.1 1.9 10.7
v -0.1 1.9 10.6
v -0.1 1.9 10.5
v -0.1 1.9 10.3
v -0.1 1.9 10.2
v -0.1 2 11.4
v -0.1 2 11.3
v -0.1 2 11.2
v -0.1 2 11.1
v -0.1 2 11
v -0.1 2 10.9
v -0.1 2 10.8
v -0.1 2 10.7
v -0.1 2 10.6
v -0.1 2 10.5
v -0.1 2 10.3
v -0.1 2 10.2
v -0.1 2.1 11.2
v -0.1 2.1 11.1
v -0.1 2.1 11
v -0.1 2.1 10.9
v -0.1 2.1 10.8
v -0.1 2.1 10.7
v -0.1 2.1 10.6
v -0.1 2.1 10.5
v -0.1 2.1 10.3
v -0.1 2.1 10.2
v -0.1 2.2 11.4
v -0.1 2.2 11.3
v -0.1 2.2 11.2
v -0.1 2.2 11.1
v -0.1 2.2 11
v -0.1 2.2 10.9
v -0.1 2.2 10.8
v -0.1 2.2 10.7
v -0.1 2.2 10.6
v -0.1 2.2 10.5
v -0.1 2.2 10.3
v -0.1 2.2 10.2
v -0.1 2.3 11.4
v -0.1 2.3 11.3
v -0.1 2.3 11.2
v -0.1 2.3 11.1
v -0.1 2.3 11
v -0.1 2.3 10.9
v -0.1 2.3 10.8
v -0.1 2.3 10.7
v -0.1 2.3 10.6
v -0.1 2.3 10.5
v -0.1 2.3 10.3
v -0.1 2.3 10.2
v -0.1 2.4 11.2
v -0.1 2.4 11.1
v -0.1 2.4 11
v -0.1 2.4 10.9
v -0.1 2.4 10.8
v -0.1 2.4 10.7
v -0.1 2.4 10.6
v -0.1 2.4 10.5
v -0.1 2.4 10.3
v -0.1 2.4 10.2
v -0.1 2.5 11.4
v -0.1 2.5 11.3
v -0.1 2.5 11
v -0.1 2.5 10.9
v -0.1 2.5 10.8
v -0.1 2.5 10.7
v -0.1 2.5 10.6
v -0.1 2.5 10.5
v -0.1 2.5 10.3
v -0.1 2.5 10.2
v -0.1 2.6 10.8
v -0.1 2.6 10.7
v -0.1 2.6 10.6
v -0.1 2.6 10.5
v -0.1 2.6 10.3
v -0.1 2.6 10.2
v -0.1 2.7 11.4
v -0.1 2.7 11.3
v -0.1 2.7 10.8
v -0.1 2.7 10.7
v -0.1 2.8 11.4
v -0.1 2.8 11.3
v -0.1 2.9 11.4
v -0.1 2.9 11.3
v -0.1 2.9 11.2
v -0.1 2.9 11.1
v -0.1 2.9 10.9
v -0.1 2.9 10.7
v -0.1 2.9 10.4
v -0.1 2.9 10.3
v -0.1 3 11.4
v -0.1 3 11.3
v -0.1 3 11.2
v -0.1 3 11.1
v -0.1 3 10.9
v -0.1 3 10.7
v -0.1 3 10.4
v -0.1 3 10.3
v -0.1 3.1 11.4
v -0.1 3.1 11.3
v -0.1 3.1 10.9
v -0.1 3.1 10.8
v -0.1 3.1 10.7
v -0.1 3.1 10.6
v -0.1 3.1 10.4
v -0.1 3.1 10.3
v -0.1 3.2 11.4
v -0.1 3.2 11.3
v -0.1 3.2 10.9
v -0.1 3.2 10.8
v -0.1 3.2 10.7
v -0.1 3.2 10.6
v -0.1 3.2 10.4
v -0.1 3.2 10.3
v -0.1 3.3 11.4
v -0.1 3.3 11.2
v -0.1 3.3 11
v -0.1 3.3 10.8
v -0.1 3.3 10.6
v -0.1 3.3 10.5
v -0.1 3.4 11.4
v -0.1 3.4 11.2
v -0.1 3.4 11
v -0.1 3.4 10.8
v -0.1 3.4 10.6
v -0.1 3.4 10.5
v -0.1 3.5 11.7
v -0.1 3.5 10.1
v 0.1 0 11.7
v 0.1 0 10.1
v 0.1 3.5 11.7
v 0.1 3.5 10.1
v -0.1 0 11.7
v -0.1 3.5 11.7
v 0.1 0 11.7
v 0.1 3.5 11.7
v -0.1 0 10.1
v -0.1 3.5 10.1
v 0.1 0 10.1
v 0.1 3.5 10.1
v -0.1 0 11.7
v 0.1 0 11.7
v -0.1 0 10.1
v 0.1 0 10.1
v -0.1 3.5 11.7
v 0.1 3.5 11.7
v -0.1 3.5 10.1
v 0.1 3.5 10.1

# faces
f 3/2/1 2/2/1 1/2/1
f 4/2/1 2/2/1 3/2/1
f 5/2/1 2/2/1 4/2/1
f 6/2/1 2/2/1 5/2/1
f 7/2/1 2/2/1 6/2/1
f 8/2/1 2/2/1 7/2/1
f 9/2/1 2/2/1 8/2/1
f 10/2/1 2/2/1 9/2/1
f 11/2/1 2/2/1 10/2/1
f 12/2/1 2/2/1 11/2/1
f 13/2/1 2/2/1 12/2/1
f 14/2/1 2/2/1 13/2/1
f 15/2/1 3/2/1 1/2/1
f 15/1/1 4/1/1 3/1/1
f 16/2/1 5/2/1 4/2/1
f 16/1/1 4/1/1 15/1/1
f 17/2/1 11/2/1 10/2/1
f 17/1/1 12/1/1 11/1/1
f 18/2/1 13/2/1 12/2/1
f 18/1/1 12/1/1 17/1/1
f 19/2/1 15/2/1 1/2/1
f 19/2/1 16/2/1 15/2/1
f 20/2/1 5/2/1 16/2/1
f 20/2/1 16/2/1 19/2/1
f 21/2/1 7/2/1 6/2/1
f 21/1/1 8/1/1 7/1/1
f 22/2/1 9/2/1 8/2/1
f 22/1/1 8/1/1 21/1/1
f 23/1/1 10/1/1 9/1/1
f 23/2/1 9/2/1 22/2/1
f 24/2/1 18/2/1 17/2/1
f 24/1/1 10/1/1 23/1/1
f 24/2/1 17/2/1 10/2/1
f 25/2/1 18/2/1 24/2/1
f 26/2/1 13/2/1 18/2/1
f 26/2/1 18/2/1 25/2/1
f 27/1/1 14/1/1 13/1/1
f 27/2/1 13/2/1 26/2/1
f 28/2/1 2/2/1 14/2/1
f 28/1/1 14/1/1 27/1/1
f 29/1/1 20/1/1 19/1/1
f 29/2/1 19/2/1 1/2/1
f 30/2/1 5/2/1 20/2/1
f 30/1/1 20/1/1 29/1/1
f 31/1/1 6/1/1 5/1/1
f 31/2/1 5/2/1 30/2/1
f 32/2/1 25/2/1 24/2/1
f 32/1/1 6/1/1 31/1/1
f 32/2/1 21/2/1 6/2/1
f 32/2/1 24/2/1 23/2/1
f 32/2/1 23/2/1 22/2/1
f 32/2/1 22/2/1 21/2/1
f 33/2/1 25/2/1 32/2/1
f 34/2/1 25/2/1 33/2/1
f 35/2/1 25/2/1 34/2/1
f 36/2/1 25/2/1 35/2/1
f 37/1/1 26/1/1 25/1/1
f 37/2/1 25/2/1 36/2/1
f 38/2/1 27/2/1 26/2/1
f 38/1/1 26/1/1 37/1/1
f 38/2/1 28/2/1 27/2/1
f 39/2/1 31/2/1 30/2/1
f 39/2/1 30/2/1 29/2/1
f 39/2/1 29/2/1 1/2/1
f 39/2/1 32/2/1 31/2/1
f 39/2/1 33/2/1 32/2/1
f 40/2/1 33/2/1 39/2/1
f 41/2/1 33/2/1 40/2/1
f 42/2/1 33/2/1 41/2/1
f 43/1/1 34/1/1 33/1/1
f 43/2/1 33/2/1 42/2/1
f 44/2/1 35/2/1 34/2/1
f 44/1/1 34/1/1 43/1/1
f 45/1/1 36/1/1 35/1/1
f 45/2/1 35/2/1 44/2/1
f 46/2/1 37/2/1 36/2/1
f 46/1/1 36/1/1 45/1/1
f 46/2/1 38/2/1 37/2/1
f 47/2/1 38/2/1 46/2/1
f 48/2/1 28/2/1 38/2/1
f 48/2/1 38/2/1 47/2/1
f 49/2/1 28/2/1 48/2/1
f 50/2/1 2/2/1 28/2/1
f 50/2/1 28/2/1 49/2/1
f 51/2/1 39/2/1 1/2/1
f 51/1/1 40/1/1 39/1/1
f 52/2/1 41/2/1 40/2/1
f 52/1/1 40/1/1 51/1/1
f 53/1/1 42/1/1 41/1/1
f 53/2/1 41/2/1 52/2/1
f 54/2/1 45/2/1 44/2/1
f 54/1/1 42/1/1 53/1/1
f 54/2/1 44/2/1 43/2/1
f 54/2/1 47/2/1 46/2/1
f 54/2/1 46/2/1 45/2/1
f 54/2/1 43/2/1 42/2/1
f 55/2/1 47/2/1 54/2/1
f 56/2/1 47/2/1 55/2/1
f 57/2/1 47/2/1 56/2/1
f 58/2/1 47/2/1 57/2/1
f 59/1/1 48/1/1 47/1/1
f 59/2/1 47/2/1 58/2/1
f 60/2/1 49/2/1 48/2/1
f 60/1/1 48/1/1 59/1/1
f 61/1/1 50/1/1 49/1/1
f 61/2/1 49/2/1 60/2/1
f 62/2/1 2/2/1 50/2/1
f 62/1/1 50/1/1 61/1/1
f 63/2/1 53/2/1 52/2/1
f 63/2/1 51/2/1 1/2/1
f 63/2/1 52/2/1 51/2/1
f 63/2/1 54/2/1 53/2/1
f 63/2/1 55/2/1 54/2/1
f 64/2/1 55/2/1 63/2/1
f 65/2/1 55/2/1 64/2/1
f 66/2/1 55/2/1 65/2/1
f 67/1/1 56/1/1 55/1/1
f 67/2/1 55/2/1 66/2/1
f 68/2/1 57/2/1 56/2/1
f 68/1/1 56/1/1 67/1/1
f 69/1/1 58/1/1 57/1/1
f 69/2/1 57/2/1 68/2/1
f 70/2/1 60/2/1 59/2/1
f 70/1/1 58/1/1 69/1/1
f 70/2/1 62/2/1 61/2/1
f 70/2/1 59/2/1 58/2/1
f 70/2/1 61/2/1 60/2/1
f 71/2/1 62/2/1 70/2/1
f 72/2/1 62/2/1 71/2/1
f 73/2/1 62/2/1 72/2/1
f 74/2/1 2/2/1 62/2/1
f 74/2/1 62/2/1 73/2/1
f 75/1/1 64/1/1 63/1/1
f 75/2/1 63/2/1 1/2/1
f 76/2/1 65/2/1 64/2/1
f 76/1/1 64/1/1 75/1/1
f 77/1/1 66/1/1 65/1/1
f 77/2/1 65/2/1 76/2/1
f 78/2/1 68/2/1 67/2/1
f 78/1/1 66/1/1 77/1/1
f 78/2/1 69/2/1 68/2/1
f 78/2/1 67/2/1 66/2/1
f 78/2/1 71/2/1 70/2/1
f 78/2/1 70/2/1 69/2/1
f 79/2/1 71/2/1 78/2/1
f 80/2/1 71/2/1 79/2/1
f 81/2/1 71/2/1 80/2/1
f 82/2/1 71/2/1 81/2/1
f 83/1/1 72/1/1 71/1/1
f 83/2/1 71/2/1 82/2/1
f 84/2/1 73/2/1 72/2/1
f 84/1/1 72/1/1 83/1/1
f 85/1/1 74/1/1 73/1/1
f 85/2/1 73/2/1 84/2/1
f 86/2/1 2/2/1 74/2/1
f 86/1/1 74/1/1 85/1/1
f 87/2/1 77/2/1 76/2/1
f 87/2/1 75/2/1 1/2/1
f 87/2/1 76/2/1 75/2/1
f 87/2/1 78/2/1 77/2/1
f 87/2/1 79/2/1 78/2/1
f 88/2/1 79/2/1 87/2/1
f 89/2/1 79/2/1 88/2/1
f 90/2/1 79/2/1 89/2/1
f 91/1/1 80/1/1 79/1/1
f 91/2/1 79/2/1 90/2/1
f 92/2/1 81/2/1 80/2/1
f 92/1/1 80/1/1 91/1/1
f 93/1/1 82/1/1 81/1/1
f 93/2/1 81/2/1 92/2/1
f 94/2/1 83/2/1 82/2/1
f 94/1/1 82/1/1 93/1/1
f 94/2/1 86/2/1 85/2/1
f 94/2/1 85/2/1 84/2/1
f 94/2/1 84/2/1 83/2/1
f 95/2/1 86/2/1 94/2/1
f 96/2/1 86/2/1 95/2/1
f 97/2/1 86/2/1 96/2/1
f 98/2/1 2/2/1 86/2/1
f 98/2/1 86/2/1 97/2/1
f 99/2/1 89/2/1 88/2/1
f 99/1/1 90/1/1 89/1/1
f 100/2/1 93/2/1 92/2/1
f 100/1/1 90/1/1 99/1/1
f 100/2/1 92/2/1 91/2/1
f 100/2/1 91/2/1 90/2/1
f 100/2/1 95/2/1 94/2/1
f 100/2/1 94/2/1 93/2/1
f 101/2/1 95/2/1 100/2/1
f 102/2/1 95/2/1 101/2/1
f 103/2/1 95/2/1 102/2/1
f 104/2/1 95/2/1 103/2/1
f 105/1/1 96/1/1 95/1/1
f 105/2/1 95/2/1 104/2/1
f 106/2/1 97/2/1 96/2/1
f 106/1/1 96/1/1 105/1/1
f 107/1/1 98/1/1 97/1/1
f 107/2/1 97/2/1 106/2/1
f 108/2/1 2/2/1 98/2/1
f 108/1/1 98/1/1 107/1/1
f 109/2/1 99/2/1 88/2/1
f 109/2/1 100/2/1 99/2/1
f 109/2/1 101/2/1 100/2/1
f 110/2/1 101/2/1 109/2/1
f 111/1/1 102/1/1 101/1/1
f 111/2/1 101/2/1 110/2/1
f 112/2/1 103/2/1 102/2/1
f 112/1/1 102/1/1 111/1/1
f 113/1/1 104/1/1 103/1/1
f 113/2/1 103/2/1 112/2/1
f 114/2/1 105/2/1 104/2/1
f 114/1/1 104/1/1 113/1/1
f 114/2/1 107/2/1 106/2/1
f 114/2/1 106/2/1 105/2/1
f 114/2/1 108/2/1 107/2/1
f 115/2/1 108/2/1 114/2/1
f 116/2/1 108/2/1 115/2/1
f 117/2/1 108/2/1 116/2/1
f 118/2/1 2/2/1 108/2/1
f 118/2/1 108/2/1 117/2/1
f 119/2/1 109/2/1 88/2/1
f 119/1/1 110/1/1 109/1/1
f 120/2/1 113/2/1 112/2/1
f 120/1/1 110/1/1 119/1/1
f 120/2/1 112/2/1 111/2/1
f 120/2/1 111/2/1 110/2/1
f 120/2/1 115/2/1 114/2/1
f 120/2/1 114/2/1 113/2/1
f 121/2/1 115/2/1 120/2/1
f 122/2/1 115/2/1 121/2/1
f 123/2/1 115/2/1 122/2/1
f 124/2/1 115/2/1 123/2/1
f 125/1/1 116/1/1 115/1/1
f 125/2/1 115/2/1 124/2/1
f 126/2/1 117/2/1 116/2/1
f 126/1/1 116/1/1 125/1/1
f 127/1/1 118/1/1 117/1/1
f 127/2/1 117/2/1 126/2/1
f 128/2/1 2/2/1 118/2/1
f 128/1/1 118/1/1 127/1/1
f 129/2/1 119/2/1 88/2/1
f 129/2/1 120/2/1 119/2/1
f 129/2/1 121/2/1 120/2/1
f 130/2/1 121/2/1 129/2/1
f 131/1/1 122/1/1 121/1/1
f 131/2/1 121/2/1 130/2/1
f 132/2/1 123/2/1 122/2/1
f 132/1/1 122/1/1 131/1/1
f 133/1/1 124/1/1 123/1/1
f 133/2/1 123/2/1 132/2/1
f 134/2/1 125/2/1 124/2/1
f 134/1/1 124/1/1 133/1/1
f 134/2/1 127/2/1 126/2/1
f 134/2/1 126/2/1 125/2/1
f 134/2/1 128/2/1 127/2/1
f 135/2/1 128/2/1 134/2/1
f 136/2/1 128/2/1 135/2/1
f 137/2/1 128/2/1 136/2/1
f 138/2/1 2/2/1 128/2/1
f 138/2/1 128/2/1 137/2/1
f 139/2/1 129/2/1 88/2/1
f 139/1/1 130/1/1 129/1/1
f 140/2/1 133/2/1 132/2/1
f 140/1/1 130/1/1 139/1/1
f 140/2/1 132/2/1 131/2/1
f 140/2/1 131/2/1 130/2/1
f 140/2/1 135/2/1 134/2/1
f 140/2/1 134/2/1 133/2/1
f 141/2/1 135/2/1 140/2/1
f 142/2/1 135/2/1 141/2/1
f 143/2/1 135/2/1 142/2/1
f 144/2/1 135/2/1 143/2/1
f 145/1/1 136/1/1 135/1/1
f 145/2/1 135/2/1 144/2/1
f 146/2/1 137/2/1 136/2/1
f 146/1/1 136/1/1 145/1/1
f 147/1/1 138/1/1 137/1/1
f 147/2/1 137/2/1 146/2/1
f 148/2/1 2/2/1 138/2/1
f 148/1/1 138/1/1 147/1/1
f 149/2/1 139/2/1 88/2/1
f 149/2/1 140/2/1 139/2/1
f 149/2/1 141/2/1 140/2/1
f 150/2/1 141/2/1 149/2/1
f 151/1/1 142/1/1 141/1/1
f 151/2/1 141/2/1 150/2/1
f 152/2/1 143/2/1 142/2/1
f 152/1/1 142/1/1 151/1/1
f 153/1/1 144/1/1 143/1/1
f 153/2/1 143/2/1 152/2/1
f 154/2/1 145/2/1 144/2/1
f 154/1/1 144/1/1 153/1/1
f 154/2/1 147/2/1 146/2/1
f 154/2/1 146/2/1 145/2/1
f 154/2/1 148/2/1 147/2/1
f 155/2/1 148/2/1 154/2/1
f 156/2/1 148/2/1 155/2/1
f 157/2/1 148/2/1 156/2/1
f 158/2/1 2/2/1 148/2/1
f 158/2/1 148/2/1 157/2/1
f 159/2/1 149/2/1 88/2/1
f 159/1/1 150/1/1 149/1/1
f 160/2/1 153/2/1 152/2/1
f 160/1/1 150/1/1 159/1/1
f 160/2/1 152/2/1 151/2/1
f 160/2/1 151/2/1 150/2/1
f 160/2/1 155/2/1 154/2/1
f 160/2/1 154/2/1 153/2/1
f 161/2/1 155/2/1 160/2/1
f 162/2/1 155/2/1 161/2/1
f 163/2/1 155/2/1 162/2/1
f 164/2/1 155/2/1 163/2/1
f 165/1/1 156/1/1 155/1/1
f 165/2/1 155/2/1 164/2/1
f 166/2/1 157/2/1 156/2/1
f 166/1/1 156/1/1 165/1/1
f 167/1/1 158/1/1 157/1/1
f 167/2/1 157/2/1 166/2/1
f 168/2/1 2/2/1 158/2/1
f 168/1/1 158/1/1 167/1/1
f 169/2/1 159/2/1 88/2/1
f 169/2/1 160/2/1 159/2/1
f 169/2/1 161/2/1 160/2/1
f 170/2/1 161/2/1 169/2/1
f 171/1/1 162/1/1 161/1/1
f 171/2/1 161/2/1 170/2/1
f 172/2/1 163/2/1 162/2/1
f 172/1/1 162/1/1 171/1/1
f 173/1/1 164/1/1 163/1/1
f 173/2/1 163/2/1 172/2/1
f 174/2/1 165/2/1 164/2/1
f 174/1/1 164/1/1 173/1/1
f 174/2/1 167/2/1 166/2/1
f 174/2/1 166/2/1 165/2/1
f 174/2/1 168/2/1 167/2/1
f 175/2/1 168/2/1 174/2/1
f 176/2/1 168/2/1 175/2/1
f 177/2/1 168/2/1 176/2/1
f 178/2/1 2/2/1 168/2/1
f 178/2/1 168/2/1 177/2/1
f 179/2/1 169/2/1 88/2/1
f 179/1/1 170/1/1 169/1/1
f 180/2/1 173/2/1 172/2/1
f 180/1/1 170/1/1 179/1/1
f 180/2/1 172/2/1 171/2/1
f 180/2/1 171/2/1 170/2/1
f 180/2/1 175/2/1 174/2/1
f 180/2/1 174/2/1 173/2/1
f 181/2/1 175/2/1 180/2/1
f 182/2/1 175/2/1 181/2/1
f 183/2/1 175/2/1 182/2/1
f 184/2/1 175/2/1 183/2/1
f 185/1/1 176/1/1 175/1/1
f 185/2/1 175/2/1 184/2/1
f 186/2/1 177/2/1 176/2/1
f 186/1/1 176/1/1 185/1/1
f 187/1/1 178/1/1 177/1/1
f 187/2/1 177/2/1 186/2/1
f 188/2/1 2/2/1 178/2/1
f 188/1/1 178/1/1 187/1/1
f 189/1/1 88/1/1 87/1/1
f 189/2/1 87/2/1 1/2/1
f 190/2/1 179/2/1 88/2/1
f 190/1/1 88/1/1 189/1/1
f 190/2/1 180/2/1 179/2/1
f 190/2/1 181/2/1 180/2/1
f 191/2/1 181/2/1 190/2/1
f 192/2/1 181/2/1 191/2/1
f 193/1/1 182/1/1 181/1/1
f 193/2/1 181/2/1 192/2/1
f 194/2/1 183/2/1 182/2/1
f 194/1/1 182/1/1 193/1/1
f 195/1/1 184/1/1 183/1/1
f 195/2/1 183/2/1 194/2/1
f 196/2/1 185/2/1 184/2/1
f 196/1/1 184/1/1 195/1/1
f 196/2/1 187/2/1 186/2/1
f 196/2/1 186/2/1 185/2/1
f 196/2/1 188/2/1 187/2/1
f 197/2/1 188/2/1 196/2/1
f 198/2/1 188/2/1 197/2/1
f 199/2/1 188/2/1 198/2/1
f 200/2/1 2/2/1 188/2/1
f 200/2/1 188/2/1 199/2/1
f 201/2/1 189/2/1 1/2/1
f 201/2/1 191/2/1 190/2/1
f 201/2/1 190/2/1 189/2/1
f 202/2/1 191/2/1 201/2/1
f 203/1/1 192/1/1 191/1/1
f 203/2/1 191/2/1 202/2/1
f 204/2/1 195/2/1 194/2/1
f 204/1/1 192/1/1 203/1/1
f 204/2/1 194/2/1 193/2/1
f 204/2/1 193/2/1 192/2/1
f 204/2/1 197/2/1 196/2/1
f 204/2/1 196/2/1 195/2/1
f 205/2/1 197/2/1 204/2/1
f 206/2/1 197/2/1 205/2/1
f 207/2/1 197/2/1 206/2/1
f 208/2/1 197/2/1 207/2/1
f 209/1/1 198/1/1 197/1/1
f 209/2/1 197/2/1 208/2/1
f 210/2/1 199/2/1 198/2/1
f 210/1/1 198/1/1 209/1/1
f 211/1/1 200/1/1 199/1/1
f 211/2/1 199/2/1 210/2/1
f 212/2/1 2/2/1 200/2/1
f 212/1/1 200/1/1 211/1/1
f 213/2/1 203/2/1 202/2/1
f 213/2/1 204/2/1 203/2/1
f 213/2/1 205/2/1 204/2/1
f 214/2/1 205/2/1 213/2/1
f 215/1/1 206/1/1 205/1/1
f 215/2/1 205/2/1 214/2/1
f 216/2/1 207/2/1 206/2/1
f 216/1/1 206/1/1 215/1/1
f 217/1/1 208/1/1 207/1/1
f 217/2/1 207/2/1 216/2/1
f 218/2/1 211/2/1 210/2/1
f 218/1/1 208/1/1 217/1/1
f 218/2/1 210/2/1 209/2/1
f 218/2/1 209/2/1 208/2/1
f 218/2/1 212/2/1 211/2/1
f 219/2/1 212/2/1 218/2/1
f 220/2/1 212/2/1 219/2/1
f 221/2/1 212/2/1 220/2/1
f 222/2/1 2/2/1 212/2/1
f 222/2/1 212/2/1 221/2/1
f 223/2/1 201/2/1 1/2/1
f 223/1/1 202/1/1 201/1/1
f 224/2/1 213/2/1 202/2/1
f 224/1/1 202/1/1 223/1/1
f 225/1/1 214/1/1 213/1/1
f 225/2/1 213/2/1 224/2/1
f 226/2/1 217/2/1 216/2/1
f 226/1/1 214/1/1 225/1/1
f 226/2/1 216/2/1 215/2/1
f 226/2/1 215/2/1 214/2/1
f 226/2/1 219/2/1 218/2/1
f 226/2/1 218/2/1 217/2/1
f 227/2/1 219/2/1 226/2/1
f 228/2/1 219/2/1 227/2/1
f 229/2/1 219/2/1 228/2/1
f 230/2/1 219/2/1 229/2/1
f 231/1/1 220/1/1 219/1/1
f 231/2/1 219/2/1 230/2/1
f 232/2/1 221/2/1 220/2/1
f 232/1/1 220/1/1 231/1/1
f 233/1/1 222/1/1 221/1/1
f 233/2/1 221/2/1 232/2/1
f 234/2/1 2/2/1 222/2/1
f 234/1/1 222/1/1 233/1/1
f 235/2/1 225/2/1 224/2/1
f 235/2/1 223/2/1 1/2/1
f 235/2/1 224/2/1 223/2/1
f 235/2/1 226/2/1 225/2/1
f 235/2/1 227/2/1 226/2/1
f 236/2/1 227/2/1 235/2/1
f 237/2/1 227/2/1 236/2/1
f 238/2/1 227/2/1 237/2/1
f 239/1/1 228/1/1 227/1/1
f 239/2/1 227/2/1 238/2/1
f 240/2/1 229/2/1 228/2/1
f 240/1/1 228/1/1 239/1/1
f 241/1/1 230/1/1 229/1/1
f 241/2/1 229/2/1 240/2/1
f 242/2/1 231/2/1 230/2/1
f 242/1/1 230/1/1 241/1/1
f 242/2/1 233/2/1 232/2/1
f 242/2/1 234/2/1 233/2/1
f 242/2/1 232/2/1 231/2/1
f 243/2/1 234/2/1 242/2/1
f 244/2/1 234/2/1 243/2/1
f 245/2/1 234/2/1 244/2/1
f 246/2/1 2/2/1 234/2/1
f 246/2/1 234/2/1 245/2/1
f 247/2/1 237/2/1 236/2/1
f 247/1/1 238/1/1 237/1/1
f 248/2/1 241/2/1 240/2/1
f 248/1/1 238/1/1 247/1/1
f 248/2/1 240/2/1 239/2/1
f 248/2/1 239/2/1 238/2/1
f 248/2/1 243/2/1 242/2/1
f 248/2/1 242/2/1 241/2/1
f 249/2/1 243/2/1 248/2/1
f 250/2/1 243/2/1 249/2/1
f 251/2/1 243/2/1 250/2/1
f 252/2/1 243/2/1 251/2/1
f 253/1/1 244/1/1 243/1/1
f 253/2/1 243/2/1 252/2/1
f 254/2/1 245/2/1 244/2/1
f 254/1/1 244/1/1 253/1/1
f 255/1/1 246/1/1 245/1/1
f 255/2/1 245/2/1 254/2/1
f 256/2/1 2/2/1 246/2/1
f 256/1/1 246/1/1 255/1/1
f 257/1/1 236/1/1 235/1/1
f 257/2/1 235/2/1 1/2/1
f 258/2/1 247/2/1 236/2/1
f 258/1/1 236/1/1 257/1/1
f 258/2/1 248/2/1 247/2/1
f 258/2/1 249/2/1 248/2/1
f 259/1/1 250/1/1 249/1/1
f 259/2/1 249/2/1 258/2/1
f 260/2/1 251/2/1 250/2/1
f 260/1/1 250/1/1 259/1/1
f 261/1/1 252/1/1 251/1/1
f 261/2/1 251/2/1 260/2/1
f 262/2/1 253/2/1 252/2/1
f 262/1/1 252/1/1 261/1/1
f 262/2/1 255/2/1 254/2/1
f 262/2/1 254/2/1 253/2/1
f 262/2/1 256/2/1 255/2/1
f 263/2/1 256/2/1 262/2/1
f 264/2/1 256/2/1 263/2/1
f 265/2/1 256/2/1 264/2/1
f 266/2/1 2/2/1 256/2/1
f 266/2/1 256/2/1 265/2/1
f 267/2/1 261/2/1 260/2/1
f 267/2/1 258/2/1 257/2/1
f 267/2/1 260/2/1 259/2/1
f 267/2/1 259/2/1 258/2/1
f 267/2/1 263/2/1 262/2/1
f 267/2/1 262/2/1 261/2/1
f 268/2/1 263/2/1 267/2/1
f 269/1/1 264/1/1 263/1/1
f 269/2/1 263/2/1 268/2/1
f 270/2/1 265/2/1 264/2/1
f 270/1/1 264/1/1 269/1/1
f 271/1/1 266/1/1 265/1/1
f 271/2/1 265/2/1 270/2/1
f 272/2/1 2/2/1 266/2/1
f 272/1/1 266/1/1 271/1/1
f 273/2/1 257/2/1 1/2/1
f 273/2/1 267/2/1 257/2/1
f 274/2/1 267/2/1 273/2/1
f 275/1/1 268/1/1 267/1/1
f 275/2/1 267/2/1 274/2/1
f 276/2/1 271/2/1 270/2/1
f 276/1/1 268/1/1 275/1/1
f 276/2/1 270/2/1 269/2/1
f 276/2/1 269/2/1 268/2/1
f 276/2/1 272/2/1 271/2/1
f 277/2/1 273/2/1 1/2/1
f 277/1/1 274/1/1 273/1/1
f 278/2/1 275/2/1 274/2/1
f 278/1/1 274/1/1 277/1/1
f 278/2/1 276/2/1 275/2/1
f 279/2/1 277/2/1 1/2/1
f 279/2/1 278/2/1 277/2/1
f 280/2/1 276/2/1 278/2/1
f 280/2/1 278/2/1 279/2/1
f 281/2/1 276/2/1 280/2/1
f 282/2/1 276/2/1 281/2/1
f 283/2/1 276/2/1 282/2/1
f 284/2/1 272/2/1 276/2/1
f 284/2/1 276/2/1 283/2/1
f 285/2/1 272/2/1 284/2/1
f 286/2/1 272/2/1 285/2/1
f 287/2/1 279/2/1 1/2/1
f 287/1/1 280/1/1 279/1/1
f 288/2/1 281/2/1 280/2/1
f 288/1/1 280/1/1 287/1/1
f 289/1/1 282/1/1 281/1/1
f 289/2/1 281/2/1 288/2/1
f 290/2/1 283/2/1 282/2/1
f 290/1/1 282/1/1 289/1/1
f 291/1/1 284/1/1 283/1/1
f 291/2/1 283/2/1 290/2/1
f 292/2/1 285/2/1 284/2/1
f 292/1/1 284/1/1 291/1/1
f 293/1/1 286/1/1 285/1/1
f 293/2/1 285/2/1 292/2/1
f 294/2/1 272/2/1 286/2/1
f 294/1/1 286/1/1 293/1/1
f 295/2/1 293/2/1 292/2/1
f 295/2/1 289/2/1 288/2/1
f 295/2/1 294/2/1 293/2/1
f 295/2/1 291/2/1 290/2/1
f 295/2/1 290/2/1 289/2/1
f 295/2/1 288/2/1 287/2/1
f 295/2/1 287/2/1 1/2/1
f 295/2/1 292/2/1 291/2/1
f 296/2/1 294/2/1 295/2/1
f 297/2/1 294/2/1 296/2/1
f 298/2/1 294/2/1 297/2/1
f 299/2/1 294/2/1 298/2/1
f 300/2/1 294/2/1 299/2/1
f 301/2/1 294/2/1 300/2/1
f 302/2/1 272/2/1 294/2/1
f 302/2/1 294/2/1 301/2/1
f 303/2/1 295/2/1 1/2/1
f 303/1/1 296/1/1 295/1/1
f 304/2/1 297/2/1 296/2/1
f 304/1/1 296/1/1 303/1/1
f 305/1/1 298/1/1 297/1/1
f 305/2/1 297/2/1 304/2/1
f 306/2/1 299/2/1 298/2/1
f 306/1/1 298/1/1 305/1/1
f 307/1/1 300/1/1 299/1/1
f 307/2/1 299/2/1 306/2/1
f 308/2/1 301/2/1 300/2/1
f 308/1/1 300/1/1 307/1/1
f 309/1/1 302/1/1 301/1/1
f 309/2/1 301/2/1 308/2/1
f 310/2/1 272/2/1 302/2/1
f 310/1/1 302/1/1 309/1/1
f 311/2/1 307/2/1 306/2/1
f 311/2/1 309/2/1 308/2/1
f 311/2/1 310/2/1 309/2/1
f 311/2/1 306/2/1 305/2/1
f 311/2/1 305/2/1 304/2/1
f 311/2/1 304/2/1 303/2/1
f 311/2/1 303/2/1 1/2/1
f 311/2/1 308/2/1 307/2/1
f 312/2/1 310/2/1 311/2/1
f 313/2/1 310/2/1 312/2/1
f 314/2/1 310/2/1 313/2/1
f 315/2/1 310/2/1 314/2/1
f 316/2/1 310/2/1 315/2/1
f 317/2/1 311/2/1 1/2/1
f 317/1/1 312/1/1 311/1/1
f 318/2/1 313/2/1 312/2/1
f 318/1/1 312/1/1 317/1/1
f 319/1/1 314/1/1 313/1/1
f 319/2/1 313/2/1 318/2/1
f 320/2/1 315/2/1 314/2/1
f 320/1/1 314/1/1 319/1/1
f 321/1/1 316/1/1 315/1/1
f 321/2/1 315/2/1 320/2/1
f 322/2/1 310/2/1 316/2/1
f 322/1/1 316/1/1 321/1/1
f 323/2/1 321/2/1 320/2/1
f 323/2/1 320/2/1 319/2/1
f 323/2/1 322/2/1 321/2/1
f 323/2/1 319/2/1 318/2/1
f 323/2/1 318/2/1 317/2/1
f 323/2/1 317/2/1 1/2/1
f 324/2/1 272/2/1 310/2/1
f 324/2/1 322/2/1 323/2/1
f 324/2/1 2/2/1 272/2/1
f 324/2/1 310/2/1 322/2/1
f 325/2/2 326/2/2 327/2/2
f 327/2/2 326/2/2 328/2/2
f 331/2/3 330/2/3 329/2/3
f 332/2/3 330/2/3 331/2/3
f 333/2/4 334/2/4 335/2/4
f 335/2/4 334/2/4 336/2/4
f 339/2/5 338/2/5 337/2/5
f 340/2/5 338/2/5 339/2/5
f 341/2/6 342/2/6 343/2/6
f 343/2/6 342/2/6 344/2/6
