# MagicaVoxel @ Ephtracy

# group
o 

# material
mtllib Project-5.mtl
usemtl palette

# normals
vn -1 0 0
vn 1 0 0
vn 0 0 1
vn 0 0 -1
vn 0 -1 0
vn 0 1 0

# texcoords
vt 0.931641 0.5
vt 0.951172 0.5
vt 0.990234 0.5

# verts
v -0.2 0 4.7
v -0.2 0 4.4
v -0.2 0.3 4.7
v -0.2 0.3 4.6
v -0.2 0.6 4.7
v -0.2 0.6 4.6
v -0.2 0.9 4.7
v -0.2 0.9 4.4
v -0.1 0.9 5
v -0.1 0.9 4.7
v -0.1 0.9 4.6
v -0.1 0.9 4.4
v -0.1 1.4 4.7
v -0.1 1.4 4.6
v -0.1 1.7 4.6
v -0.1 1.7 4.5
v -0.1 1.8 4.6
v -0.1 1.8 4.5
v -0.1 1.9 5
v -0.1 1.9 4.7
v -0.1 1.9 4.4
v 0 0.9 5
v 0 0.9 4.7
v 0 0.9 4.6
v 0 0.9 4.4
v 0 1.4 4.7
v 0 1.4 4.6
v 0 1.7 4.6
v 0 1.7 4.5
v 0 1.8 4.6
v 0 1.8 4.5
v 0 1.9 5
v 0 1.9 4.7
v 0 1.9 4.4
v 0.1 0 4.7
v 0.1 0 4.4
v 0.1 0.3 4.7
v 0.1 0.3 4.6
v 0.1 0.6 4.7
v 0.1 0.6 4.6
v 0.1 0.9 4.7
v 0.1 0.9 4.4
v -0.1 0.9 5
v -0.1 1.9 5
v 0 0.9 5
v 0 1.9 5
v -0.2 0 4.7
v -0.2 0.3 4.7
v -0.2 0.6 4.7
v -0.2 0.9 4.7
v -0.1 0.9 4.7
v 0 0.9 4.7
v 0.1 0 4.7
v 0.1 0.3 4.7
v 0.1 0.6 4.7
v 0.1 0.9 4.7
v -0.2 0.3 4.6
v -0.2 0.6 4.6
v 0.1 0.3 4.6
v 0.1 0.6 4.6
v -0.1 1.7 4.5
v -0.1 1.8 4.5
v 0 1.7 4.5
v 0 1.8 4.5
v -0.1 1.7 4.6
v -0.1 1.8 4.6
v 0 1.7 4.6
v 0 1.8 4.6
v -0.2 0 4.4
v -0.2 0.9 4.4
v -0.1 0.9 4.4
v -0.1 1.9 4.4
v 0 0.9 4.4
v 0 1.9 4.4
v 0.1 0 4.4
v 0.1 0.9 4.4
v -0.2 0 4.7
v 0.1 0 4.7
v -0.2 0 4.4
v 0.1 0 4.4
v -0.2 0.6 4.7
v 0.1 0.6 4.7
v -0.2 0.6 4.6
v 0.1 0.6 4.6
v -0.1 0.9 5
v 0 0.9 5
v -0.1 0.9 4.7
v 0 0.9 4.7
v -0.1 1.8 4.6
v 0 1.8 4.6
v -0.1 1.8 4.5
v 0 1.8 4.5
v -0.2 0.3 4.7
v 0.1 0.3 4.7
v -0.2 0.3 4.6
v 0.1 0.3 4.6
v -0.2 0.9 4.7
v -0.1 0.9 4.7
v 0 0.9 4.7
v 0.1 0.9 4.7
v -0.1 0.9 4.6
v 0 0.9 4.6
v -0.2 0.9 4.4
v -0.1 0.9 4.4
v 0 0.9 4.4
v 0.1 0.9 4.4
v -0.1 1.7 4.6
v 0 1.7 4.6
v -0.1 1.7 4.5
v 0 1.7 4.5
v -0.1 1.9 5
v 0 1.9 5
v -0.1 1.9 4.7
v 0 1.9 4.7
v -0.1 1.9 4.4
v 0 1.9 4.4

# faces
f 3/3/1 2/3/1 1/3/1
f 4/3/1 2/3/1 3/3/1
f 6/3/1 2/3/1 4/3/1
f 7/3/1 6/3/1 5/3/1
f 8/3/1 2/3/1 6/3/1
f 8/3/1 6/3/1 7/3/1
f 13/1/1 10/1/1 9/1/1
f 13/1/1 11/1/1 10/1/1
f 14/2/1 12/2/1 11/2/1
f 14/1/1 11/1/1 13/1/1
f 15/2/1 14/2/1 13/2/1
f 15/2/1 12/2/1 14/2/1
f 16/2/1 12/2/1 15/2/1
f 17/2/1 15/2/1 13/2/1
f 18/2/1 12/2/1 16/2/1
f 19/1/1 13/1/1 9/1/1
f 20/2/1 18/2/1 17/2/1
f 20/1/1 13/1/1 19/1/1
f 20/2/1 17/2/1 13/2/1
f 21/2/1 12/2/1 18/2/1
f 21/2/1 18/2/1 20/2/1
f 22/1/2 23/1/2 26/1/2
f 23/1/2 24/1/2 26/1/2
f 24/2/2 25/2/2 27/2/2
f 26/1/2 24/1/2 27/1/2
f 26/2/2 27/2/2 28/2/2
f 27/2/2 25/2/2 28/2/2
f 28/2/2 25/2/2 29/2/2
f 26/2/2 28/2/2 30/2/2
f 29/2/2 25/2/2 31/2/2
f 22/1/2 26/1/2 32/1/2
f 30/2/2 31/2/2 33/2/2
f 32/1/2 26/1/2 33/1/2
f 26/2/2 30/2/2 33/2/2
f 31/2/2 25/2/2 34/2/2
f 33/2/2 31/2/2 34/2/2
f 35/3/2 36/3/2 37/3/2
f 37/3/2 36/3/2 38/3/2
f 38/3/2 36/3/2 40/3/2
f 39/3/2 40/3/2 41/3/2
f 40/3/2 36/3/2 42/3/2
f 41/3/2 40/3/2 42/3/2
f 45/1/3 44/1/3 43/1/3
f 46/1/3 44/1/3 45/1/3
f 51/3/3 50/3/3 49/3/3
f 52/3/3 51/3/3 49/3/3
f 53/3/3 48/3/3 47/3/3
f 54/3/3 48/3/3 53/3/3
f 55/3/3 52/3/3 49/3/3
f 56/3/3 52/3/3 55/3/3
f 59/3/3 58/3/3 57/3/3
f 60/3/3 58/3/3 59/3/3
f 63/2/3 62/2/3 61/2/3
f 64/2/3 62/2/3 63/2/3
f 65/2/4 66/2/4 67/2/4
f 67/2/4 66/2/4 68/2/4
f 69/3/4 70/3/4 71/3/4
f 69/3/4 71/3/4 73/3/4
f 71/2/4 72/2/4 73/2/4
f 73/2/4 72/2/4 74/2/4
f 69/3/4 73/3/4 75/3/4
f 75/3/4 73/3/4 76/3/4
f 79/3/5 78/3/5 77/3/5
f 80/3/5 78/3/5 79/3/5
f 83/3/5 82/3/5 81/3/5
f 84/3/5 82/3/5 83/3/5
f 87/1/5 86/1/5 85/1/5
f 88/1/5 86/1/5 87/1/5
f 91/2/5 90/2/5 89/2/5
f 92/2/5 90/2/5 91/2/5
f 93/3/6 94/3/6 95/3/6
f 95/3/6 94/3/6 96/3/6
f 97/3/6 98/3/6 101/3/6
f 99/3/6 100/3/6 102/3/6
f 97/3/6 101/3/6 103/3/6
f 103/3/6 101/3/6 104/3/6
f 102/3/6 100/3/6 105/3/6
f 105/3/6 100/3/6 106/3/6
f 107/2/6 108/2/6 109/2/6
f 109/2/6 108/2/6 110/2/6
f 111/1/6 112/1/6 113/1/6
f 113/1/6 112/1/6 114/1/6
f 113/2/6 114/2/6 115/2/6
f 115/2/6 114/2/6 116/2/6
