# MagicaVoxel @ Ephtracy

# group
o 

# material
mtllib untitled-3.mtl
usemtl palette

# normals
vn -1 0 0
vn 1 0 0
vn 0 0 1
vn 0 0 -1
vn 0 -1 0
vn 0 1 0

# texcoords
vt 0.0292969 0.5
vt 0.0332031 0.5
vt 0.0644531 0.5
vt 0.958984 0.5
vt 0.994141 0.5

# verts
v -19.8 0 1.3
v -19.8 0 0.8
v -19.8 0 -0.8
v -19.8 0 -1.3
v -19.8 0.3 1.3
v -19.8 0.3 0.8
v -19.8 0.3 -0.8
v -19.8 0.3 -1.3
v -19.8 0.7 1.1
v -19.8 0.7 0.8
v -19.8 0.7 -0.8
v -19.8 1.1 1.1
v -19.8 1.1 0.8
v -19.8 1.2 0.6
v -19.8 1.2 -0.8
v -19.8 1.4 -1.1
v -19.8 1.4 -1.3
v -19.8 1.8 -1.1
v -19.8 1.8 -1.3
v -19.8 2 1.3
v -19.8 2 0.6
v -19.8 2 -0.8
v -19.8 2 -1.3
v -19.7 2 1.3
v -19.7 2 0.6
v -19.7 2 -0.8
v -19.7 2 -1.3
v -19.7 2.1 1.3
v -19.7 2.1 0.6
v -19.7 2.1 -0.8
v -19.7 2.1 -1.3
v -19.5 2.2 1.6
v -19.5 2.2 1.4
v -19.5 2.7 1.6
v -19.5 2.7 1.4
v -19.1 1.5 2.4
v -19.1 1.5 2.1
v -19.1 1.5 1.3
v -19.1 1.9 1.9
v -19.1 1.9 1.7
v -19.1 2.1 2.4
v -19.1 2.1 2.1
v -19.1 2.1 1.9
v -19.1 2.1 1.7
v -19.1 2.1 1.3
v -19.1 2.2 2.1
v -19.1 2.2 2
v -19.1 2.2 1.6
v -19.1 2.2 1.4
v -19.1 2.4 1.6
v -19.1 2.4 1.4
v -19.1 2.5 2
v -19.1 2.5 1.3
v -19 1.2 1.7
v -19 1.2 1.4
v -19 1.5 1.7
v -19 1.5 1.4
v -18.9 1.2 1.8
v -18.9 1.2 1.7
v -18.9 1.2 1.4
v -18.9 1.2 1.3
v -18.9 1.5 1.8
v -18.9 1.5 1.7
v -18.9 1.5 1.4
v -18.9 1.5 1.3
v -18.5 1.2 1.7
v -18.5 1.2 1.4
v -18.5 1.3 1.7
v -18.5 1.3 1.4
v -18.1 0 1.3
v -18.1 0 0.8
v -18.1 0 -0.8
v -18.1 0 -1.3
v -18.1 0.3 1.3
v -18.1 0.3 0.8
v -18.1 0.3 -0.8
v -18.1 0.3 -1.3
v -18.1 0.7 1.3
v -18.1 0.7 0.8
v -18.1 0.7 -0.8
v -18.1 0.7 -1.3
v -18.1 2.4 1.6
v -18.1 2.4 1.4
v -18.1 2.7 1.6
v -18.1 2.7 1.4
v -19.3 0 1.3
v -19.3 0 0.8
v -19.3 0 -0.8
v -19.3 0 -1.3
v -19.3 0.3 1.3
v -19.3 0.3 0.8
v -19.3 0.3 -0.8
v -19.3 0.3 -1.3
v -19.3 0.7 1.3
v -19.3 0.7 0.8
v -19.3 0.7 -0.8
v -19.3 0.7 -1.3
v -19.3 2.4 1.6
v -19.3 2.4 1.4
v -19.3 2.7 1.6
v -19.3 2.7 1.4
v -18.9 1.2 1.7
v -18.9 1.2 1.4
v -18.9 1.3 1.7
v -18.9 1.3 1.4
v -18.5 1.2 1.8
v -18.5 1.2 1.7
v -18.5 1.2 1.4
v -18.5 1.2 1.3
v -18.5 1.5 1.8
v -18.5 1.5 1.7
v -18.5 1.5 1.4
v -18.5 1.5 1.3
v -18.4 1.2 1.7
v -18.4 1.2 1.4
v -18.4 1.5 1.7
v -18.4 1.5 1.4
v -18.3 1.5 2.4
v -18.3 1.5 2.1
v -18.3 1.5 1.3
v -18.3 1.9 1.9
v -18.3 1.9 1.7
v -18.3 2.1 2.4
v -18.3 2.1 2.1
v -18.3 2.1 1.9
v -18.3 2.1 1.7
v -18.3 2.1 1.3
v -18.3 2.2 2.1
v -18.3 2.2 2
v -18.3 2.2 1.6
v -18.3 2.2 1.4
v -18.3 2.4 1.6
v -18.3 2.4 1.4
v -18.3 2.5 2
v -18.3 2.5 1.3
v -17.9 2.2 1.6
v -17.9 2.2 1.4
v -17.9 2.7 1.6
v -17.9 2.7 1.4
v -17.7 2 1.3
v -17.7 2 0.6
v -17.7 2 -0.8
v -17.7 2 -1.3
v -17.7 2.1 1.3
v -17.7 2.1 0.6
v -17.7 2.1 -0.8
v -17.7 2.1 -1.3
v -17.6 0 1.3
v -17.6 0 0.8
v -17.6 0 -0.8
v -17.6 0 -1.3
v -17.6 0.3 1.3
v -17.6 0.3 0.8
v -17.6 0.3 -0.8
v -17.6 0.3 -1.3
v -17.6 0.5 -1
v -17.6 0.5 -1.3
v -17.6 0.7 0.8
v -17.6 0.7 -0.8
v -17.6 0.7 -1
v -17.6 0.7 -1.3
v -17.6 0.8 1.3
v -17.6 0.8 1.1
v -17.6 1.2 0.6
v -17.6 1.2 -0.8
v -17.6 1.3 1.3
v -17.6 1.3 1.1
v -17.6 2 1.3
v -17.6 2 0.6
v -17.6 2 -0.8
v -17.6 2 -1.3
v -19.1 1.5 2.4
v -19.1 2.1 2.4
v -19 1.7 2.4
v -19 1.9 2.4
v -18.8 1.7 2.4
v -18.8 1.9 2.4
v -18.6 1.7 2.4
v -18.6 1.9 2.4
v -18.4 1.7 2.4
v -18.4 1.9 2.4
v -18.3 1.5 2.4
v -18.3 2.1 2.4
v -19.1 2.1 2.1
v -19.1 2.2 2.1
v -18.3 2.1 2.1
v -18.3 2.2 2.1
v -19.1 2.2 2
v -19.1 2.5 2
v -18.3 2.2 2
v -18.3 2.5 2
v -18.9 1.2 1.8
v -18.9 1.5 1.8
v -18.5 1.2 1.8
v -18.5 1.5 1.8
v -19 1.2 1.7
v -19 1.5 1.7
v -18.9 1.2 1.7
v -18.9 1.5 1.7
v -18.5 1.2 1.7
v -18.5 1.5 1.7
v -18.4 1.2 1.7
v -18.4 1.5 1.7
v -19.5 2.2 1.6
v -19.5 2.7 1.6
v -19.3 2.4 1.6
v -19.3 2.7 1.6
v -19.1 2.2 1.6
v -19.1 2.4 1.6
v -18.3 2.2 1.6
v -18.3 2.4 1.6
v -18.1 2.4 1.6
v -18.1 2.7 1.6
v -17.9 2.2 1.6
v -17.9 2.7 1.6
v -18.9 1.2 1.4
v -18.9 1.3 1.4
v -18.5 1.2 1.4
v -18.5 1.3 1.4
v -19.8 0 1.3
v -19.8 0.3 1.3
v -19.8 2 1.3
v -19.7 2 1.3
v -19.7 2.1 1.3
v -19.3 0 1.3
v -19.3 0.3 1.3
v -19.3 0.7 1.3
v -19.2 0.9 1.3
v -19.2 1.2 1.3
v -19.1 1.5 1.3
v -19.1 2.1 1.3
v -19 0.9 1.3
v -19 1.2 1.3
v -18.9 1.2 1.3
v -18.9 1.5 1.3
v -18.5 1.2 1.3
v -18.5 1.5 1.3
v -18.3 1.5 1.3
v -18.3 2.1 1.3
v -18.1 0 1.3
v -18.1 0.3 1.3
v -18.1 0.7 1.3
v -18 0.8 1.3
v -18 1.3 1.3
v -17.7 2 1.3
v -17.7 2.1 1.3
v -17.6 0 1.3
v -17.6 0.3 1.3
v -17.6 0.8 1.3
v -17.6 1.3 1.3
v -17.6 2 1.3
v -19.8 0 -0.8
v -19.8 0.3 -0.8
v -19.8 0.7 -0.8
v -19.3 0 -0.8
v -19.3 0.3 -0.8
v -19.3 0.7 -0.8
v -18.1 0 -0.8
v -18.1 0.3 -0.8
v -18.1 0.7 -0.8
v -17.6 0 -0.8
v -17.6 0.3 -0.8
v -17.6 0.7 -0.8
v -18.9 1.2 1.7
v -18.9 1.3 1.7
v -18.5 1.2 1.7
v -18.5 1.3 1.7
v -19.5 2.2 1.4
v -19.5 2.7 1.4
v -19.3 2.4 1.4
v -19.3 2.7 1.4
v -19.1 2.2 1.4
v -19.1 2.4 1.4
v -19 1.2 1.4
v -19 1.5 1.4
v -18.9 1.2 1.4
v -18.9 1.5 1.4
v -18.5 1.2 1.4
v -18.5 1.5 1.4
v -18.4 1.2 1.4
v -18.4 1.5 1.4
v -18.3 2.2 1.4
v -18.3 2.4 1.4
v -18.1 2.4 1.4
v -18.1 2.7 1.4
v -17.9 2.2 1.4
v -17.9 2.7 1.4
v -19.1 2.1 1.3
v -19.1 2.5 1.3
v -18.3 2.1 1.3
v -18.3 2.5 1.3
v -19.8 0 0.8
v -19.8 0.3 0.8
v -19.8 0.7 0.8
v -19.3 0 0.8
v -19.3 0.3 0.8
v -19.3 0.7 0.8
v -18.1 0 0.8
v -18.1 0.3 0.8
v -18.1 0.7 0.8
v -17.6 0 0.8
v -17.6 0.3 0.8
v -17.6 0.7 0.8
v -19.8 0 -1.3
v -19.8 0.3 -1.3
v -19.8 1.4 -1.3
v -19.8 1.8 -1.3
v -19.8 2 -1.3
v -19.7 0.6 -1.3
v -19.7 1.1 -1.3
v -19.7 1.4 -1.3
v -19.7 1.8 -1.3
v -19.7 2 -1.3
v -19.7 2.1 -1.3
v -19.4 0.6 -1.3
v -19.4 1.1 -1.3
v -19.3 0 -1.3
v -19.3 0.3 -1.3
v -19.3 0.7 -1.3
v -18.5 1.4 -1.3
v -18.5 1.8 -1.3
v -18.1 0 -1.3
v -18.1 0.3 -1.3
v -18.1 0.7 -1.3
v -17.8 1.4 -1.3
v -17.8 1.8 -1.3
v -17.7 0.5 -1.3
v -17.7 0.7 -1.3
v -17.7 2 -1.3
v -17.7 2.1 -1.3
v -17.6 0 -1.3
v -17.6 0.3 -1.3
v -17.6 0.5 -1.3
v -17.6 0.7 -1.3
v -17.6 2 -1.3
v -19.8 0 1.3
v -19.3 0 1.3
v -18.1 0 1.3
v -17.6 0 1.3
v -19.8 0 0.8
v -19.3 0 0.8
v -18.1 0 0.8
v -17.6 0 0.8
v -19.8 0 -0.8
v -19.3 0 -0.8
v -18.1 0 -0.8
v -17.6 0 -0.8
v -19.8 0 -1.3
v -19.3 0 -1.3
v -18.1 0 -1.3
v -17.6 0 -1.3
v -19.3 0.7 1.3
v -18.1 0.7 1.3
v -19.8 0.7 0.8
v -19.3 0.7 0.8
v -18.1 0.7 0.8
v -17.6 0.7 0.8
v -19.8 0.7 -0.8
v -19.3 0.7 -0.8
v -18.1 0.7 -0.8
v -17.6 0.7 -0.8
v -19.3 0.7 -1.3
v -18.1 0.7 -1.3
v -18.9 1.2 1.8
v -18.5 1.2 1.8
v -19 1.2 1.7
v -18.9 1.2 1.7
v -18.5 1.2 1.7
v -18.4 1.2 1.7
v -19 1.2 1.4
v -18.9 1.2 1.4
v -18.5 1.2 1.4
v -18.4 1.2 1.4
v -18.9 1.2 1.3
v -18.5 1.2 1.3
v -18.9 1.3 1.7
v -18.5 1.3 1.7
v -18.9 1.3 1.4
v -18.5 1.3 1.4
v -19.1 1.5 2.4
v -18.3 1.5 2.4
v -19.1 1.5 2.1
v -18.3 1.5 2.1
v -18.9 1.5 1.8
v -18.5 1.5 1.8
v -19 1.5 1.7
v -18.9 1.5 1.7
v -18.5 1.5 1.7
v -18.4 1.5 1.7
v -19 1.5 1.4
v -18.9 1.5 1.4
v -18.5 1.5 1.4
v -18.4 1.5 1.4
v -19.1 1.5 1.3
v -18.9 1.5 1.3
v -18.5 1.5 1.3
v -18.3 1.5 1.3
v -19.5 2.2 1.6
v -19.1 2.2 1.6
v -18.3 2.2 1.6
v -17.9 2.2 1.6
v -19.5 2.2 1.4
v -19.1 2.2 1.4
v -18.3 2.2 1.4
v -17.9 2.2 1.4
v -19.8 2 1.3
v -19.7 2 1.3
v -17.7 2 1.3
v -17.6 2 1.3
v -19.8 2 0.6
v -19.7 2 0.6
v -17.7 2 0.6
v -17.6 2 0.6
v -19.8 2 -0.8
v -19.7 2 -0.8
v -17.7 2 -0.8
v -17.6 2 -0.8
v -19.8 2 -1.3
v -19.7 2 -1.3
v -17.7 2 -1.3
v -17.6 2 -1.3
v -19.1 2.1 2.4
v -18.3 2.1 2.4
v -19.1 2.1 2.1
v -18.3 2.1 2.1
v -19.7 2.1 1.3
v -19.1 2.1 1.3
v -18.3 2.1 1.3
v -17.7 2.1 1.3
v -19.2 2.1 0.8
v -18.8 2.1 0.8
v -19.7 2.1 0.6
v -19.6 2.1 0.6
v -17.8 2.1 0.6
v -17.7 2.1 0.6
v -19.2 2.1 0.4
v -18.8 2.1 0.4
v -18.8 2.1 -0.7
v -18.1 2.1 -0.7
v -19.7 2.1 -0.8
v -19.6 2.1 -0.8
v -17.8 2.1 -0.8
v -17.7 2.1 -0.8
v -18.8 2.1 -1.2
v -18.1 2.1 -1.2
v -19.7 2.1 -1.3
v -17.7 2.1 -1.3
v -19.1 2.2 2.1
v -18.3 2.2 2.1
v -19.1 2.2 2
v -18.3 2.2 2
v -19.3 2.4 1.6
v -19.1 2.4 1.6
v -18.3 2.4 1.6
v -18.1 2.4 1.6
v -19.3 2.4 1.4
v -19.1 2.4 1.4
v -18.3 2.4 1.4
v -18.1 2.4 1.4
v -19.1 2.5 2
v -18.3 2.5 2
v -19.1 2.5 1.3
v -18.3 2.5 1.3
v -19.5 2.7 1.6
v -19.3 2.7 1.6
v -18.1 2.7 1.6
v -17.9 2.7 1.6
v -19.5 2.7 1.4
v -19.3 2.7 1.4
v -18.1 2.7 1.4
v -17.9 2.7 1.4

# faces
f 5/5/1 2/5/1 1/5/1
f 6/5/1 2/5/1 5/5/1
f 7/5/1 4/5/1 3/5/1
f 8/5/1 4/5/1 7/5/1
f 9/4/1 6/4/1 5/4/1
f 10/4/1 6/4/1 9/4/1
f 11/4/1 8/4/1 7/4/1
f 12/5/1 10/5/1 9/5/1
f 12/4/1 9/4/1 5/4/1
f 13/4/1 11/4/1 10/4/1
f 13/5/1 10/5/1 12/5/1
f 14/4/1 13/4/1 12/4/1
f 14/4/1 11/4/1 13/4/1
f 15/4/1 8/4/1 11/4/1
f 15/4/1 11/4/1 14/4/1
f 16/4/1 8/4/1 15/4/1
f 17/4/1 8/4/1 16/4/1
f 18/4/1 16/4/1 15/4/1
f 18/5/1 17/5/1 16/5/1
f 19/5/1 17/5/1 18/5/1
f 20/4/1 12/4/1 5/4/1
f 20/4/1 14/4/1 12/4/1
f 21/5/1 15/5/1 14/5/1
f 21/4/1 14/4/1 20/4/1
f 22/4/1 19/4/1 18/4/1
f 22/5/1 15/5/1 21/5/1
f 22/4/1 18/4/1 15/4/1
f 23/4/1 19/4/1 22/4/1
f 28/4/1 25/4/1 24/4/1
f 29/5/1 26/5/1 25/5/1
f 29/4/1 25/4/1 28/4/1
f 30/4/1 27/4/1 26/4/1
f 30/5/1 26/5/1 29/5/1
f 31/4/1 27/4/1 30/4/1
f 34/2/1 33/2/1 32/2/1
f 35/2/1 33/2/1 34/2/1
f 39/4/1 38/4/1 37/4/1
f 40/4/1 38/4/1 39/4/1
f 41/1/1 37/1/1 36/1/1
f 42/4/1 39/4/1 37/4/1
f 42/1/1 37/1/1 41/1/1
f 43/5/1 40/5/1 39/5/1
f 43/4/1 39/4/1 42/4/1
f 44/4/1 38/4/1 40/4/1
f 44/5/1 40/5/1 43/5/1
f 45/4/1 38/4/1 44/4/1
f 46/4/1 43/4/1 42/4/1
f 46/4/1 45/4/1 44/4/1
f 46/4/1 44/4/1 43/4/1
f 47/4/1 45/4/1 46/4/1
f 48/4/1 45/4/1 47/4/1
f 49/4/1 45/4/1 48/4/1
f 50/4/1 48/4/1 47/4/1
f 51/4/1 45/4/1 49/4/1
f 52/4/1 50/4/1 47/4/1
f 52/4/1 51/4/1 50/4/1
f 53/4/1 45/4/1 51/4/1
f 53/4/1 51/4/1 52/4/1
f 56/3/1 55/3/1 54/3/1
f 57/3/1 55/3/1 56/3/1
f 62/3/1 59/3/1 58/3/1
f 63/3/1 59/3/1 62/3/1
f 64/3/1 61/3/1 60/3/1
f 65/3/1 61/3/1 64/3/1
f 68/3/1 67/3/1 66/3/1
f 69/3/1 67/3/1 68/3/1
f 74/5/1 71/5/1 70/5/1
f 75/5/1 71/5/1 74/5/1
f 76/5/1 73/5/1 72/5/1
f 77/5/1 73/5/1 76/5/1
f 78/4/1 75/4/1 74/4/1
f 79/4/1 75/4/1 78/4/1
f 80/4/1 77/4/1 76/4/1
f 81/4/1 77/4/1 80/4/1
f 84/2/1 83/2/1 82/2/1
f 85/2/1 83/2/1 84/2/1
f 86/5/2 87/5/2 90/5/2
f 90/5/2 87/5/2 91/5/2
f 88/5/2 89/5/2 92/5/2
f 92/5/2 89/5/2 93/5/2
f 90/4/2 91/4/2 94/4/2
f 94/4/2 91/4/2 95/4/2
f 92/4/2 93/4/2 96/4/2
f 96/4/2 93/4/2 97/4/2
f 98/2/2 99/2/2 100/2/2
f 100/2/2 99/2/2 101/2/2
f 102/3/2 103/3/2 104/3/2
f 104/3/2 103/3/2 105/3/2
f 106/3/2 107/3/2 110/3/2
f 110/3/2 107/3/2 111/3/2
f 108/3/2 109/3/2 112/3/2
f 112/3/2 109/3/2 113/3/2
f 114/3/2 115/3/2 116/3/2
f 116/3/2 115/3/2 117/3/2
f 119/4/2 120/4/2 121/4/2
f 121/4/2 120/4/2 122/4/2
f 118/1/2 119/1/2 123/1/2
f 119/4/2 121/4/2 124/4/2
f 123/1/2 119/1/2 124/1/2
f 121/5/2 122/5/2 125/5/2
f 124/4/2 121/4/2 125/4/2
f 122/4/2 120/4/2 126/4/2
f 125/5/2 122/5/2 126/5/2
f 126/4/2 120/4/2 127/4/2
f 124/4/2 125/4/2 128/4/2
f 126/4/2 127/4/2 128/4/2
f 125/4/2 126/4/2 128/4/2
f 128/4/2 127/4/2 129/4/2
f 129/4/2 127/4/2 130/4/2
f 130/4/2 127/4/2 131/4/2
f 129/4/2 130/4/2 132/4/2
f 131/4/2 127/4/2 133/4/2
f 129/4/2 132/4/2 134/4/2
f 132/4/2 133/4/2 134/4/2
f 133/4/2 127/4/2 135/4/2
f 134/4/2 133/4/2 135/4/2
f 136/2/2 137/2/2 138/2/2
f 138/2/2 137/2/2 139/2/2
f 140/4/2 141/4/2 144/4/2
f 141/5/2 142/5/2 145/5/2
f 144/4/2 141/4/2 145/4/2
f 142/4/2 143/4/2 146/4/2
f 145/5/2 142/5/2 146/5/2
f 146/4/2 143/4/2 147/4/2
f 148/5/2 149/5/2 152/5/2
f 152/5/2 149/5/2 153/5/2
f 150/5/2 151/5/2 154/5/2
f 154/5/2 151/5/2 155/5/2
f 154/4/2 155/4/2 156/4/2
f 156/4/2 155/4/2 157/4/2
f 152/4/2 153/4/2 158/4/2
f 154/4/2 156/4/2 159/4/2
f 156/5/2 157/5/2 160/5/2
f 159/4/2 156/4/2 160/4/2
f 160/5/2 157/5/2 161/5/2
f 152/4/2 158/4/2 162/4/2
f 158/4/2 159/4/2 162/4/2
f 160/4/2 161/4/2 162/4/2
f 159/4/2 160/4/2 162/4/2
f 162/4/2 161/4/2 163/4/2
f 163/4/2 161/4/2 164/4/2
f 164/4/2 161/4/2 165/4/2
f 162/5/2 163/5/2 166/5/2
f 163/4/2 164/4/2 167/4/2
f 166/5/2 163/5/2 167/5/2
f 166/4/2 167/4/2 168/4/2
f 164/5/2 165/5/2 169/5/2
f 168/4/2 167/4/2 169/4/2
f 167/4/2 164/4/2 169/4/2
f 165/4/2 161/4/2 170/4/2
f 169/5/2 165/5/2 170/5/2
f 170/4/2 161/4/2 171/4/2
f 174/1/3 173/1/3 172/1/3
f 175/1/3 173/1/3 174/1/3
f 176/1/3 174/1/3 172/1/3
f 176/5/3 175/5/3 174/5/3
f 177/1/3 173/1/3 175/1/3
f 177/5/3 175/5/3 176/5/3
f 178/1/3 176/1/3 172/1/3
f 178/1/3 177/1/3 176/1/3
f 179/1/3 173/1/3 177/1/3
f 179/1/3 177/1/3 178/1/3
f 180/1/3 178/1/3 172/1/3
f 180/5/3 179/5/3 178/5/3
f 181/1/3 173/1/3 179/1/3
f 181/5/3 179/5/3 180/5/3
f 182/1/3 180/1/3 172/1/3
f 182/1/3 181/1/3 180/1/3
f 183/1/3 173/1/3 181/1/3
f 183/1/3 181/1/3 182/1/3
f 186/4/3 185/4/3 184/4/3
f 187/4/3 185/4/3 186/4/3
f 190/4/3 189/4/3 188/4/3
f 191/4/3 189/4/3 190/4/3
f 194/3/3 193/3/3 192/3/3
f 195/3/3 193/3/3 194/3/3
f 198/3/3 197/3/3 196/3/3
f 199/3/3 197/3/3 198/3/3
f 202/3/3 201/3/3 200/3/3
f 203/3/3 201/3/3 202/3/3
f 206/2/3 205/2/3 204/2/3
f 207/2/3 205/2/3 206/2/3
f 208/2/3 206/2/3 204/2/3
f 209/2/3 206/2/3 208/2/3
f 212/2/3 211/2/3 210/2/3
f 214/2/3 212/2/3 210/2/3
f 214/2/3 213/2/3 212/2/3
f 215/2/3 213/2/3 214/2/3
f 218/3/3 217/3/3 216/3/3
f 219/3/3 217/3/3 218/3/3
f 223/4/3 222/4/3 221/4/3
f 225/5/3 221/5/3 220/5/3
f 226/4/3 224/4/3 223/4/3
f 226/5/3 221/5/3 225/5/3
f 226/4/3 223/4/3 221/4/3
f 227/4/3 224/4/3 226/4/3
f 228/4/3 224/4/3 227/4/3
f 229/4/3 224/4/3 228/4/3
f 230/4/3 224/4/3 229/4/3
f 231/4/3 224/4/3 230/4/3
f 232/4/3 228/4/3 227/4/3
f 232/5/3 229/5/3 228/5/3
f 233/4/3 230/4/3 229/4/3
f 233/5/3 229/5/3 232/5/3
f 234/4/3 233/4/3 232/4/3
f 234/4/3 230/4/3 233/4/3
f 235/4/3 230/4/3 234/4/3
f 236/4/3 234/4/3 232/4/3
f 238/4/3 237/4/3 236/4/3
f 242/4/3 232/4/3 227/4/3
f 242/4/3 238/4/3 236/4/3
f 242/4/3 239/4/3 238/4/3
f 242/4/3 236/4/3 232/4/3
f 243/4/3 239/4/3 242/4/3
f 243/4/3 242/4/3 241/4/3
f 244/4/3 239/4/3 243/4/3
f 245/4/3 239/4/3 244/4/3
f 246/4/3 239/4/3 245/4/3
f 247/5/3 241/5/3 240/5/3
f 248/4/3 243/4/3 241/4/3
f 248/5/3 241/5/3 247/5/3
f 249/5/3 244/5/3 243/5/3
f 249/4/3 243/4/3 248/4/3
f 250/4/3 245/4/3 244/4/3
f 250/5/3 244/5/3 249/5/3
f 251/4/3 245/4/3 250/4/3
f 255/5/3 253/5/3 252/5/3
f 256/4/3 254/4/3 253/4/3
f 256/5/3 253/5/3 255/5/3
f 257/4/3 254/4/3 256/4/3
f 261/5/3 259/5/3 258/5/3
f 262/4/3 260/4/3 259/4/3
f 262/5/3 259/5/3 261/5/3
f 263/4/3 260/4/3 262/4/3
f 264/3/4 265/3/4 266/3/4
f 266/3/4 265/3/4 267/3/4
f 268/2/4 269/2/4 270/2/4
f 270/2/4 269/2/4 271/2/4
f 268/2/4 270/2/4 272/2/4
f 272/2/4 270/2/4 273/2/4
f 274/3/4 275/3/4 276/3/4
f 276/3/4 275/3/4 277/3/4
f 278/3/4 279/3/4 280/3/4
f 280/3/4 279/3/4 281/3/4
f 282/2/4 283/2/4 284/2/4
f 282/2/4 284/2/4 286/2/4
f 284/2/4 285/2/4 286/2/4
f 286/2/4 285/2/4 287/2/4
f 288/4/4 289/4/4 290/4/4
f 290/4/4 289/4/4 291/4/4
f 292/5/4 293/5/4 295/5/4
f 293/4/4 294/4/4 296/4/4
f 295/5/4 293/5/4 296/5/4
f 296/4/4 294/4/4 297/4/4
f 298/5/4 299/5/4 301/5/4
f 299/4/4 300/4/4 302/4/4
f 301/5/4 299/5/4 302/5/4
f 302/4/4 300/4/4 303/4/4
f 305/4/4 306/4/4 309/4/4
f 309/4/4 306/4/4 310/4/4
f 306/5/4 307/5/4 311/5/4
f 310/4/4 306/4/4 311/4/4
f 307/4/4 308/4/4 312/4/4
f 311/5/4 307/5/4 312/5/4
f 312/4/4 308/4/4 313/4/4
f 309/5/4 310/5/4 315/5/4
f 305/4/4 309/4/4 315/4/4
f 310/4/4 311/4/4 316/4/4
f 315/5/4 310/5/4 316/5/4
f 313/4/4 314/4/4 316/4/4
f 311/4/4 312/4/4 316/4/4
f 312/4/4 313/4/4 316/4/4
f 304/5/4 305/5/4 317/5/4
f 305/4/4 315/4/4 318/4/4
f 317/5/4 305/5/4 318/5/4
f 315/4/4 316/4/4 318/4/4
f 318/4/4 316/4/4 319/4/4
f 316/4/4 314/4/4 320/4/4
f 319/4/4 316/4/4 320/4/4
f 320/4/4 314/4/4 321/4/4
f 319/4/4 320/4/4 324/4/4
f 320/5/4 321/5/4 325/5/4
f 323/4/4 324/4/4 325/4/4
f 324/4/4 320/4/4 325/4/4
f 321/4/4 314/4/4 326/4/4
f 325/5/4 321/5/4 326/5/4
f 323/4/4 325/4/4 327/4/4
f 325/4/4 326/4/4 327/4/4
f 327/4/4 326/4/4 328/4/4
f 326/4/4 314/4/4 329/4/4
f 328/4/4 326/4/4 329/4/4
f 329/4/4 314/4/4 330/4/4
f 322/5/4 323/5/4 331/5/4
f 323/4/4 327/4/4 332/4/4
f 331/5/4 323/5/4 332/5/4
f 327/5/4 328/5/4 333/5/4
f 332/4/4 327/4/4 333/4/4
f 328/4/4 329/4/4 334/4/4
f 333/5/4 328/5/4 334/5/4
f 334/4/4 329/4/4 335/4/4
f 340/5/5 337/5/5 336/5/5
f 341/5/5 337/5/5 340/5/5
f 342/5/5 339/5/5 338/5/5
f 343/5/5 339/5/5 342/5/5
f 348/5/5 345/5/5 344/5/5
f 349/5/5 345/5/5 348/5/5
f 350/5/5 347/5/5 346/5/5
f 351/5/5 347/5/5 350/5/5
f 355/4/5 353/4/5 352/4/5
f 356/4/5 353/4/5 355/4/5
f 358/4/5 355/4/5 354/4/5
f 358/4/5 357/4/5 356/4/5
f 358/4/5 356/4/5 355/4/5
f 359/4/5 357/4/5 358/4/5
f 360/4/5 357/4/5 359/4/5
f 361/4/5 357/4/5 360/4/5
f 362/4/5 360/4/5 359/4/5
f 363/4/5 360/4/5 362/4/5
f 367/3/5 365/3/5 364/3/5
f 368/3/5 365/3/5 367/3/5
f 370/3/5 367/3/5 366/3/5
f 371/3/5 367/3/5 370/3/5
f 372/3/5 369/3/5 368/3/5
f 373/3/5 369/3/5 372/3/5
f 374/3/5 372/3/5 371/3/5
f 375/3/5 372/3/5 374/3/5
f 378/3/5 377/3/5 376/3/5
f 379/3/5 377/3/5 378/3/5
f 382/1/5 381/1/5 380/1/5
f 383/1/5 381/1/5 382/1/5
f 384/4/5 383/4/5 382/4/5
f 385/4/5 383/4/5 384/4/5
f 386/4/5 384/4/5 382/4/5
f 387/4/5 384/4/5 386/4/5
f 388/4/5 383/4/5 385/4/5
f 389/4/5 383/4/5 388/4/5
f 390/4/5 386/4/5 382/4/5
f 393/4/5 383/4/5 389/4/5
f 394/4/5 391/4/5 390/4/5
f 394/4/5 390/4/5 382/4/5
f 395/4/5 391/4/5 394/4/5
f 396/4/5 393/4/5 392/4/5
f 397/4/5 383/4/5 393/4/5
f 397/4/5 393/4/5 396/4/5
f 402/2/5 399/2/5 398/2/5
f 403/2/5 399/2/5 402/2/5
f 404/2/5 401/2/5 400/2/5
f 405/2/5 401/2/5 404/2/5
f 406/4/6 407/4/6 410/4/6
f 410/4/6 407/4/6 411/4/6
f 408/4/6 409/4/6 412/4/6
f 412/4/6 409/4/6 413/4/6
f 410/5/6 411/5/6 414/5/6
f 414/5/6 411/5/6 415/5/6
f 412/5/6 413/5/6 416/5/6
f 416/5/6 413/5/6 417/5/6
f 414/4/6 415/4/6 418/4/6
f 418/4/6 415/4/6 419/4/6
f 416/4/6 417/4/6 420/4/6
f 420/4/6 417/4/6 421/4/6
f 422/1/6 423/1/6 424/1/6
f 424/1/6 423/1/6 425/1/6
f 427/4/6 428/4/6 430/4/6
f 428/4/6 429/4/6 430/4/6
f 426/4/6 427/4/6 430/4/6
f 430/4/6 429/4/6 431/4/6
f 426/4/6 430/4/6 432/4/6
f 432/4/6 430/4/6 433/4/6
f 431/4/6 429/4/6 434/4/6
f 434/4/6 429/4/6 435/4/6
f 433/4/6 430/4/6 436/4/6
f 430/5/6 431/5/6 436/5/6
f 431/4/6 434/4/6 437/4/6
f 436/5/6 431/5/6 437/5/6
f 436/4/6 437/4/6 438/4/6
f 437/4/6 434/4/6 438/4/6
f 438/4/6 434/4/6 439/4/6
f 432/5/6 433/5/6 440/5/6
f 433/4/6 436/4/6 441/4/6
f 440/5/6 433/5/6 441/5/6
f 436/4/6 438/4/6 441/4/6
f 434/5/6 435/5/6 442/5/6
f 439/4/6 434/4/6 442/4/6
f 442/5/6 435/5/6 443/5/6
f 441/4/6 438/4/6 444/4/6
f 440/4/6 441/4/6 444/4/6
f 438/5/6 439/5/6 444/5/6
f 442/4/6 443/4/6 445/4/6
f 444/5/6 439/5/6 445/5/6
f 439/4/6 442/4/6 445/4/6
f 440/4/6 444/4/6 446/4/6
f 444/4/6 445/4/6 446/4/6
f 445/4/6 443/4/6 447/4/6
f 446/4/6 445/4/6 447/4/6
f 448/4/6 449/4/6 450/4/6
f 450/4/6 449/4/6 451/4/6
f 452/2/6 453/2/6 456/2/6
f 456/2/6 453/2/6 457/2/6
f 454/2/6 455/2/6 458/2/6
f 458/2/6 455/2/6 459/2/6
f 460/4/6 461/4/6 462/4/6
f 462/4/6 461/4/6 463/4/6
f 464/2/6 465/2/6 468/2/6
f 468/2/6 465/2/6 469/2/6
f 466/2/6 467/2/6 470/2/6
f 470/2/6 467/2/6 471/2/6
